<?xml version="1.0" encoding="utf-8"?>
<!-- Generator: Adobe Illustrator 21.0.0, SVG Export Plug-In . SVG Version: 6.00 Build 0)  -->
<svg version="1.1" id="Layer_1" xmlns="http://www.w3.org/2000/svg" xmlns:xlink="http://www.w3.org/1999/xlink" x="0px" y="0px"
	 viewBox="0 0 100 33" style="enable-background:new 0 0 100 33;" xml:space="preserve">
<style type="text/css">
	.st0{fill:#C00D0D;}
</style>
<g>
	<path class="st0" d="M1,3.4c0.6-0.1,1.2,0,1.8,0.1L1,3.4z M8.7,0.4h0.1c0,0.1,0,0.1,0,0.2s0,0.2,0,0.3c0,0.1,0,0.2-0.1,0.2
		c0,0.1-0.1,0.1-0.2,0C8.8,1.5,8.8,1.8,8.8,2c-0.1,0.2,0,0.5,0,0.8c0,0,0.1,0,0.1-0.1c0-0.1,0,0,0.1,0.1c0,0,0.1-0.1,0.1-0.2
		c0-0.1,0-0.2-0.1-0.1c0,0,0.1-0.1,0.2-0.1c0.1,0,0.2,0,0.2,0.1l0,0.1l0.1,0c0,0.2,0,0.3,0,0.4c0,0.1,0,0.2,0,0.3
		c0.1,0,0.1-0.1,0.1-0.1c0,0,0.1-0.1,0.1-0.1l0,0.1l0.1,0c-0.1,0.2,0,0.3,0.1,0.5c0.1,0.2,0.2,0.2,0.2,0.1l0.1,0l0.1-0.1h0.1
		l0.1,0.1l0.1,0c0,0.2-0.1,0.3,0,0.4c0,0,0,0.2,0,0.4C12.1,6,13.4,7.5,14.6,9c1.2,1.5,2.5,3,3.7,4.6c1-1.1,2-2.2,2.9-3.3
		C22.1,9.2,23,8,24,6.9c-0.1,0-0.1-0.1-0.1-0.1c0-0.1,0-0.1-0.1-0.1c0,0,0.1-0.1,0.2-0.1c0.1,0,0.2-0.1,0.3-0.1c0,0-0.1-0.1-0.2-0.1
		c-0.1,0-0.1-0.1-0.1-0.2c0.1,0,0.2-0.1,0.3,0c0.1,0,0.1,0,0.2-0.1c-0.1,0-0.2-0.2-0.2-0.3h-0.3c0-0.1,0.1-0.2,0.1-0.2
		c0,0,0-0.1,0-0.2c0.1,0.1,0.1,0.1,0.2,0.1c0.1,0,0.1,0.1,0.2,0.1c0-0.1-0.1-0.2-0.2-0.4c-0.1-0.1-0.1-0.2,0-0.3
		c0.1,0,0.2,0.1,0.3,0.1c0,0.1,0.1,0.1,0.1,0.1c0,0,0.1,0,0.1,0c0,0,0,0,0-0.1c0,0,0.1,0.1,0.2,0.2c0.1,0.1,0.1,0.1,0.2-0.1
		c0.1,0.1,0.1,0.1,0,0.2c-0.1,0.1-0.1,0.1,0,0.2c0.1-0.1,0.2-0.3,0.3-0.4c0.1-0.1,0.2-0.3,0.2-0.4c0.1-0.1,0.2-0.2,0.3-0.2
		c0.1,0,0.2-0.1,0.2-0.2c0-0.1,0-0.1-0.1-0.1c-0.1,0.1-0.1,0,0.1-0.1c0.1-0.1,0.3-0.2,0.4-0.3c0.1-0.1,0.2-0.2,0.3-0.4
		c0.4,0,0.8,0,1.1,0c0-0.1,0-0.1-0.1-0.1c0-0.1,0.1-0.1,0.3,0c0.1,0.1,0.2,0.1,0.3-0.1c0.1,0.1,0.3,0.2,0.4,0.2c0.2,0,0.3,0,0.4,0
		c0.4,0,0.9,0,1.5,0c0.5,0,1.1,0,1.7,0s1.2,0,1.8,0c0.6,0,1.1,0,1.6,0c-0.1,0.1-0.2,0.3-0.3,0.4s-0.2,0.3-0.3,0.4
		c-0.1,0-0.2,0-0.2-0.1c0-0.1-0.1-0.1-0.2,0V3.9h0c-0.1,0.1-0.3,0-0.4-0.1c-0.1-0.1-0.3,0-0.4,0.1c0.2-0.1,0.3-0.1,0.3,0
		c0,0.1,0.1,0.1,0.2,0v0.1c0,0,0.1,0,0.1,0c0,0,0,0,0.1,0v0H35c0,0,0.1,0,0.1,0c0,0,0.1,0,0.1-0.1c0,0,0.1,0,0.1,0.1
		c0,0,0,0.1,0.1,0.1c0,0.1,0,0.2-0.1,0.2c-0.1,0-0.1,0-0.2-0.1c0.1,0.1,0.1,0.2,0,0.3c-0.1,0.1-0.2,0.2-0.2,0.3
		c-0.1-0.1-0.2-0.1-0.2-0.1c0,0.1-0.1,0.1-0.2,0.1c0,0,0,0.1,0.1,0.1c0,0.1,0,0.1-0.1,0.1V5h-0.1c0,0.1-0.1,0.1-0.2,0.1
		c0.1,0,0.1-0.1,0-0.2s-0.1-0.1-0.2,0C34,5,34,5.1,33.8,5.1l0,0h0c-0.1,0-0.1,0-0.1,0.1c0,0,0,0.1-0.1,0.1l-0.1,0l0,0.1
		c-0.2,0-0.3-0.1-0.4,0c-0.1,0-0.2,0-0.3,0l0-0.1h-0.1c0,0,0-0.1,0.1-0.1s0.1,0,0.1-0.1L33,4.8V4.6h0.1l0.1,0l0.1,0
		c0,0.1,0,0.1,0,0.1c0,0,0.1,0,0.1-0.1c-0.1,0-0.1,0-0.1,0V4.6l-0.1-0.1c0,0,0-0.1,0-0.1c0,0,0,0,0-0.1c-0.1,0-0.2,0-0.2,0.1l-0.1,0
		l-0.1,0c0,0.1-0.1,0.1-0.1,0.1c-0.1-0.1-0.1-0.1-0.2-0.1c0,0,0,0.1-0.1,0.2l0,0.1l0,0.1c-0.1,0-0.1,0.1-0.1,0.2
		c0,0.1-0.1,0.1-0.1,0c0,0,0.1,0,0.1,0c0,0,0,0-0.1,0c-0.1,0.1-0.1,0.2,0,0.3l-0.1,0v0.1c0.1,0.1,0.3,0.1,0.6,0.1s0.5,0,0.6-0.1l0,0
		l0,0h0.6c-1.4,1.7-2.8,3.4-4.3,5.1c-1.4,1.7-2.8,3.4-4.2,5.1c-0.1,0.1-0.2,0-0.2-0.1c0-0.1-0.1-0.1-0.2-0.1c-0.1,0.1-0.1,0.2,0,0.2
		c0.1,0.1,0.1,0.2,0.1,0.3c-0.1,0.1-0.2,0.1-0.2,0c0,0-0.1-0.1-0.2-0.1l-0.1,0l0,0.1C24.9,16,24.9,16,24.8,16
		c-0.1,0-0.1,0.1-0.1,0.1v0v0.1c-0.1,0-0.1,0,0,0.1c0.1,0.1,0.1,0.1,0,0.2c-0.1,0-0.3,0.1-0.3,0.2c-0.1,0.1-0.1,0.2-0.2,0.4
		c-0.1,0.1-0.1,0.3-0.2,0.4c-0.1,0.1-0.2,0.2-0.3,0.3c0.2,0.1,0.2,0.1,0.2,0.3c0,0.1-0.1,0.3-0.1,0.5c-0.1,0-0.1,0-0.1,0
		c0,0,0,0,0-0.1c0,0,0,0,0-0.1c0,0,0,0-0.1,0l-0.1-0.1l-0.1,0c0-0.1-0.1-0.1-0.1,0c-0.1,0.1-0.1,0.1-0.1,0.1h-0.1l0,0.1
		c-0.1,0.1-0.1,0.1-0.1,0.1c0,0-0.1,0.1-0.1,0.1c-0.1,0-0.2-0.1-0.3-0.1c0,0.1,0,0.2,0.1,0.2c0,0,0,0.1,0,0.2
		c-0.1,0.1-0.2,0.1-0.3,0c0,0.1,0,0.3-0.1,0.4c-0.1,0.1-0.2,0.2-0.4,0.3V24c-0.1,0-0.1-0.1-0.1-0.1c0,0-0.1-0.1-0.1-0.1
		c0,0.1,0,0.1,0,0.2c0,0.1,0,0.2,0,0.3c0,0.1,0.1,0.1,0.2,0.1c0.1,0,0.1,0.1,0.1,0.2c-0.1,0.1-0.1,0.1-0.1,0c0,0,0,0-0.1,0
		c0,0.2,0.1,0.3,0,0.3c0,0-0.1,0.1-0.2,0.1c0.1,0,0.1,0.1,0.2,0.1c0,0,0.1,0.1,0.2,0.1c0,0.3,0,0.6,0,1c-0.1,0.3-0.1,0.6,0,0.9
		c0,0,0,0,0.1,0c0,0,0,0,0.1,0c-0.1,0.1-0.1,0.2-0.1,0.3c0,0.1-0.1,0.2-0.1,0.2c0,0.1,0,0.2,0,0.3c0,0.1,0,0.1,0.1,0.1
		c0,0,0,0,0.1,0c0,0,0,0.1-0.1,0.1c-0.1,0-0.1,0,0,0v0.1h0.1c0,0.1-0.1,0.1-0.1,0.1c0,0-0.1,0-0.1,0.1s0.1,0.1,0.2,0.1
		c0,0.1,0,0.1-0.1,0.1c-0.1,0-0.1,0-0.1,0.1h-0.1h-0.1c-0.1,0-0.2,0-0.3,0c-0.1,0-0.3,0-0.4,0c-0.1,0-0.2,0-0.3,0
		c-0.1,0-0.1,0.1-0.1,0.1h0v0c0,0.2-0.1,0.3-0.1,0.3l0-0.1l0,0.1c-0.1-0.1-0.1-0.1-0.1,0c0,0.1,0,0.1-0.1,0.2l-0.1,0l0,0
		c-0.1-0.1-0.1-0.1-0.2,0c-0.1,0.1-0.1,0.1-0.2,0.1l0-0.1l-0.1,0c0.1-0.1,0.1-0.2,0-0.2l0-0.1l-0.1,0c0-0.1,0-0.1,0.1-0.1
		c0.1,0,0.2,0,0.1-0.1c-0.2-0.1-0.3-0.1-0.3,0c0,0,0,0-0.2,0c0.1-0.1,0.1-0.1,0-0.1c-0.1,0-0.1,0.1-0.1,0.1H19l0,0.1c0,0,0,0,0-0.1
		c-0.1,0-0.1,0-0.1,0.1c0,0.1,0,0.1,0.1,0.1c-0.1,0.1-0.1,0.2-0.2,0.1c-0.1-0.1-0.1-0.1-0.1,0c-0.1,0-0.1-0.1,0-0.1
		c0-0.1,0-0.1-0.1-0.1c-0.1,0-0.1,0-0.1,0c0,0,0,0,0.1,0c-0.2-0.1-0.5-0.1-1-0.1c-0.5,0-0.9,0-1.2,0c0-0.1,0.1-0.1,0.1-0.1
		s0-0.1-0.1-0.1c-0.1,0-0.3,0-0.3,0.1c-0.1,0.1-0.2,0.1-0.4,0.1l0-0.2l-0.1-0.1c0-0.1,0-0.1,0.1-0.2c0.1-0.1,0.1-0.1,0-0.2
		c-0.1,0-0.2,0-0.3,0.1c-0.1,0.1-0.1,0.2,0,0.3l-0.1,0.1v0.2h-0.6c-0.1-0.2-0.1-0.3-0.1-0.4c0,0,0-0.2,0.1-0.4c0,0,0-0.1,0,0
		c0,0-0.1,0.1-0.1,0.1c0,0-0.1,0-0.1,0c0,0,0,0,0-0.1l0.1-0.1l-0.1-0.1c0-0.1,0-0.1,0-0.1c0,0,0.1,0,0.1,0c0-0.1,0-0.1,0-0.1
		c-0.1,0-0.1-0.1,0-0.2h-0.2l0-0.1l-0.1,0c0-0.3,0-0.6,0-1.1c0-0.4,0-0.8,0-1.2c0-0.4,0-0.8,0-1.3c0-0.4,0-0.8,0-1.2
		c0.2,0,0.3,0,0.4-0.2c0.1-0.1,0.1-0.2,0.1-0.4c0,0,0-0.1,0-0.1l0-0.1h-0.1c0-0.1,0-0.1,0.1-0.1s0.1,0,0.1-0.1
		c-0.1,0-0.1-0.1-0.2-0.1c-0.1,0-0.1,0.1-0.1,0.2l-0.1,0v0.1c0.1,0.2,0.1,0.2,0,0.2c-0.1,0-0.2,0.1-0.2,0.2
		c-0.1-0.1-0.1-0.3-0.1-0.5c0-0.2,0.1-0.3,0.2-0.3c-0.2,0-0.2-0.2-0.2-0.5c0-0.3,0-0.6,0-0.9h0.5c0,0,0-0.1,0-0.1c0,0,0-0.1-0.1-0.1
		c-0.1,0-0.1,0-0.1,0c0,0,0,0,0.1,0c0,0.1-0.1,0.1-0.1,0.1c-0.1,0-0.1,0-0.1-0.1c0,0-0.1,0-0.1-0.1c0,0,0,0,0.1,0.1
		c0,0.1-0.1,0.1-0.1,0.1c0,0,0-0.1-0.1-0.1c0-0.1,0-0.1,0-0.2c0,0,0.1-0.1,0.1,0c0,0,0-0.1-0.1-0.1c0,0-0.1,0-0.1,0.1
		c-0.3-0.4-0.6-0.7-0.9-1c-0.3-0.3-0.6-0.7-0.8-1.1c-0.1,0-0.1,0-0.2-0.1c-0.1-0.1-0.2-0.2-0.2-0.3c-0.1,0-0.2,0-0.3,0.1
		c-0.1,0.1-0.2,0.1-0.2-0.1c-0.1,0-0.1,0.1-0.1,0.1c0,0.1-0.1,0.1-0.2,0.1c0-0.1,0-0.3,0.1-0.5c0.1-0.2,0-0.3-0.1-0.4
		c0,0.1-0.1,0.1-0.1,0.1c0,0-0.1,0-0.2,0l-0.1-0.1l-0.1,0c0-0.1,0-0.3,0-0.5c0-0.2,0-0.3,0.1-0.4c-0.1-0.1-0.2-0.2-0.2-0.4
		c0-0.2,0-0.3,0-0.5c0-0.2,0-0.4,0-0.6c0-0.2,0-0.4-0.1-0.5c0.1-0.1,0.2-0.3,0.2-0.4c0-0.1,0-0.3,0-0.5c0-0.2,0-0.3,0-0.5
		c0-0.2,0-0.3,0.1-0.5c-0.1,0-0.1,0-0.1,0.1l0,0l0,0c-0.1,0-0.1,0-0.1-0.1c0-0.1,0-0.2-0.1-0.2c0,0.2-0.1,0.4-0.1,0.5
		c0,0.2,0,0.3,0.1,0.5c-0.1,0.1-0.1,0.2-0.2,0.3c-0.1,0.1,0,0.2,0.1,0.3c-0.1,0.2-0.2,0.4-0.1,0.6c0.1,0.2,0,0.3-0.1,0.4
		c0,0.1,0.1,0.2,0.1,0.2c0,0,0,0.1,0,0.2l-0.1,0L10,14.6c-0.2,0-0.3-0.2-0.3-0.4c-0.1-0.2,0-0.4,0.1-0.6c-0.1,0-0.2-0.1-0.3-0.1
		c-0.1,0-0.2-0.1-0.3-0.1c0.1-0.1,0.2-0.2,0.2-0.3c0.1-0.1,0.2-0.1,0.3-0.1c0,0,0.1-0.2,0.1-0.4c0-0.3,0.1-0.4,0.1-0.5
		c0,0,0-0.1-0.1-0.1H9.8c0,0,0.1-0.1,0.1-0.2c0.1-0.1,0-0.2-0.1-0.3c-0.1,0-0.1,0-0.1,0.1c0,0.1,0,0.1,0,0.2c0,0.1,0,0.1,0,0.2
		c0,0.1-0.1,0.1-0.2,0l0-0.1l-0.1,0c0-0.1-0.1-0.1-0.3-0.1c0-0.1,0.1-0.1,0.2-0.1c-0.1-0.1-0.1-0.1-0.2-0.1c0.1,0,0.2,0,0.3-0.2
		c0-0.2,0-0.4,0-0.6c-0.1,0-0.3,0.1-0.3,0.2C9.2,10.9,9.1,11,9,11.1c0.1,0,0.1,0,0.1,0.1c0,0.1,0,0.1-0.1,0.2
		c-0.1-0.1-0.1-0.1-0.2-0.1c-0.1,0.1-0.1,0-0.2-0.1c-0.1,0.1-0.1,0.2-0.3,0.2c-0.1,0-0.2,0.1-0.1,0.3c-0.1,0-0.1,0-0.1-0.1
		c0,0-0.1-0.1-0.1,0l0-0.1l0,0.1c0,0-0.1-0.1-0.1-0.1c0-0.1-0.1-0.1-0.2,0c0.1-0.1,0.1-0.2,0.1-0.3c-0.1-0.1-0.1-0.2,0-0.4l0.1,0
		l0-0.1c0.2,0,0.3,0,0.3-0.1c0,0.1,0.1,0.1,0.2,0.1c0,0,0,0,0,0.1c0.1,0,0.1,0,0.1-0.1c0,0,0.1-0.1,0.1-0.1c0,0,0.1,0.1,0,0.1
		c0,0,0,0,0.1,0l0,0.1l0.1,0c0,0,0.1,0,0.1,0.1c0,0.1,0.1,0.1,0.1,0c-0.1,0-0.1-0.1,0-0.2c0.1-0.1,0.1-0.2,0-0.2v0H8.6
		c0.1,0,0.1-0.1,0-0.1c-0.1,0,0-0.1,0-0.1c0,0-0.1-0.1-0.1-0.1c0,0-0.1,0-0.1,0.1c0,0,0-0.1,0-0.1c0-0.1,0-0.1,0.1-0.1
		C8.6,9.8,8.5,9.8,8.4,9.8c0.1-0.1,0.2-0.3,0.3-0.4c0.1-0.2,0-0.3-0.1-0.5C8.5,9,8.4,9.2,8.3,9.4C8.3,9.6,8.2,9.7,8,9.9L8,9.8l0,0
		c-0.1-0.1-0.1-0.2,0-0.3C8,9.5,8,9.4,8,9.2c-0.1,0-0.2,0-0.1,0.1c0,0.1,0,0.1-0.1,0.1V9C7.5,9.1,7.4,9.1,7.3,9.2
		c-0.1,0-0.2-0.1-0.1-0.3C7.1,8.8,7,8.9,7,9c0,0.1,0.1,0.2,0.1,0.2l0,0l0,0C7,9.4,7,9.5,7.1,9.6c0.1,0.1,0.1,0.1,0.2,0.1
		c0,0.1-0.1,0.1-0.1,0.1s0,0.1,0.1,0.2C7.3,10,7.2,10,7.1,10c0,0.1,0.1,0.2,0,0.3c0,0.1,0,0.2,0,0.4l-0.1,0l-0.1,0.1
		c-0.3-0.3-0.5-0.5-0.8-0.6c0-0.1,0-0.2,0.1-0.3C6,9.7,5.9,9.6,5.8,9.4C5.6,9.3,5.5,9.1,5.3,9C5.2,9,5.1,9.1,5,9.1
		C4.9,9.1,4.8,9,4.8,8.9l0.1,0l-0.1,0V8.6c0,0.1,0.1,0.1,0.1,0c0-0.1,0-0.1,0.1,0c0,0,0-0.1-0.1-0.2c0-0.1-0.1-0.1-0.1-0.2
		c0,0-0.1,0-0.1,0c0,0-0.1,0-0.1,0c0,0,0-0.1,0-0.1c0-0.1,0-0.1-0.1-0.1c0,0-0.1,0-0.1,0c0,0-0.1,0-0.1,0c0,0-0.1-0.1-0.1-0.1
		c0,0,0-0.1,0-0.1c0,0-0.1-0.1-0.1-0.1C4,7.6,4,7.6,4,7.5c0,0,0,0,0-0.2c0-0.1,0-0.1-0.1,0c-0.1,0-0.1-0.1-0.1-0.3
		c-0.2,0-0.3,0-0.3,0c0,0-0.1,0-0.2-0.1c0,0,0,0,0.1,0c0-0.1,0-0.1-0.1-0.2c-0.1,0-0.1-0.1,0.1-0.1C3.1,6.2,2.8,5.8,2.3,5.3
		C1.9,4.9,1.6,4.5,1.4,4c0,0.1,0,0.1-0.1,0S1.1,3.8,1,3.6c0.4,0,0.8,0,1.3,0c0.5,0,0.9,0,1.4,0C3.5,3.5,3.4,3.5,3.3,3.6
		C3.2,3.6,3,3.6,2.7,3.6l0-0.1l-0.1,0V3.3c0.2,0,0.4,0,0.7,0c0.3,0,0.5,0,0.7-0.1l0.1,0l0.1-0.1c0.1,0,0.1,0,0-0.1
		c-0.1-0.1-0.1-0.1,0-0.1c0.1,0,0.2,0,0.3,0.1c0,0.1,0.1,0,0.3-0.1c0,0.2,0.1,0.3,0.3,0.3c0.2,0,0.2,0.1,0.2,0.2l0,0.1l0.1,0
		c0,0,0.1,0,0.1,0.1c0,0,0,0,0.1,0l0,0.1l0.1,0c0,0.1,0,0.1,0,0.1c0,0,0,0.1,0,0.2C5.6,3.9,5.5,4,5.3,3.9C5.2,3.9,5.1,4,5.2,4.2
		c0,0.1,0,0.1,0.1,0.1c0.1,0,0.2,0,0.3,0c-0.1,0-0.2-0.1-0.2-0.2c0-0.1,0.1-0.1,0.2,0V3.8c0.2,0,0.3,0,0.5-0.1
		c0.1,0,0.3-0.1,0.6-0.2l0,0.1l0-0.1c0,0,0.1,0,0.1-0.1c0-0.1,0-0.1-0.1-0.1c0,0,0-0.1,0.1-0.1C7,3.3,7,3.2,7,3.2l0,0l0,0
		C7.2,3.1,7.4,3,7.7,2.9C7.5,2.8,7.4,2.7,7.5,2.6c0.1-0.1,0.2-0.2,0.1-0.4c0,0.1,0.1,0.1,0.1,0.1s0.1,0,0.2-0.1
		c-0.1,0-0.1-0.1-0.2-0.1C7.7,2.1,7.7,2.1,7.7,2c0-0.1,0-0.1,0-0.1c0,0,0,0,0.1,0C7.7,1.8,7.7,1.7,7.7,1.7h0.1l0.1-0.1
		C8,1.6,8,1.6,8,1.7c0.1,0,0.1-0.2,0.1-0.3c0-0.2,0-0.2,0.2-0.1C8.3,1.2,8.3,1,8.4,0.9c0.1-0.1,0.2-0.2,0.2-0.4h0.1L8.7,0.4z
		 M3.7,2.4c0,0.1,0,0.1,0,0.2c0,0.1,0,0.1,0.1,0.1C3.7,2.8,3.6,2.9,3.4,2.8C3.3,2.8,3.1,2.7,2.9,2.7c0.1,0,0.2-0.1,0.3-0.3
		C3.3,2.3,3.5,2.3,3.7,2.4z M3,2.1h0.1v0.1H3V2.1z M4.2,3.2c0,0,0-0.1-0.1-0.1L4.2,3.2z M4.2,14.4h0.1v0.1H4.2V14.4z M4.3,9.4
		C4.3,9.4,4.3,9.4,4.3,9.4c0.1,0,0.2,0,0.2,0c0,0.1,0,0.1-0.1,0.1C4.2,9.5,4.2,9.5,4.3,9.4z M4.3,10.4c0.1,0,0.2,0,0.2,0.1
		c0,0.1-0.1,0.2-0.2,0.1V10.4z M4.4,0.9C4.4,0.8,4.4,0.8,4.4,0.9C4.4,0.9,4.4,1,4.4,1c0,0.1,0,0.1-0.1,0C4.4,1,4.4,1,4.4,0.9z
		 M4.4,1.2c0.1,0.1,0.1,0.2,0.1,0.4c0,0.1-0.1,0-0.1-0.1C4.5,1.4,4.4,1.2,4.4,1.2z M4.6,8.3h0.2v0.1H4.6V8.3z M4.8,10.5
		C4.9,10.6,4.9,10.6,4.8,10.5c0,0.1,0,0.1-0.1,0.1c0,0-0.1,0-0.1,0C4.7,10.6,4.7,10.6,4.8,10.5z M5,11.1C4.9,11.1,4.9,11.1,5,11.1
		c0.1,0,0.1,0,0,0.1c0,0,0,0.1-0.1,0C5,11.2,5,11.2,5,11.1z M5.3,3.3c0-0.1,0.1-0.2,0.2-0.3C5.5,3,5.6,2.9,5.6,2.7L5.3,3.3z
		 M5.6,10.8c0,0,0,0.1,0,0.2H5.4C5.4,10.9,5.5,10.9,5.6,10.8C5.5,10.9,5.5,10.9,5.6,10.8z M5.5,3.5c0,0,0-0.1,0-0.1c0,0,0-0.1,0-0.1
		L5.5,3.5z M5.5,11.1c0-0.1,0.1-0.2,0.1-0.1c0,0.1,0.1,0.1,0.1,0.1c0,0.1,0,0.1-0.1,0.1C5.6,11.2,5.5,11.1,5.5,11.1z M6.6,2.7
		c-0.1,0-0.3,0-0.4,0.1c-0.1,0.1-0.1,0-0.2-0.2c0,0,0.1,0,0.1,0c0,0,0.1-0.1,0.2-0.1c0.1,0,0.1,0,0.2,0C6.6,2.6,6.6,2.6,6.6,2.7z
		 M6.3,16.3c-0.1,0.1-0.2,0.1-0.2,0S6.2,16.2,6.3,16.3z M6.9,2.9L6.9,2.9c-0.1,0-0.2-0.1-0.2-0.3c0.1,0,0.1,0,0.1,0c0,0,0.1,0,0.1,0
		l0,0.1l0.1,0.1C7.1,2.8,7,2.9,6.9,2.9L6.9,2.9z M6.9,11.5c0.1,0,0.1,0,0.1,0.1c0,0,0,0.1,0,0.1c0,0-0.1,0-0.1,0
		C6.9,11.7,6.9,11.6,6.9,11.5z M7,3.2C7,3.2,7,3.1,7,3C7,3,7,2.9,6.9,2.9L7,3.2z M7.3,11.1c0,0.1,0,0.1-0.1,0.1
		c-0.1,0-0.1,0.1-0.1,0.2c-0.1,0-0.1-0.1,0-0.2C7.1,11.2,7.2,11.1,7.3,11.1z M7.1,9.3l0.1,0.1L7.1,9.3z M7.2,9.4L7.2,9.4
		C7.2,9.4,7.3,9.4,7.2,9.4c0,0,0.1,0,0.1,0C7.3,9.5,7.3,9.5,7.2,9.4c0,0-0.1,0,0,0.2C7.1,9.5,7.1,9.5,7.2,9.4
		C7.2,9.4,7.2,9.4,7.2,9.4L7.2,9.4z M7.2,2C7.3,2,7.3,2,7.3,2c0,0,0,0.1,0,0.2c0,0-0.1-0.1-0.1-0.1C7.2,2.1,7.2,2,7.2,2z M7.3,1.7
		c0-0.1,0-0.1,0-0.2c0-0.1,0-0.1,0-0.2L7.3,1.7z M7.3,0.8c0,0,0-0.1,0-0.1c0,0,0-0.1,0-0.1L7.3,0.8z M7.5,12C7.5,12,7.5,12,7.5,12
		C7.5,12,7.5,12,7.5,12c0-0.1-0.1-0.1-0.1-0.1c0,0,0-0.1,0-0.1c0,0,0.1,0,0.1,0c0,0,0,0,0.1,0c0.1,0,0.1,0.1,0,0.1
		C7.6,11.9,7.5,12,7.5,12z M7.6,10.6C7.6,10.6,7.6,10.6,7.6,10.6c0.1,0.1,0.1,0.2,0.2,0.2L7.6,10.6z M7.7,9.5
		C7.7,9.4,7.7,9.4,7.7,9.5c0.1,0.1,0.1,0.2,0,0.2c0,0.1,0,0.1-0.1,0.1C7.6,9.7,7.6,9.6,7.7,9.5z M8,10L8,10c0.2,0.1,0.2,0.1,0.2,0.2
		c0,0.1,0,0.2,0,0.2c0,0.1,0,0.1-0.2,0c-0.1-0.1-0.2,0-0.3,0.1c-0.1,0-0.1-0.1,0-0.3c0-0.1,0.1-0.3,0.2-0.3L8,10z M7.9,1.7
		c-0.1-0.3,0-0.6,0.2-1L7.9,1.7z M8,11.9h0.2V12H8V11.9z M8.1,12.3c0,0,0.1,0.1,0.1,0.2L8.1,12.3C8.1,12.2,8.1,12.2,8.1,12.3z
		 M8.3,2.7c0.1-0.2,0.1-0.2,0-0.3C8.2,2.5,8.2,2.5,8.3,2.7z M8.5,12.3c-0.1,0-0.1-0.1-0.1-0.1c0,0-0.1-0.1-0.1-0.2
		C8.5,12.1,8.5,12.2,8.5,12.3z M8.4,10.8c0-0.1,0.1-0.1,0.1-0.2c0-0.1,0.1-0.1,0.2-0.2L8.4,10.8z M8.7,0.6C8.7,0.6,8.6,0.5,8.7,0.6
		c0-0.1-0.1-0.1-0.1-0.2L8.7,0.6z M8.7,12.6L8.7,12.6C8.7,12.5,8.7,12.5,8.7,12.6C8.8,12.5,8.8,12.5,8.7,12.6
		C8.8,12.6,8.7,12.6,8.7,12.6c-0.1,0.1-0.1,0.2-0.1,0.2C8.6,12.7,8.6,12.7,8.7,12.6z M9.2,12.6c0.1,0,0.1,0,0.1,0.1
		c0,0.1-0.1,0.1-0.1,0.1V12.6z M9.5,2.6c0-0.1,0-0.1,0-0.2c0-0.1,0-0.1,0-0.2L9.5,2.6z M9.5,12c0,0,0-0.1,0-0.3L9.5,12z M9.8,16.2
		h0.1v0.1H9.8V16.2z M9.9,3.2c0,0,0-0.1,0-0.2L9.9,3.2z M10.1,14.6C10.1,14.5,10.1,14.5,10.1,14.6c0-0.1,0-0.1,0-0.1L10.1,14.6z
		 M10.5,3.8c-0.1-0.2,0-0.4,0-0.6L10.5,3.8z M10.6,12.1c0.1,0,0.1-0.1,0.1-0.3L10.6,12.1z M10.7,3.8c0-0.1,0-0.2,0-0.2
		c0-0.1,0-0.2,0.1-0.2L10.7,3.8z M10.9,16.7C10.9,16.6,10.9,16.6,10.9,16.7c0-0.1,0-0.1,0.1-0.1L10.9,16.7z M13.6,23.5
		c0.1,0,0.2,0.1,0.2,0.1c0,0.1,0,0.1,0,0.2h-0.3c-0.1-0.1,0-0.2,0-0.2C13.5,23.6,13.6,23.6,13.6,23.5z M13.9,24.2
		c-0.2,0-0.3,0-0.4,0c0,0,0,0,0.1,0C13.7,24.2,13.8,24.2,13.9,24.2C13.9,24.2,13.9,24.2,13.9,24.2z M13.7,24.5
		C13.6,24.4,13.6,24.4,13.7,24.5c0.1-0.1,0.2-0.1,0.2,0c0.1,0.1,0.1,0.1,0,0C13.9,24.5,13.8,24.5,13.7,24.5z M14.1,24.2
		C14.1,24.1,14.1,24.1,14.1,24.2C14.1,24.2,14.1,24.2,14.1,24.2c0,0.1,0,0.2,0,0.2S14.1,24.3,14.1,24.2z M14.3,28.3
		c0.1,0,0.2,0,0.1,0.1c-0.1,0.1-0.1,0.1,0,0.2c-0.1,0-0.1,0-0.1-0.1C14.3,28.4,14.3,28.4,14.3,28.3z M14.3,28c0,0,0-0.1,0-0.2
		L14.3,28z M14.3,27.9c0-0.1,0-0.2,0-0.3c0-0.1,0-0.2,0.1-0.3L14.3,27.9z M14.5,21.9c0,0.1,0.1,0.1,0.3,0L14.5,21.9z M14.8,20.6
		L14.8,20.6c0-0.1,0-0.1,0-0.2c-0.1-0.1-0.1-0.1-0.1-0.1c0,0,0,0.1-0.1,0.1c0,0.1,0,0.1,0,0.1C14.7,20.7,14.7,20.6,14.8,20.6z
		 M15.3,28.6c0.1,0.1,0.2,0.1,0.3,0H15.3z M17.6,28.9c0.1,0.1,0.1,0.2,0.1,0.2c-0.1,0.1-0.1,0.2-0.1,0.3c-0.1-0.1-0.2-0.2-0.1-0.3
		C17.4,29,17.5,29,17.6,28.9z M17.6,29.8c-0.1-0.1-0.1-0.1-0.1-0.1C17.4,29.7,17.5,29.8,17.6,29.8C17.6,29.8,17.6,29.9,17.6,29.8
		c0.1,0.1,0.1,0.2,0.1,0.2C17.6,30,17.6,29.9,17.6,29.8C17.6,29.9,17.6,29.8,17.6,29.8z M17.6,29.7c0-0.1,0.1-0.1,0.1-0.1
		s0.1,0,0.1,0.1c0,0,0.1,0,0.1,0c0,0,0,0,0.1,0H17.6z M18.4,28.9c0,0.1,0,0.1-0.1,0.1c-0.1,0-0.1,0.1,0,0.1c-0.1,0-0.1,0.1-0.1,0
		c0,0,0-0.1-0.1-0.1c0,0,0-0.1,0-0.1C18.3,28.9,18.3,28.9,18.4,28.9z M18.5,29.6c0.1-0.1,0.2-0.2,0.3-0.2c0.1,0,0.3,0,0.4,0.1
		L18.5,29.6z M18.6,30c0.1,0,0.1,0,0.1,0c0,0,0,0.1,0,0.1c0,0,0,0,0,0c0,0,0,0-0.1,0V30z M19.1,31.1c0,0.1,0,0.1,0,0.1
		c0,0-0.1,0-0.1,0c0,0.1,0.1,0.1,0.1,0.2c0,0,0,0.1,0,0.1c-0.1,0-0.1-0.1-0.1-0.3C19,31.1,19.1,31.1,19.1,31.1z M19,6h0.1v0.1H19V6z
		 M19.1,32.5C19.1,32.5,19.1,32.5,19.1,32.5C19.1,32.4,19.1,32.4,19.1,32.5c-0.1-0.2-0.1-0.3,0-0.5c0.1-0.2,0.2-0.3,0.4-0.3
		L19.1,32.5z M19.4,29c-0.1-0.1-0.1-0.1-0.2-0.1c-0.1,0-0.1,0-0.2-0.1L19.4,29z M19.1,0.9c0.1,0,0.1,0,0.1,0.1c0,0.1,0,0.1,0,0.2
		c-0.1,0-0.1,0-0.1-0.1c0,0,0,0-0.1,0V0.9z M19.3,1.6c0.1,0,0.2,0.1,0.1,0.2C19.3,1.9,19.2,2,19.1,2c0-0.1,0-0.2,0.1-0.2
		C19.2,1.7,19.3,1.7,19.3,1.6z M19.3,1.4h0.2v0.1h-0.2V1.4z M19.3,30.8C19.3,30.8,19.3,30.8,19.3,30.8L19.3,30.8z M19.4,29
		c0,0,0,0.1,0.1,0.2c0.1,0.1,0.1,0.1,0.2,0L19.4,29z M19.4,29c0,0,0.1,0,0.1,0L19.4,29z M19.4,31.6c0,0,0-0.1,0-0.1c0,0,0-0.1,0-0.1
		c0-0.1,0.1-0.1,0.1,0c0,0.1,0.1,0.1,0.2,0c0,0,0,0.1,0,0.2c0,0.1,0,0.1,0.1,0.1c0,0.1,0,0.1-0.1,0c0,0,0,0-0.1,0L19.4,31.6
		L19.4,31.6z M19.7,31.1c0,0.1-0.1,0.1-0.3,0.1C19.5,31.1,19.6,31,19.7,31.1z M19.5,31.7c0,0,0,0.1,0,0.1L19.5,31.7z M19.7,29.8
		c-0.1,0.1-0.1,0.1-0.2,0.1c0-0.1,0-0.1,0.1-0.1C19.6,29.8,19.7,29.8,19.7,29.8z M19.7,2.2c-0.1,0.1-0.1,0.1,0,0.1
		c-0.1,0.2-0.1,0.2-0.1,0.1C19.5,2.3,19.5,2.2,19.7,2.2z M19.9,2.7C19.8,2.7,19.8,2.7,19.9,2.7c0.1,0,0.1,0,0.1,0.1
		c-0.1,0.1-0.1,0.1-0.1,0C19.9,2.8,19.9,2.8,19.9,2.7z M20,2.9c0,0,0.1-0.1,0.2,0c0.1,0,0.1,0.1,0.1,0.1c-0.1,0.1-0.1,0-0.1,0
		C20.2,3,20.1,2.9,20,2.9z M20.3,29.2c-0.1,0-0.1,0-0.1,0c-0.1,0-0.1,0-0.1-0.1L20.3,29.2z M20.3,30.3h0.2c0,0.1-0.1,0.2-0.3,0.2
		C20.1,30.4,20.2,30.4,20.3,30.3C20.2,30.4,20.3,30.3,20.3,30.3z M20.5,2.4c0,0.1,0,0.1,0,0.1c-0.1,0-0.1,0-0.1,0.1
		c-0.1,0-0.1,0,0-0.1C20.3,2.4,20.4,2.4,20.5,2.4z M20.3,30C20.4,30,20.4,30,20.3,30c0.1,0.1,0.1,0.1,0.2,0.1c0,0-0.1,0.1-0.2,0.1
		V30z M20.3,29.2c0,0,0.1,0,0.2,0c0,0,0.1,0,0.1,0.1L20.3,29.2z M20.5,2.7c-0.1,0.1-0.2,0.1-0.2,0C20.3,2.6,20.4,2.6,20.5,2.7z
		 M20.5,28.7c0.2,0,0.4,0,0.7,0c0.2,0,0.5,0,0.7-0.2L20.5,28.7z M21.1,7.8C21.1,7.9,21,8,20.9,8c0-0.1,0-0.1,0-0.1
		C21,7.9,21,7.8,21.1,7.8z M21.7,2.3L21.7,2.3C21.8,2.3,21.8,2.3,21.7,2.3C21.8,2.4,21.7,2.4,21.7,2.3c0,0.1-0.1,0.2-0.1,0.2
		C21.6,2.5,21.6,2.4,21.7,2.3z M21.8,3.1h0.1v0.1h-0.1V3.1z M21.8,28.6c0,0,0,0.1,0.1,0.1c0.1,0.1,0.2,0.1,0.4,0
		c0.1,0,0.2-0.1,0.4-0.1L21.8,28.6z M22.1,2.7C22.2,2.6,22.2,2.6,22.1,2.7c0,0.1-0.1,0.1-0.1,0c-0.1,0-0.1,0,0-0.1
		C22,2.7,22.1,2.7,22.1,2.7z M22.3,28.2c-0.1,0-0.2-0.1-0.2,0L22.3,28.2z M22.1,29c0,0,0,0.1,0,0.2c0,0,0.1,0,0.1-0.1
		c0.1,0,0.1,0.1,0.1,0.1c-0.1,0.1-0.1,0.1-0.2,0V29z M22.4,2.4c0,0-0.1,0.1-0.1,0.1c-0.1,0.1-0.1,0.1-0.1-0.1c0.1,0,0.1,0,0.2,0
		C22.3,2.4,22.4,2.4,22.4,2.4z M22.2,3.4c0.2,0,0.3,0,0.2,0.1C22.4,3.6,22.3,3.5,22.2,3.4z M22.6,28.7c0-0.1,0-0.2,0-0.2L22.6,28.7z
		 M22.6,28.7c0.3,0.1,0.6,0.1,0.9,0.1c0.3,0,0.6,0,0.9,0L22.6,28.7z M22.9,14.3c0-0.1,0.1-0.2,0.1-0.3c0-0.1,0-0.2-0.1-0.2
		c-0.1,0.1-0.1,0.1-0.2,0.2C22.6,14.2,22.7,14.2,22.9,14.3l-0.1,0.1l0.1,0.1c0,0.1,0.1,0.1,0.2,0c0.1-0.1,0-0.1-0.1,0L22.9,14.3
		L22.9,14.3z M23,14.4c-0.1,0-0.1,0-0.2,0L23,14.4z M22.9,17c-0.1,0.1-0.1,0.2-0.1,0.2C22.8,17.2,22.9,17.2,22.9,17
		C22.9,17.1,22.9,17,22.9,17C22.9,17,22.9,17,22.9,17z M23.4,18.7l0,0.1c0,0.1,0,0.1,0,0.1h-0.1v0.1h-0.2c0-0.1,0-0.2,0.1-0.2
		c0,0,0-0.1,0.1-0.2l0.1,0l0-0.1h0.1L23.4,18.7z M23.3,18.6c-0.1,0-0.2-0.1-0.2-0.1L23.3,18.6z M23.3,19.1
		C23.3,19,23.3,19,23.3,19.1c0-0.1-0.1-0.1-0.1-0.1L23.3,19.1z M23.4,18.7c0,0,0.1-0.1,0.1-0.2c0-0.1,0-0.1,0-0.2L23.4,18.7z
		 M23.6,18.8c-0.1,0-0.1,0-0.1,0c0,0-0.1,0-0.1-0.1L23.6,18.8z M23.7,14.6C23.7,14.6,23.6,14.5,23.7,14.6c0-0.1,0-0.1-0.1-0.1
		L23.7,14.6c0,0.1,0.1,0.1,0.1,0c0.1,0,0.1-0.1,0-0.1c0.1-0.1,0.3-0.1,0.4-0.1c0.1,0,0.2,0,0.3-0.1c-0.1,0-0.2,0-0.3,0
		c-0.1,0-0.2,0-0.3,0c0,0.2,0,0.2,0,0.2C23.8,14.4,23.7,14.4,23.7,14.6z M24.4,15.5C24.4,15.5,24.4,15.5,24.4,15.5
		c0.1-0.1,0.1-0.1,0.1-0.1h-0.2c0,0.1-0.1,0.1-0.1,0.1C24.3,15.5,24.3,15.6,24.4,15.5l-0.1,0.1l0.1,0c0,0.1,0.1,0.2,0.1,0.2
		c0,0,0-0.1,0-0.2l0-0.1L24.4,15.5z M24.7,16.8c-0.1,0.2-0.1,0.2-0.2,0.2C24.4,16.9,24.5,16.8,24.7,16.8z M25,14.3
		c-0.1,0-0.1,0-0.1-0.1c0-0.1-0.1-0.1-0.1,0.1c0,0,0.1,0,0.1,0.1c0,0,0,0-0.1,0c0,0,0,0,0.1,0C24.8,14.2,24.9,14.2,25,14.3
		C25,14.4,25.1,14.4,25,14.3z M24.8,16.2c0,0,0.1,0,0.3,0c0,0,0.1-0.1,0-0.2c0-0.1-0.1-0.1-0.1-0.2L24.8,16.2z M24.8,14.7
		C24.8,14.7,24.8,14.7,24.8,14.7c0,0,0,0,0.1,0L24.8,14.7z M25.3,4.6C25.2,4.5,25.2,4.5,25.3,4.6C25.2,4.6,25.3,4.6,25.3,4.6
		c0,0.1,0,0.2,0.1,0.2C25.3,4.8,25.3,4.7,25.3,4.6z M25.7,4.5v0.2c-0.1,0-0.1,0-0.1,0c0,0,0-0.1-0.1-0.1c-0.1,0-0.1,0-0.1,0
		c-0.1,0-0.1-0.1,0-0.1C25.5,4.5,25.6,4.5,25.7,4.5z M27.1,2.7c0,0.1,0.1,0.1,0.2,0.1c0,0.3-0.1,0.4-0.3,0.4c-0.1-0.1,0-0.2,0-0.2
		C27.1,2.8,27.1,2.8,27.1,2.7z M29.2,3c-0.1,0.1-0.2,0.1-0.2,0C29,3,29.1,3,29.2,3z M29.6,11.4c0,0.1,0,0.2-0.1,0.2
		c-0.1,0-0.2,0-0.2,0.1v-0.3c0.1,0.1,0.2,0.1,0.2,0C29.4,11.4,29.5,11.4,29.6,11.4z M29.5,2.3c0.1,0,0.1,0.1,0.1,0.1
		c0,0.1-0.1,0.1-0.1,0.1c-0.1,0-0.1-0.1,0-0.1C29.5,2.4,29.5,2.3,29.5,2.3z M29.5,3c0,0,0-0.1,0-0.2L29.5,3z M29.9,11.3
		c0,0,0.1,0,0.1,0c0,0,0,0,0.1,0L29.9,11.3z M30.3,11.1L30.3,11.1c0,0,0,0.1,0,0.2H30l0-0.1l-0.1,0c0,0,0-0.1,0-0.2c0,0,0.1,0,0.1,0
		C30.2,11,30.2,11,30.3,11.1L30.3,11.1z M30.3,10.9c0-0.2,0.1-0.3,0.3-0.3c0.2,0,0.3,0.1,0.3,0.3c-0.1,0-0.1,0-0.1,0
		c0,0.1-0.1,0.1-0.1,0.2c-0.1,0-0.1,0-0.1-0.1c0-0.1,0-0.1-0.1-0.1l0-0.1L30.3,10.9z M30.3,11.1c0,0,0.1-0.1,0.1-0.3L30.3,11.1z
		 M31.7,5.4c0.2,0,0.3,0,0.3,0c0,0,0,0,0-0.1c0,0-0.1,0-0.2,0C31.7,5.3,31.7,5.3,31.7,5.4z M31.9,10c0.1,0,0.2,0,0.2,0
		c0,0.1,0,0.1,0.1,0.1c0,0.1-0.1,0.1-0.3,0.1c0-0.1,0-0.1,0-0.1C31.8,10.1,31.9,10.1,31.9,10z M32.5,8.8c-0.1,0.1-0.1,0.1,0,0.1
		c0,0.1,0.1,0.1,0,0.2c-0.1,0.1-0.1,0.2-0.2,0.1c0,0-0.1-0.1-0.1-0.1c0,0-0.1-0.1-0.1-0.1c0,0-0.1,0-0.1,0c-0.1-0.1-0.1-0.2,0-0.2
		c0.1-0.1,0.2-0.1,0.2-0.2c0,0.1,0.1,0.2,0,0.2C32.2,8.8,32.3,8.8,32.5,8.8z M32.4,5.2c0.1,0,0.2,0,0.3,0c0.1,0,0.2,0,0.3-0.1
		L32.4,5.2z M32.9,8c0,0.1,0,0.2,0,0.2c0,0,0.1,0.1,0,0.2h-0.3c0,0,0-0.1,0.1-0.1c0-0.1,0-0.1-0.1-0.1C32.7,8.1,32.7,8,32.9,8z
		 M33,9.6c-0.1,0-0.2,0-0.2,0c-0.2,0-0.2-0.1-0.2-0.4c0.1-0.1,0.2-0.1,0.4,0C33.1,9.3,33.1,9.4,33,9.6z M32.7,4.6c0.1,0,0.1,0,0.2,0
		L32.7,4.6z M32.8,4.9c0,0,0.1,0,0.1,0c0,0,0.1,0,0.1-0.1L32.8,4.9z M32.9,4.6l0-0.1h0V4.6l0,0.2L32.9,4.6z M32.9,4.7
		c0-0.1,0.1-0.2,0.1-0.3L32.9,4.7z M33,4.8C33,4.8,33,4.8,33,4.8c-0.1-0.1-0.1-0.1-0.1-0.1L33,4.8z M33.3,4.6l-0.2,0.1L33.3,4.6z
		 M33.6,5.3c0,0,0-0.1-0.1-0.1L33.6,5.3z M33.8,5.1C33.8,5.1,33.8,5.2,33.8,5.1c0.3,0.1,0.5,0.1,0.6-0.1L33.8,5.1z M34.9,4.1
		c0,0,0.1-0.1,0.1-0.2L34.9,4.1z"/>
	<path class="st0" d="M33.9,1.5c-0.1,0.2-0.1,0.3-0.2,0.3c-0.1,0-0.1,0.2-0.1,0.4c-0.1,0-0.2,0.1-0.2,0.1s0,0.1-0.1,0.2
		c-0.1,0.1-0.2,0.1-0.2,0c0,0-0.1,0-0.2,0c-0.2-0.3-0.3-0.6-0.2-0.8c0.1-0.2,0.3-0.4,0.5-0.7c0.2,0,0.3,0,0.4,0.1
		C33.7,1.4,33.8,1.5,33.9,1.5z M32.9,3.4c0.1,0,0.1,0,0.2,0c0.1,0.1,0.1,0.1,0.2,0H32.9z M33.1,3.9C33.1,3.9,33.2,3.9,33.1,3.9
		c0.1,0,0.1,0,0.1,0C33.3,4,33.4,4,33.5,4.1c0.1,0.1,0.2,0.1,0.2,0.1L33.1,3.9z M33.7,3.3l0,0.1c0,0.1-0.1,0.1-0.2,0.1
		c-0.1,0-0.2,0-0.2,0l0-0.1l-0.1,0c0,0,0.1-0.1,0.1-0.1s0.1,0,0.1-0.1c0.1,0,0.1,0,0.1,0C33.6,3.2,33.7,3.2,33.7,3.3L33.7,3.3z
		 M33.5,11.9c0,0-0.1,0.1-0.1,0.1L33.5,11.9z M33.7,4.2c0,0.1-0.1,0.1-0.2,0.1L33.7,4.2z M33.6,12.9c0.1,0.1,0.1,0.1,0.2,0.2
		c0.1,0.1,0.1,0.2,0,0.2c-0.1,0-0.2,0-0.2-0.1C33.6,13.1,33.6,13,33.6,12.9z M33.7,3.3c0.2,0,0.3,0,0.4,0.1c0.1,0.1,0.2,0.2,0.3,0.2
		L33.7,3.3z M33.7,4.2c0.1,0,0.2,0,0.3,0.1L33.7,4.2z M33.8,10.5c0.1,0,0.1,0.1,0.1,0.3c-0.1,0-0.2,0-0.2-0.1
		C33.8,10.7,33.8,10.6,33.8,10.5z M35.7,3.4l-0.1-0.1v0l0.1,0l0-0.1c0.1,0.1,0.3,0.1,0.4,0c0.1,0,0.2,0,0.3,0c0-0.1,0-0.2,0-0.2
		c-0.1,0-0.1-0.1,0-0.2c0,0,0.1,0,0.1,0.1c0,0.1,0.1,0.1,0.2,0.1c0.1,0,0.1-0.1,0-0.2c-0.1-0.1,0-0.1,0.2,0
		c-0.1-0.1-0.1-0.2-0.1-0.2c0,0-0.1-0.1-0.1-0.3c0,0.1,0.1,0.1,0.1,0.1c0,0,0.1,0,0.1-0.1c0.1,0,0.1,0,0.1,0c0,0.1,0,0.1,0.1,0.2
		c0.1,0,0.2,0,0.2-0.1c0-0.1,0-0.1,0.2-0.1c0,0.1,0.2,0.2,0.3,0.2c0.2,0,0.3,0.1,0.4,0.1c-0.1,0-0.1-0.1,0-0.1
		c0.1,0,0.2-0.1,0.3-0.1c0,0.1,0.1,0.1,0.1,0.2c0,0.1,0.1,0.1,0.1,0.2h-0.1v0.1c-0.2,0-0.4,0-0.5,0.1c-0.1,0.1-0.3,0-0.4-0.2
		c-0.1,0-0.2,0.1-0.3,0.1C37.2,3,37.1,3,37,3c1.5,0.1,3,0.1,4.6,0.1c1.6,0,3.1,0,4.7,0c0.6,0.7,1.1,1.4,1.7,2.2
		c0.6,0.7,1.1,1.4,1.7,2.2v0.1l0.1,0c0,0.1,0.1,0.2,0.2,0.3c0.1,0.1,0.2,0.1,0.3,0.1c0.1,0,0.2,0.1,0.3,0.1c0.1,0,0.2,0.1,0.2,0.2
		v0.1l0.1,0c0,0.1,0,0.1-0.1,0.1c-0.1,0-0.1,0-0.2,0c0.1,0.4,0.1,1,0.1,1.5c0,0.6,0,1.1,0,1.6c0,0.1,0.1,0.1,0.2,0.1
		c0.1,0,0.1,0.1,0.1,0.2c0-0.1,0.1-0.2,0.3-0.2c0-0.1-0.1-0.2-0.1-0.2c-0.1,0-0.1,0-0.2-0.1c0,0,0-0.1,0.1-0.1c0,0,0.1-0.1,0.1-0.1
		l0-0.1l0-0.1c0.1,0,0.2-0.1,0.3-0.1c0.1,0,0.3,0,0.4,0l0,0.1l0.1,0.1c-0.1,0.1-0.2,0.2-0.2,0.3c0,0.1,0,0.2,0.1,0.4
		c0.1,0,0.1-0.1,0.1-0.2c0.1,0,0.1,0.1,0.2,0.2c0,0.1,0,0.2,0,0.3s0,0.2,0,0.2c0,0.1,0,0.1,0.1,0c0,0.1,0,0.1-0.1,0.2
		s-0.2,0.2-0.2,0.3c0,0,0.1,0,0.2,0c0,0,0.1,0,0.2,0.1c0,0.1-0.1,0.3-0.1,0.3c0,0.1,0,0.2,0.1,0.3l0,0.1l0,0.1h-0.1
		c0,0.1,0,0.1,0.1,0.2c0.1,0.1,0.1,0,0.1-0.1l0.1-0.1l0-0.1c0.2,0,0.3-0.1,0.3-0.1l0.1,0l0-0.1c0.1,0,0.2-0.1,0.2-0.1
		c0,0,0.1,0,0.2,0.1c0,0.1,0,0.3-0.1,0.4C53,14,53,14.2,52.9,14.4c0.1,0,0.1,0,0.1,0c0,0,0,0,0.1,0l0.1,0l0.1,0
		c0,0.1,0.1,0.1,0.1,0.1c0,0,0.1,0.1,0,0.2l-0.1,0l0,0.1c-0.1,0.1-0.1,0.1-0.1,0.1v0h0c-0.2,0-0.2,0-0.2,0.1l0,0.1l0.1,0
		c0,0,0.1,0.1,0.1,0.1c0,0.1,0,0.1,0.1,0.1l0,0.1l0.1,0c-0.1,0.1-0.1,0.1,0,0.1c0,0,0-0.1,0,0c0,0,0,0,0.1,0c0,0,0-0.1,0-0.1
		c0,0,0,0,0-0.1v-0.1l0.1-0.1c0.1,0,0.1,0,0.1-0.1h0.2l-0.2-0.1c0,0,0-0.1,0.1-0.1l0.1,0l0.1,0c0,0,0.1,0.1,0.1,0.3L54,15l0,0.1
		c0,0.1,0,0.1,0.1,0.2c0.1,0.1,0.2,0.2,0.3,0.2v0.1h0c0,0.1-0.1,0.1-0.2,0c-0.1,0-0.1,0,0,0.1l0,0.1l0,0.1v0.3l-0.1,0l0,0.1
		c0,0.1-0.1,0.1-0.1,0c-0.1,0-0.1,0-0.2,0c0.1,0.3,0.1,0.6,0,1c-0.1,0.4-0.1,0.7-0.1,0.9h-0.1v0.1c0,0.1,0.1,0.1,0.1,0.2
		c0,0.1,0,0.1,0.1,0.1v-0.2l0.1,0l0-0.1c0.1,0,0.2,0,0.2,0.1c0,0.1,0.1,0.1,0.1,0.2l0,0.1l0,0.1c-0.2,0.2-0.4,0.2-0.6,0.1
		c-0.1,0.1-0.1,0.1,0,0.1c0,0,0.1,0,0.1,0.1c0,0,0.1,0,0.1,0.1c0,0,0,0.1,0,0.1l0,0l0,0H54c0.1,0.1,0.2,0.2,0.2,0.3
		c0.1,0.1,0.1,0.2,0,0.2c0,0.1,0.1,0.1,0.2-0.1c0.1,0.1,0.1,0.1,0.1,0.3c0,0.2,0,0.3,0,0.4c0.2,0,0.3,0,0.4-0.1c0.1,0,0.2,0,0.4,0.1
		c0.1-0.1,0.2-0.2,0.3-0.4c0-0.1,0.2-0.2,0.4-0.2c0.1,0,0.1,0.1,0.1,0.1c0,0,0.1,0.1,0.1,0.2c0.2-0.1,0.3-0.2,0.4-0.3
		c0.1-0.1,0.2-0.2,0.3-0.2c0,0.1,0,0.1,0.1,0.1c0.1,0.1,0.1,0.1,0.1,0.3c0-0.1,0.1-0.1,0.2,0c0.1,0,0.2,0.1,0.2,0.1
		c0,0.1,0,0.2,0,0.3c0,0.1,0,0.2-0.1,0.3c0,0.1,0.1,0.1,0.2,0.1c0.1,0,0.1,0,0,0.2l-0.1,0l0,0.1c-0.1,0.1-0.1,0.3,0,0.5
		c0.1,0.2,0.2,0.4,0.2,0.4l0.1,0l0-0.1c0.2,0,0.3-0.2,0.3-0.6h0.1l0-0.1c0.1,0,0.2,0,0.2,0.1c0.1,0,0.1-0.1,0.1-0.3
		s-0.1-0.2-0.1-0.3c0,0,0.1-0.1,0.1-0.1c0,0,0.1,0,0.1,0c0,0,0-0.1-0.1-0.2c0,0,0.1-0.1,0.1,0c0,0,0.1,0,0.1,0c0,0,0.1-0.1,0-0.1
		c0,0-0.1-0.1-0.1-0.2c0.1,0,0.2,0,0.3-0.1c0.1-0.1,0.1-0.1,0.2-0.2C59,20.1,59,20,59,19.8c0-0.1,0-0.3-0.1-0.5
		c0,0.1,0.1,0.1,0.2,0.1l0.1,0.1l0.1,0c0.1,0,0.1,0,0,0c0,0,0,0,0,0.1c0.1,0,0.3,0,0.4,0.2c0.1,0.2,0.2,0.3,0.1,0.4
		c0.1,0,0.2,0,0.1-0.1c-0.1,0-0.1-0.1,0-0.1c0,0,0.1,0,0.2,0.1l-0.1,0.1l0.1,0.1c0.1,0.1,0.3,0.3,0.4,0.5c0.1,0.2,0.3,0.3,0.5,0.4
		c-0.1,0.1-0.1,0.1,0,0.2c0.1,0.1,0.1,0.1,0.1,0.2c0-0.1,0.1-0.3,0.1-0.6c0-0.3-0.1-0.5-0.2-0.5c0.2-0.1,0.3-0.3,0.2-0.6
		C61,19.5,61,19.3,61,19c0.2,0,0.2-0.1,0.3-0.2c0-0.1,0.1-0.3,0.1-0.4c0-0.2,0.1-0.3,0.1-0.4c0-0.1,0.2-0.2,0.3-0.2
		c-0.1,0-0.1,0.1,0,0.1c0.1,0.1,0,0.1-0.1,0.1c0,0,0.1,0,0.1,0.1c0,0,0,0-0.1,0.1c0.3,0.2,0.5,0.1,0.8-0.1c0.2-0.2,0.4-0.5,0.4-0.7
		h0.3v0h0h0c0,0,0,0,0,0c0-0.2,0.1-0.3,0.2-0.4c0.1-0.1,0.1-0.2,0.2-0.3c0-0.1,0.1-0.2,0.1-0.4c0-0.1,0.1-0.3,0.1-0.5
		c0,0.1,0.1,0.1,0.2-0.1c0-0.1,0-0.2,0-0.2l0-0.2L64,15.1c0.1-0.1,0.1-0.2,0.1-0.2c0,0,0.1,0,0.2,0.1c0,0,0-0.1,0-0.2
		c0-0.1,0-0.1-0.1-0.1c-0.1,0.1-0.1,0.2-0.3,0.3c-0.1,0.1-0.1,0.1,0,0.2l0,0.1l0,0.1c-0.1,0.1-0.2,0.1-0.2,0.2
		c0,0.1-0.1,0.1-0.1,0.2c-0.1,0.1-0.2,0-0.2,0c0-0.1-0.1-0.1-0.2-0.1c0,0,0.1-0.1,0.1-0.1c0,0,0-0.1,0-0.2c-0.1,0-0.1,0-0.1,0.1
		c0,0.1,0,0.1-0.1,0.2h-0.4c-0.1-0.2,0-0.3,0-0.4c-0.1,0-0.1,0-0.1,0.1c0,0.1,0,0.2-0.1,0.2c-0.1,0-0.1,0-0.2-0.1
		c-0.1,0-0.1,0-0.2,0.2l-0.1,0l0,0.1h-0.2c-0.1,0.1-0.2,0.1-0.1,0.2c0.1,0.1,0,0.2-0.2,0.2c0.1-0.1,0.1-0.1,0-0.1
		c-0.1,0-0.1,0,0,0.1c0,0,0,0,0,0.1h-0.1l-0.1,0c-0.1,0.1-0.2,0.2-0.3,0.2c-0.1,0-0.2,0-0.4,0c0-0.2,0-0.4,0-0.7c0-0.3,0-0.4,0-0.5
		c-0.1,0.1-0.1,0.1-0.1,0c0-0.1,0-0.1-0.1,0c-0.1-0.1-0.1-0.1,0-0.1c0.1,0,0.2,0,0.2-0.1c-0.1-0.1-0.2-0.1-0.2,0
		c-0.1,0.1-0.2,0-0.3-0.1c0,0.1-0.1,0.1-0.1,0.1c-0.1,0-0.2,0.1-0.3,0.1c-0.2,0-0.2,0-0.3-0.1c0-0.1-0.1-0.1-0.3,0
		c0-0.1,0-0.2,0-0.2c0,0,0.1,0,0.1,0c0,0,0.1,0,0.1,0c0,0,0-0.1,0-0.2c0.1,0,0.2-0.1,0.2,0c0,0,0.1,0,0.2,0c0-0.1,0-0.1,0-0.1
		c-0.1,0-0.1-0.1,0-0.2c0.1,0.1,0.1,0.1,0.1,0.1c0,0,0,0,0.1-0.1c0-0.1,0-0.1-0.1-0.2c0-0.1-0.1-0.1-0.2-0.1c0,0,0.1-0.1,0-0.3
		l0.1,0l0.1,0c0.2,0,0.3,0,0.3,0.1l0,0.1l0.1,0c0.1,0,0.1,0.1,0.1,0.1c0-0.1,0.1-0.1,0.1-0.1c0,0,0.1,0.1,0.1,0.1
		c0.2-0.1,0.2-0.3,0.1-0.4c-0.1-0.2-0.1-0.2,0-0.3c0-0.1-0.1-0.1-0.1,0c0,0.1-0.1,0.1-0.1,0c0,0,0.1-0.1,0.1-0.1c0,0,0-0.1,0-0.1
		l0.1,0h-0.1c0.1-0.1,0.1-0.2,0.1-0.3c0-0.1-0.1-0.2-0.2-0.2c0,0,0-0.1,0,0c0,0,0,0,0.1,0c0-0.1,0-0.3,0.1-0.5
		c0-0.2,0.1-0.4,0.1-0.6c0-0.2,0-0.4-0.1-0.6c-0.1-0.2-0.2-0.3-0.4-0.3c0-0.1,0-0.2,0.2-0.2c0.1,0,0.3,0,0.4-0.1
		c-0.2,0-0.3-0.1-0.3-0.3c0.1-0.1,0.2-0.2,0.4-0.2c0-0.2,0-0.4-0.2-0.4c-0.1-0.1-0.2-0.2-0.2-0.4c0,0,0.1,0.1,0.1,0.1
		c0,0,0.1,0.1,0.1,0.1c0-0.3,0-0.6,0-1c0-0.4,0-0.8,0-1.2c0-0.4,0-0.7,0-1.1C61,5.4,61,5.1,61.1,5V4.8h0.1l0-0.1c0,0,0.1,0,0.2,0
		c0,0,0-0.1,0-0.2c0-0.1,0-0.2-0.1-0.3c0.2,0.1,0.3,0,0.3-0.1c0-0.1,0-0.2-0.1-0.3c0.2,0,0.2,0,0.3-0.1c0-0.1,0.1-0.1,0.2-0.1
		c-0.1-0.1-0.2-0.1-0.2-0.2c0,0,0-0.1-0.1-0.3H63l0,0.1l0.1,0c0,0.1,0,0.1,0,0.1c0,0,0,0,0-0.1c0.1,0.1,0.1,0.1,0,0.1
		c-0.1,0-0.1,0.1-0.1,0.1c0.1,0,0.1-0.1,0.2-0.1c-0.1,0.1-0.1,0.2,0,0.3c0,0.1,0.1,0.1,0.2,0.1V3.6l0.1,0l0-0.1
		c0.1,0,0.2-0.1,0.2-0.3l0-0.1l-0.1,0c0,0-0.1-0.1-0.1-0.3c0.1,0,0.1,0,0.2,0.1c0.1,0,0.2,0,0.3,0c0.1,0,0.3,0,0.4,0
		c0.1,0,0.3,0,0.4,0c0.1,0,0.2-0.1,0.3-0.1c0.3,0.1,0.7,0.1,1.3,0.1c0.5,0,1,0,1.5-0.1v0.1h0h0.9v0.8c0-0.1,0.1-0.1,0.1-0.1
		c0,0,0.1,0.1,0.1,0.2l-0.1,0.1l0,0.1c0,0.1,0,0.1-0.1,0c0,0,0,0-0.1,0c0,0.2,0,0.3,0.2,0.3c-0.1,0.2-0.2,0.6-0.1,1.2
		c0,0.6,0,1.1,0,1.7l0,0l0,0c-0.1,0.2-0.1,0.5-0.1,0.8c0,0.3,0,0.6,0,0.9l-0.1,0v0.1c-0.1,0-0.1,0-0.2,0.1c-0.1,0.1-0.1,0.1,0,0.1
		c0,0,0.1-0.1,0.1-0.1s0.1,0,0.1-0.1l0,0l0.1,0c0,0.3,0,0.6,0,0.8c0,0.3,0,0.5,0,0.7l-0.1,0l0,0c-0.1,0-0.2,0.1-0.2,0.2h0.2l0,0
		l0.1,0v0.5l-0.1,0v0.1h0c0,0,0,0-0.1,0v0.2l-0.1,0l0,0.1c0.1,0.1,0.2,0.2,0.2,0.3c0.1,0.1,0,0.2-0.1,0.3c0.1,0,0.1,0,0.1-0.1l0.1,0
		l0.1,0c0.1,0.1,0.1,0.2,0.1,0.2c0,0,0,0.1,0.1,0.2C69,13,68.9,13,68.9,13c-0.1,0-0.1-0.1-0.2-0.1v8.7l-0.1,0l0,0.1
		c-0.2,0-0.3,0-0.4-0.1c-0.1-0.1-0.1-0.2-0.2-0.3l0.1,0l0-0.1c-0.1-0.2-0.2-0.4-0.3-0.5c-0.1-0.1-0.2-0.3-0.3-0.5
		c-0.1,0.2,0,0.2,0.1,0.3c0.1,0,0.1,0.1,0.1,0.2c0.2,0,0.2,0,0.2,0.1c0,0.1,0,0.2,0.1,0.2l-0.1,0v0.1c-0.2,0-0.2-0.1-0.3-0.1
		c0,0-0.1,0-0.3,0c0-0.1,0-0.2-0.1-0.2c-0.1,0-0.2,0-0.2-0.1c-0.1,0.1-0.2,0.1-0.2,0.1c0.2,0.1,0.3,0.2,0.5,0.3s0.4,0.3,0.5,0.5
		c0.1,0.1,0.1,0,0.2,0c0-0.1,0-0.1,0-0.1c0.1,0,0.3,0,0.5,0.1c0.2,0,0.3,0.2,0.3,0.6c-0.1,0.1-0.1,0.1-0.2,0
		c-0.1-0.1-0.1-0.1-0.2,0.1v0.1l0,0.1l0,0.1c-0.1,0.1-0.2,0.2-0.3,0.3c-0.1,0.1-0.2,0.1-0.3,0.1C67.7,23,67.6,23,67.6,23
		s-0.1,0-0.2,0c0.1-0.1,0.1-0.1,0-0.1c-0.1,0.1-0.1,0.1,0,0.2c0,0.1,0,0.2-0.1,0.2c0,0.1,0.1,0.2,0.1,0.1c0.1-0.1,0.1,0,0.1,0.2
		h-0.1v0.1c0,0.1,0,0.2-0.1,0.3c0.1-0.1,0.2-0.1,0.2-0.1c0.1,0.1,0.2,0,0.2-0.1l0.1,0l0.1,0c0.1-0.1,0.2-0.2,0.2-0.1
		c0.1,0,0.2,0,0.3,0c-0.1,0.1-0.1,0.1-0.1,0.2c0,0.1,0.1,0.1,0.2,0.1c0,0.1,0,0.1-0.1,0.1c-0.1,0-0.1,0,0,0.1v0.1v0.1
		c0,0.1,0.1,0.2,0,0.2c0,0-0.1,0-0.1,0.1l-0.1,0l0,0.1c-0.1,0.1-0.1,0.1-0.1,0.2c0,0.1-0.1,0.1-0.2,0.1c0-0.1,0-0.2,0-0.2
		c-0.1,0.1-0.1,0.1-0.1,0.3c0.1,0,0.2,0,0.3,0c0.1,0,0.2,0,0.3,0.1V25l0.1,0l0-0.1c0-0.1,0.1-0.1,0.2,0c0.1,0.1,0.1,0.1,0.2,0.1
		c-0.1,0.3,0,0.5,0.2,0.6c-0.1,0.1-0.1,0.1-0.1,0.3c0,0.1-0.1,0.2-0.3,0.2c0,0.1,0,0.2,0.1,0.2c0.1,0,0.1,0.1,0,0.2
		c-0.1-0.1-0.1-0.2-0.2-0.3c-0.1-0.1-0.1-0.2,0.1-0.3c0,0-0.1,0-0.2,0c-0.1,0-0.1,0-0.1,0L68,25.8c0,0,0,0.1,0,0.1
		c-0.1,0-0.1,0-0.1-0.1c-0.1-0.1-0.1-0.1-0.1,0.1c0,0.1,0,0.2,0.1,0.2c0.1,0,0.2,0,0.2,0.1c0,0.1,0,0.1-0.1,0.1
		c-0.1,0-0.1,0-0.1,0.1l-0.1,0l0,0.1h-0.2v0.1c0.1,0,0.2,0,0.2-0.1l0.1,0l0-0.1c0-0.1,0.1-0.1,0.1-0.1c0,0,0.1,0,0.1,0.1
		c0,0,0.1,0,0.1,0c0,0,0,0,0-0.1c0.1,0.1,0.2,0.2,0.3,0.2c0.1,0,0.2,0,0.3,0v2l-0.1,0v0.1c-0.1,0.1-0.1,0.2-0.1,0.3
		c0,0.1,0,0.2,0,0.4c-0.1,0.1-0.1,0.1-0.2,0.1s-0.2,0-0.2,0.1v-0.1l0-0.1v-0.1l0-0.1l0-0.1c0,0,0.1,0,0.1,0c0,0,0.1,0,0.1-0.1
		c-0.1,0-0.1-0.1-0.1-0.1c0,0-0.1-0.1-0.1-0.1l0-0.1l0,0c-0.3-0.1-0.5-0.1-0.8-0.1c-0.3,0-0.5,0.1-0.8,0.1c-0.3,0-0.6-0.1-1-0.1
		c-0.4,0-0.6,0-0.8,0.1c-0.1-0.1-0.2-0.1-0.3-0.1c-0.1,0-0.2,0-0.3,0.2c-0.1,0-0.1-0.1,0-0.1c0,0,0.1,0,0.1,0
		c-0.3-0.1-0.6-0.1-1.2-0.1c-0.5,0-1,0-1.3,0.1l0,0l0,0.1c-0.1,0-0.1,0,0,0.1c0,0,0,0.1,0,0.1c0,0-0.1,0-0.1-0.1
		c-0.1,0-0.1,0-0.1,0.1c-0.1-0.1-0.2-0.2-0.4-0.3c-0.2-0.1-0.4-0.1-0.5,0l0,0l-0.1,0H57c-0.1,0.1-0.1,0.3-0.1,0.5
		c-0.3-0.1-0.5-0.2-0.6-0.5c-0.1-0.2-0.2-0.5-0.3-0.7h0.2C56.1,28,56,27.9,55.9,28c-0.1,0-0.2,0-0.4,0c0.1-0.1,0.1-0.2,0.1-0.3
		c-0.1-0.1,0-0.1,0.1-0.1c-0.2-0.5-0.5-1-0.9-1.3c-0.4-0.4-0.7-0.8-1-1.2c0,0.1-0.1,0.1-0.2,0.1c-0.1,0-0.2-0.1-0.3-0.2
		c-0.1-0.1-0.2-0.2-0.3-0.3c-0.1-0.1-0.1-0.2,0-0.3c-0.1-0.1-0.2-0.2-0.2-0.3c-0.1-0.1-0.1-0.2-0.1-0.4c-0.1-0.1-0.1-0.1-0.1,0
		c0,0.1-0.1,0.1-0.1,0c0-0.1,0-0.1,0-0.1c0,0,0.1,0,0.1-0.1c0-0.1,0-0.1-0.1-0.1c-0.1,0-0.1,0-0.1-0.1c0,0.1,0,0.1-0.1,0.1
		c-0.1,0-0.2,0-0.4,0c0-0.1,0-0.1-0.2-0.1c0.1,0,0.2-0.1,0.1-0.2c0-0.1,0-0.2,0-0.3c0,0.1,0,0.1,0.1,0.1c0.1,0,0.1,0,0.1-0.1
		c0,0-0.1-0.1-0.1-0.1c-0.1,0-0.1-0.1-0.2-0.2c-0.2-0.2-0.4-0.5-0.7-0.9c-0.3-0.3-0.6-0.7-0.9-1.1c-0.3-0.4-0.7-0.8-1-1.2
		c-0.3-0.4-0.7-0.8-1-1.2c-0.3-0.3-0.5-0.7-0.8-1.1c-0.2-0.4-0.5-0.6-0.7-0.7c-0.1,0-0.1-0.1-0.1-0.2c0-0.1,0-0.2,0.1-0.3
		c-0.2,0.1-0.3,0.1-0.4,0c-0.1-0.1-0.1-0.3-0.2-0.3l0.1,0l0-0.1c0-0.1,0.1-0.1,0.3-0.2c0.1,0,0.2-0.1,0.3-0.1v0h0
		c0,0.1,0.1,0.1,0.1,0c0-0.1,0-0.1-0.1-0.1l0-0.1l-0.1,0v-0.1c-0.1-0.1-0.2-0.1-0.3,0c-0.1,0.1-0.1,0.2-0.2,0.2c0-0.1,0-0.1-0.1-0.1
		c0,0.1-0.1,0.2-0.1,0.3l-0.1,0l0,0.1c-0.1-0.1-0.2-0.3-0.4-0.4c-0.2-0.1-0.2-0.3-0.1-0.4c-0.1-0.1-0.1-0.1-0.2-0.1c0,0,0,0,0-0.2
		l0.1,0l0-0.1c0.1,0,0.1,0,0.2-0.1c-0.1,0-0.2,0-0.3,0l0-0.1l-0.1,0H45l0-0.1H45c-0.1-0.1-0.2-0.2-0.2-0.4c0-0.2,0.1-0.3,0.2-0.4
		h0.1l0-0.1c0,0,0-0.1,0-0.1c0.1,0,0.1-0.1,0-0.1c0,0.1,0,0.1-0.1,0.1c0,0-0.1,0-0.1,0.1l-0.1,0l0,0.1c-0.1,0.1-0.1,0.1-0.1,0.2
		c0,0.1-0.1,0.1-0.1,0.1c0-0.1,0-0.1-0.1-0.1c0,0.1,0,0.2,0.1,0.2c0.1,0,0.1,0.1,0.1,0.3l-0.1,0l0,0.1c-0.2-0.2-0.4-0.5-0.6-0.8
		c-0.2-0.3-0.4-0.5-0.6-0.8l0.1,0l0-0.1c0.1,0,0.2-0.1,0.2-0.2c0.1-0.1,0.1-0.2,0-0.3c-0.3,0-0.4,0-0.4,0.3l-0.1,0l0,0.1
		c-0.1-0.2-0.3-0.4-0.5-0.5c-0.2-0.1-0.3-0.3-0.4-0.6c0.1,0,0.2-0.1,0.2-0.1c0.1,0,0.2-0.1,0.3-0.1c0-0.1,0-0.2-0.1-0.1
		c-0.1,0-0.1,0-0.1-0.1c0,0,0,0,0,0c0,0,0,0,0.1,0c0-0.2,0.2-0.3,0.5-0.4c0.3-0.1,0.5-0.2,0.7-0.5c0,0.1,0.1,0.1,0.3,0.1
		c-0.1,0-0.1,0.1-0.1,0.3c0.2,0,0.3,0,0.4-0.1c0.1-0.1,0.2-0.1,0.4-0.1c-0.1,0.1-0.1,0.1-0.1,0.2c0,0.1,0,0.1,0.1,0.2
		c0.2,0,0.3-0.1,0.3-0.3c0.2,0.1,0.4,0.1,0.7,0c0.2-0.1,0.5-0.1,0.7-0.1c-0.2-0.1-0.4-0.2-0.7-0.1c-0.3,0.1-0.6,0.1-0.9,0
		c0-0.1,0-0.2-0.1-0.3c-0.1,0-0.2,0-0.3,0c-0.1,0-0.1,0,0,0.1c0.1,0.1,0.1,0.1,0,0.2c-0.1-0.1-0.3-0.2-0.4-0.2
		c-0.2,0-0.3-0.1-0.5-0.2c-0.1,0.1-0.1,0.1-0.2,0.1c-0.1,0-0.1,0.1-0.1,0.1c-0.1,0-0.1-0.1-0.1-0.1c0-0.1,0-0.1,0.1-0.2
		c-0.1,0-0.1,0-0.1,0.1c0,0.1,0,0.1-0.1,0.1c-0.1,0.2,0,0.2,0.2,0.2c-0.1,0.1-0.1,0.1-0.2,0.1c-0.1,0-0.1,0.1,0,0.2
		c-0.2,0-0.3,0-0.3-0.1c-0.1,0-0.1,0,0,0.1c0.1,0,0.1,0.1,0.1,0.2C42.8,10,42.6,10,42.5,10c-0.2,0-0.3-0.1-0.4-0.1
		C42,9.9,42,9.9,42,9.9c0,0.1,0.1,0.1,0,0.3c-0.1,0-0.1,0-0.1-0.1c0,0,0,0-0.1,0c-0.1,0.1,0,0.2,0.1,0.3c0.1,0,0.2,0.1,0.2,0.2
		c0,0.2-0.1,0.2-0.3,0.2l-0.1-0.1l-0.2,0c0,0-0.1,0-0.1,0c0,0,0,0.1,0.1,0.1h0.1l0,0l0.1,0c-0.1,0.1,0,0.2,0,0.2
		c0.1,0,0.1,0.1,0.1,0.1c-0.1,0-0.2,0-0.2,0c0,0.1-0.1,0.1-0.2,0.1c0.2,0,0.3,0.2,0.4,0.4c0.1,0.2,0.1,0.4,0.1,0.6
		c0,0.2,0,0.5,0,0.8c0,0.3,0,0.5,0,0.7C42,13.5,42,13.5,42,13.5c0,0-0.1,0-0.2,0c0-0.1,0-0.2,0-0.2c0,0,0,0-0.1-0.1
		c-0.1,0-0.1,0-0.1,0c0,0,0,0,0.1,0c0,0.1-0.1,0.1-0.1,0.1c-0.1-0.1-0.1-0.1-0.2-0.1c-0.1,0.1,0,0.2,0,0.2c0.1,0,0.1,0.1,0.1,0.2
		c-0.1,0-0.1-0.1-0.1,0c0,0,0,0.1,0,0.1c0,0,0,0.1,0,0.1c0,0.1,0,0.1-0.1,0.1c0.1,0.1,0.1,0.2,0.2,0.1c0.1,0,0.1,0,0.2,0l0,0.1
		l0.1,0c0.1,0.1,0.1,0.1,0.1,0.2c0,0.1,0,0.1,0.1,0.1c0,1,0,2.1,0,3.1c0,1,0,2,0,3l-0.1,0l-0.1,0h-0.1h0v0.1
		c-0.1-0.1-0.2-0.1-0.3-0.3c0,0.1,0,0.1,0,0.2c0,0,0,0.1,0.1,0.1l-0.1,0l0,0.1c-0.1,0-0.1,0,0,0.1c0,0.1,0.1,0.1,0.1,0V21h0.1
		c0,0,0.1,0,0.1,0c0,0,0,0,0.1,0c0,0.3,0,0.3,0.1,0.2H42h0.1c0,0.1,0,0.2,0,0.3c0,0.1-0.1,0.1-0.2,0.1c0,0.1,0.1,0.1,0.2,0.1v3.1
		c0,0.1,0,0.1,0.1,0.1c0.1,0,0.1,0,0.1,0.1c-0.1-0.1-0.2-0.1-0.2,0c0,0.1,0,0.3,0,0.4c0,0,0,0,0-0.1c-0.1,0.4-0.1,0.9-0.1,1.6
		c0,0.7,0,1.3,0,1.8l-0.1,0l0,0.1h-3.6l0-0.1l-0.1-0.1c0.1-0.2,0.1-0.3,0-0.5h0.1l-0.1,0v-0.1l0.1,0l0-0.1c0-0.1-0.1-0.2-0.1-0.2
		l0-0.1l-0.1,0c0-0.1,0-0.2-0.1-0.2c-0.1,0-0.1,0.1-0.1,0.2l-0.1,0v0.1h-0.2h-0.1v0.1c0,0-0.1,0-0.1-0.1c0-0.1-0.1-0.1-0.1,0.1
		l-0.1,0v0.1c-0.2,0.1-0.3,0.1-0.3-0.1c-0.1-0.1-0.1-0.1-0.2-0.1l-0.1,0l0,0.1c-0.1,0-0.2,0-0.2,0c0,0,0.1,0.1,0.2,0.1l0,0.1l0.1,0
		v0.1c0,0,0.1,0,0.1,0c0,0,0.1,0,0.1,0c-0.1-0.1-0.1-0.2,0-0.2c0,0.1,0.1,0.1,0.2,0.2c0.1,0.1,0,0.2-0.1,0.4l-0.1,0.1l0,0.1
		c-0.1,0-0.1,0-0.1,0c-0.1,0-0.1,0-0.1,0.1c0.1,0,0.1,0,0.1,0.2c-0.1,0-0.2,0-0.3,0.1h-0.1l0,0.1c-0.1,0-0.2,0.1-0.3,0.3
		c-0.1-0.1-0.1-0.2-0.2-0.1c-0.1,0.1-0.1,0.1-0.2,0v0.1l-0.1,0l0,0.1c0,0.1,0,0.1-0.1,0.1c0-0.1,0.1-0.1,0.1-0.2
		c-0.1-0.1-0.2-0.1-0.4-0.1c0,0,0.1,0,0.1-0.1c0,0,0.1-0.1,0.1-0.1c-0.1,0-0.1,0-0.2,0s-0.2,0-0.3,0c-0.1,0-0.2,0-0.3,0.1
		c-0.1,0-0.1,0.1-0.1,0.2c-0.1-0.3-0.1-0.6-0.1-1c0-0.4,0-0.7,0-1l0.1,0l0-0.1c0.1,0,0.2,0,0.3,0l0,0.1l0.1,0c0,0,0.1-0.1,0.1-0.1
		c0,0,0,0-0.1,0l-0.1,0l-0.1,0v-0.1c-0.1,0-0.1-0.1-0.1-0.1c0,0,0,0,0.1,0.1c0,0.1-0.1,0.1-0.1,0.1c0,0-0.1,0-0.1,0l0-0.1l-0.1,0
		c-0.1-0.1,0-0.1,0-0.1c0-0.1,0-0.1-0.1,0c0,0-0.1,0-0.1,0v-3c0.1,0.1,0.2,0.1,0.3,0c0.1,0,0.2-0.2,0.1-0.3l0.1,0l0-0.1
		c0,0,0,0,0.1,0c0.1-0.1,0.1-0.2,0.1-0.2c0-0.1,0-0.2,0-0.3c-0.2,0.1-0.3-0.1-0.2-0.4c0-0.3,0-0.5,0-0.7c-0.1,0.1-0.2,0.1-0.1,0.1
		c0,0,0,0,0-0.1c-0.1-0.1-0.1-0.1-0.2-0.1c-0.1,0-0.1,0,0-0.1l0.1,0l0-0.1h0c0-0.2,0-0.5,0-0.9c0-0.4,0-0.7,0-1.1s0-0.8,0-1.2
		c0-0.4,0-0.8,0-1.1c0.1-0.1,0.2-0.3,0.1-0.5c0-0.2,0-0.4,0-0.5c-0.1,0-0.1,0-0.1,0c0,0.1,0,0.1-0.1,0.1l-0.1-0.1l-0.1,0
		c0-0.4,0-1,0-1.5c0-0.6,0-1.2,0-1.8c0-0.6,0-1.3,0-1.9c0-0.6,0-1.3,0-1.9c0-0.1,0-0.1-0.1,0c-0.1,0.1-0.1,0.1-0.2,0
		c-0.1-0.2,0.1-0.4,0.3-0.3V4.6c0,0-0.1,0-0.3,0c0,0,0,0,0.1-0.1c0,0,0.1,0,0.1-0.1c0,0,0.1,0,0.1-0.1c0,0,0,0-0.1-0.1
		c0.1-0.1,0.1-0.1,0.1-0.1c0,0,0-0.1,0-0.2c0,0.1,0.1,0.1,0.2,0.1c0.1,0,0.2,0,0.4,0V4L35,4l0.1,0h0.3h0.1h0.1
		c0.3,0.1,0.5,0.1,0.7,0c0.2,0,0.5,0,0.8,0c0,0,0.1-0.1,0.1-0.1c0,0,0,0,0.1,0c0.2,0.1,0.6,0.2,1,0.1c0.4,0,0.8,0,1.1,0.1
		c0-0.1,0.1-0.1,0.1-0.1c0.1,0,0.1,0,0.1-0.1c-0.2,0-0.4,0-0.6-0.1c-0.2,0-0.5,0-0.7,0c-0.3,0-0.5,0-0.7,0c-0.2,0-0.4,0-0.5-0.1
		c-0.1-0.1-0.1-0.1-0.1-0.1c0,0,0.1,0,0.1-0.1c-0.1,0-0.2-0.1-0.4-0.1c-0.1,0-0.3,0-0.4-0.1c0,0.2,0,0.3,0,0.3c-0.2,0-0.3,0-0.3,0
		c0,0.1-0.1,0.1-0.3,0.1l-0.1,0l-0.1,0c0,0,0,0,0,0l0-0.1l0-0.1c-0.1-0.1-0.1-0.1-0.1-0.1L35.7,3.4z M34.4,23.1h0.2v0.2h-0.2V23.1z
		 M34.8,23.5L34.8,23.5c0,0.3-0.2,0.3-0.4,0.3c0-0.2,0-0.4,0.1-0.4c0,0.1,0.1,0.2,0.1,0.1C34.7,23.5,34.8,23.5,34.8,23.5L34.8,23.5z
		 M34.4,16.7c0,0,0.1-0.1,0.1-0.2c0-0.1,0-0.1,0-0.2L34.4,16.7z M34.6,27c0,0-0.1,0-0.1,0c0,0,0,0.1,0,0.2l0.1,0.1L34.6,27z M34.4,1
		h0.1v0.2h-0.1V1z M34.4,3.6c0,0,0-0.1,0.1-0.2L34.4,3.6z M34.4,3.6c0.1,0.1,0.2,0.1,0.3,0.1c0.1,0,0.2,0,0.3-0.1L34.4,3.6z
		 M34.6,2.6C34.7,2.6,34.7,2.6,34.6,2.6C34.6,2.6,34.6,2.6,34.6,2.6c-0.1,0-0.2,0-0.2,0S34.5,2.6,34.6,2.6z M34.5,21.6
		c-0.1-0.2-0.1-0.3-0.1-0.5c0-0.2,0-0.3,0-0.5L34.5,21.6z M34.5,3.4c0.1-0.2,0.2-0.2,0.2-0.1c0,0.1,0.1,0.1,0.1-0.1
		c0,0.1,0.1,0.1,0.2,0.1c0.2,0,0.3,0,0.4,0.2l0,0.1h0.1v0.2l-0.1,0v0.1c-0.1,0-0.1,0-0.1,0c0,0-0.1,0-0.1,0l-0.1-0.2l0,0.3l-0.1-0.2
		L35,3.8l0-0.2l-0.2,0c0,0,0-0.1-0.1-0.1c-0.1,0-0.1,0-0.2,0L34.5,3.4L34.5,3.4z M34.8,23.5c0,0.1,0.1,0.1,0.2,0.1L34.8,23.5z
		 M34.8,27.2c0,0,0-0.1,0-0.1L34.8,27.2z M35,2.5c0,0.1,0.2,0.1,0.4,0.1c0,0.1-0.1,0.2-0.1,0.1c-0.1,0-0.1,0-0.1,0.1
		c-0.1,0-0.1,0-0.1-0.1C35,2.6,35,2.6,35,2.5z M35,21.2c0.1,0,0.2,0,0.2-0.1c0.1,0,0.1-0.1,0.2-0.1c0-0.1,0-0.2,0-0.3
		c0-0.1-0.1-0.2-0.1-0.3c0.1-0.2,0.2-0.4,0.1-0.7c-0.1-0.3,0-0.5,0.2-0.7c-0.1-0.2-0.2-0.6-0.1-1c0.1-0.5,0.1-0.9,0.1-1.3
		c-0.1,0-0.2,0-0.2-0.1c0-0.1-0.1-0.2-0.2-0.2c-0.1,0.9-0.1,1.7-0.1,2.5C35.1,19.7,35,20.5,35,21.2z M35,29.8c0-0.1,0-0.1,0.1-0.1
		c0.1,0,0.1,0.1,0.1,0.1L35,29.8C35.1,29.8,35.1,29.8,35,29.8z M35,4c0-0.2,0.1-0.3,0.1-0.4L35,4z M35.6,4.1
		c-0.1-0.1-0.3-0.3-0.4-0.5L35.6,4.1z M35.2,1.3h0.1v0.1h-0.1V1.3z M35.4,16.7c0.1,0.1,0.1,0.1,0.1,0.2c-0.1,0.1-0.1,0.2-0.1,0.3
		C35.3,17,35.3,16.8,35.4,16.7z M35.7,3.2c-0.1,0-0.1,0-0.2,0c-0.1,0-0.1,0-0.2,0L35.7,3.2z M35.6,4.1c0,0,0.1-0.1,0.1-0.2L35.6,4.1
		z M35.6,3.5c0,0,0-0.1,0.1-0.1L35.6,3.5z M35.6,3.8c0,0,0.1,0,0.1,0c0,0,0.1,0,0.1,0L35.6,3.8z M35.7,3.9c0,0,0-0.1-0.1-0.1
		L35.7,3.9z M35.7,3.9c0,0,0.1,0,0.2,0c0.1,0,0.1,0,0.1-0.1V3.8L35.7,3.9z M36.1,30.7C36.2,30.8,36.2,30.8,36.1,30.7
		c-0.1,0.1-0.1,0.1-0.1,0.2c-0.1-0.1-0.1-0.1,0-0.1C36,30.8,36.1,30.8,36.1,30.7z M35.9,30.4c0,0,0.1,0,0.2,0c0.1,0,0.1,0,0.2-0.1
		L35.9,30.4z M36,29.6C36,29.6,36,29.5,36,29.6c-0.1-0.1-0.1-0.1-0.1-0.1L36,29.6z M36.3,30.6c0.1,0,0.1,0.1,0,0.2
		c-0.1,0.1-0.1,0.1-0.1,0.2c-0.1,0-0.1-0.1,0-0.2C36.3,30.7,36.3,30.6,36.3,30.6z M36.2,23.1c0.1,0.1,0.1,0.1,0.1,0
		S36.3,23,36.2,23.1z M36.5,18.4c0-0.1-0.1-0.1-0.1,0c-0.1,0.1,0,0.2,0.1,0.1l0,0.1l0.1,0c-0.1,0.1-0.1,0.1-0.1,0.2s0,0.2-0.1,0.3
		l-0.1,0l0,0.1h-0.1c-0.1,0.1,0,0.2,0,0.2c0.1,0,0.1,0,0.1-0.1l0-0.1l0-0.1h0.1v0.1h0.1c0.1,0.1,0.1,0.2,0.1,0.2
		c0,0.1,0,0.1,0.1,0.1l0,0.1h0.1l0,0l0,0.1l0,0l-0.1,0c-0.1-0.1-0.2-0.1-0.2,0.1c-0.1,0.2,0,0.3,0.1,0.2l0.1,0l0-0.1
		c0,0,0.1,0,0.1-0.1c0,0,0-0.1,0.1-0.1h0.1l0-0.1c0.1,0.1,0.2,0.2,0.2,0.1c0,0,0.1,0,0.2,0.2h-0.1l0.1,0c0,0-0.1,0.1-0.1,0.1
		c0,0.1,0,0.1,0.1,0.1c0,0,0-0.1,0-0.1c0,0,0-0.1,0-0.1l0.1,0l0-0.1c0,0,0.1,0,0.1-0.2l0.1,0l0-0.1c0.1,0,0.1,0,0.2-0.1
		c0.1,0,0.1-0.1,0-0.2c0,0.1-0.1,0.2-0.3,0.2c-0.1,0-0.1-0.1,0-0.2c0-0.1,0-0.1-0.1,0v-0.1l-0.1,0c-0.1,0-0.1,0-0.1,0
		c0,0,0-0.1-0.1-0.1h-0.1v0.1c0,0-0.1,0-0.1-0.1l0-0.1l-0.1,0c0,0,0-0.1-0.1,0c0,0-0.1,0-0.1,0c0-0.1,0-0.1-0.1-0.1l0-0.1l-0.1-0.1
		c0.1-0.1,0.1-0.2,0-0.2c-0.1,0-0.1-0.1-0.1-0.2c0.1,0,0.1,0,0.1-0.1c0-0.1,0-0.2-0.1-0.2l0-0.1L36.5,18.4z M36.5,19.4
		C36.4,19.3,36.4,19.3,36.5,19.4c-0.1-0.1-0.1-0.1-0.2-0.1L36.5,19.4z M36.4,18.6c0,0,0.1-0.1,0.1-0.2L36.4,18.6z M36.7,19.3
		C36.6,19.3,36.6,19.3,36.7,19.3c-0.1,0.1-0.1,0.1-0.1,0.1L36.7,19.3z M36.9,30.3c-0.1,0.1-0.1,0.1-0.2,0
		C36.6,30.3,36.6,30.3,36.9,30.3z M36.8,20.3c-0.1,0-0.1-0.1-0.1-0.1c0-0.1,0.1-0.2,0.2-0.2L36.8,20.3z M36.7,29c0,0,0.1,0,0.1,0
		c0,0,0,0,0.1,0L36.7,29z M36.7,3.6c0-0.1,0.1-0.1,0.1,0c0,0.1,0.1,0.1,0.2,0.1c0,0.1-0.1,0.1-0.2,0.1C36.8,3.7,36.7,3.7,36.7,3.6z
		 M36.8,27.9c0.1-0.1,0.1-0.2,0-0.3V27.9z M37.1,29L37.1,29c0,0,0.1,0,0.1,0l0,0.2l0-0.2h0.2l0,0.1l0.1,0c0,0.1,0,0.2,0.1,0.3
		c-0.1,0-0.2,0.1-0.4,0c-0.2,0-0.3,0-0.5,0c-0.1-0.1-0.1-0.1,0-0.2v-0.1V29c0,0,0,0,0.1,0C37,29,37,29,37.1,29L37.1,29z M36.8,19.8
		c0,0,0.1-0.1,0.1-0.2c0-0.1,0-0.1,0.1-0.1L36.8,19.8z M37.1,1.6C37.2,1.6,37.2,1.7,37.1,1.6c-0.1,0.2-0.1,0.2,0,0.3h-0.3
		C36.9,1.8,37,1.7,37.1,1.6z M36.9,19.8H37c0.1-0.1,0.1-0.2,0-0.3L36.9,19.8z M36.9,19.9c0,0.1,0,0.1,0.1,0.1L36.9,19.9z M37.1,30.6
		c0-0.1,0-0.1,0-0.1c0,0,0-0.1,0-0.1L37.1,30.6z M37.2,28.6c0,0-0.1,0-0.1,0L37.2,28.6z M37.2,28.6c0,0.1,0,0.1,0,0.2
		c-0.1,0.1-0.1,0.1-0.1,0.2L37.2,28.6z M38.5,26.6c-0.2,0-0.4,0-0.7,0c-0.3,0-0.5,0-0.6,0.1c0.2,0,0.4,0,0.7,0
		C38.1,26.7,38.3,26.7,38.5,26.6z M37.2,20.3c0.1,0,0.2,0,0.3,0.1L37.2,20.3z M37.2,28.6c0.1,0,0.2,0,0.3,0c0.1,0,0.1,0,0.2,0
		L37.2,28.6z M37.3,27.2C37.4,27.2,37.4,27.2,37.3,27.2C37.4,27,37.4,27,37.3,27.2L37.3,27.2L37.3,27.2z M37.3,29.2
		c0-0.1,0-0.2,0-0.3c0-0.1,0.1-0.1,0.1,0c0,0.1,0,0.1,0,0.2L37.3,29.2z M37.6,20.2c-0.1,0-0.2-0.1-0.3-0.2c-0.1-0.1,0-0.2,0.1-0.4
		L37.6,20.2z M37.7,27.9c-0.1,0-0.1-0.1-0.1-0.1c0-0.1-0.1-0.1-0.1-0.2L37.7,27.9z M38,28.5v0.1h-0.3l0-0.2l-0.1-0.1
		c-0.1,0-0.1-0.1-0.1-0.2c0-0.1,0-0.2-0.1-0.2h0.1v-0.1c0,0,0,0,0-0.1h0.1v0c0,0.1,0.1,0.1,0.2,0.1c0.1,0,0.1,0,0,0.1l-0.1,0l0.1,0
		c0,0.1-0.1,0.1-0.1,0.1c0,0,0,0.1,0.1,0.1v0.1l0.1,0c0,0,0.1,0,0,0.1C38,28.4,38,28.4,38,28.5L38,28.5z M37.8,27.7
		c0,0,0-0.1-0.1-0.1L37.8,27.7z M37.8,29.7C37.9,29.6,38,29.6,37.8,29.7C37.9,29.7,37.9,29.8,37.8,29.7L37.8,29.7L37.8,29.7
		L37.8,29.7z M37.9,27.9H38c0,0,0,0.1,0,0.1L37.9,27.9z M38.2,27.6c-0.1-0.1-0.1-0.1-0.1-0.1c-0.1,0-0.1,0-0.1,0L38.2,27.6z
		 M38,28.2C38,28.2,38,28.2,38,28.2L38,28.2z M38.2,24.8h-0.1c0,0-0.1,0-0.1,0C38,25,38,25,38.1,24.9S38.3,24.8,38.2,24.8z M38.1,28
		L38.1,28l0,0.2L38.1,28z M38,28.2h0.1c0,0.1,0.1,0.1,0.1,0.2c0,0.1,0,0.1,0,0.2L38,28.2z M38.2,27.6l0-0.1h0V27.6L38.2,27.6
		l0.1,0.1L38.2,27.6l0,0.1c-0.1,0.1-0.1,0.1-0.1,0c0,0,0-0.1,0-0.2L38.2,27.6z M38.1,28c0.1-0.1,0.3-0.1,0.4,0L38.1,28z M38.3,27.5
		C38.3,27.5,38.3,27.5,38.3,27.5c-0.1,0-0.1,0.1-0.1,0.1L38.3,27.5z M38.5,27.9c-0.1-0.1-0.1-0.1-0.2-0.2c0,0-0.1-0.1-0.1-0.1
		L38.5,27.9z M38.6,19.3C38.5,19.3,38.5,19.3,38.6,19.3c-0.1-0.1-0.1-0.1-0.2-0.1c-0.1,0.1,0,0.1,0.1,0.2
		C38.5,19.4,38.6,19.4,38.6,19.3z M38.8,19.8c0-0.2,0-0.3-0.1-0.3c0,0.1,0,0.1,0,0.1c0,0,0,0.1,0,0.2l-0.1,0l0,0.1
		c0,0.1,0,0.1-0.1,0.1c-0.1,0-0.1,0-0.1,0.1l0,0.1v0c-0.1,0-0.1,0,0,0.1c0,0,0,0,0,0.1l-0.1,0l0.1,0v0.2l-0.1,0l0,0.1h-0.1v0.1h0.1
		v-0.1h0.1l0-0.1c0-0.1,0-0.1,0.1-0.1l0,0.1l0.1,0c0,0.1,0.1,0.1,0.2,0.1l0,0.1v-0.1c0,0,0.1,0,0.1,0.1l0,0.1l0.1,0
		c0,0.1,0,0.1,0.1,0.1c0.1,0,0.1,0,0.1,0.1c0,0.1,0,0.1,0,0.1c0,0,0,0,0.1,0c-0.1-0.1,0-0.1,0-0.2c0.1-0.1,0.1-0.1,0-0.1
		c-0.1,0.1-0.1,0-0.1,0c0-0.1,0-0.1,0-0.2l0.1,0l0-0.1c0,0,0,0,0-0.1c-0.1-0.1-0.1-0.1,0-0.1c0,0,0-0.1,0-0.1c0,0,0,0-0.1,0
		c0,0,0-0.1,0-0.1c-0.1,0-0.1,0-0.1,0.1l0,0l-0.1,0H39l0-0.1l0,0.1C38.8,20,38.8,20,38.8,19.8L38.8,19.8L38.8,19.8z M38.4,20.5
		C38.5,20.5,38.5,20.5,38.4,20.5c0.1,0.1,0.1,0.1,0.2,0.1L38.4,20.5z M40.2,2.7c-0.3,0-0.6,0-0.9,0.1c-0.3,0.1-0.6,0-0.9,0L40.2,2.7
		z M38.5,20.1c0.1,0,0.2,0,0.3,0.1L38.5,20.1z M38.9,19.9c-0.1,0-0.1,0-0.1-0.1c0,0-0.1,0-0.1-0.1L38.9,19.9z M38.6,19h0.1
		c0.1-0.1,0.1-0.2,0-0.2C38.7,18.8,38.7,18.9,38.6,19z M38.7,20.2l0.1,0.1c0,0.1,0,0.1-0.1,0.1v-0.1l-0.1,0v0L38.7,20.2l-0.1,0v-0.1
		L38.7,20.2z M38.7,20.3l-0.1,0.2L38.7,20.3z M38.7,20.2l0.2-0.1c0-0.1,0-0.2,0-0.3L38.7,20.2z M38.8,1.4C38.9,1.4,39,1.5,39,1.5
		c0.1,0.1,0.1,0.2,0,0.4L38.8,1.4z M39.2,20.3c0,0-0.1,0-0.1,0c0,0-0.1,0-0.1,0v0.2L39.2,20.3z M39.2,20.3c0,0.1,0,0.1,0,0.1
		c0,0,0,0.1,0,0.1c0,0-0.1,0-0.1,0.1L39.2,20.3z M39.2,20.3c0,0,0.1,0,0.2,0.1L39.2,20.3z M39.4,29c0.1,0.1,0.1,0.1,0,0.2
		c-0.1,0.1-0.1,0.1-0.2,0C39.3,29.1,39.3,29.1,39.4,29C39.4,29.1,39.4,29.1,39.4,29z M39.8,9.2c-0.1-0.2,0-0.2,0.1-0.3
		c0.1,0,0.2,0,0.2,0c0.1-0.1,0.1-0.2,0.1-0.3c0-0.1,0.1-0.2,0.2-0.3C40.3,8,40.2,7.9,40,7.9c-0.2,0-0.4,0.1-0.5,0.3
		c-0.1,0.2-0.2,0.4-0.2,0.6C39.3,9,39.5,9.2,39.8,9.2z M40.7,10.1L40.7,10.1c0,0,0.1-0.1,0.1-0.1c-0.3-0.1-0.5-0.1-0.7-0.1
		c-0.2,0.1-0.4,0.1-0.5,0.1c0.2,0.1,0.4,0.1,0.6,0.1C40.3,10.2,40.5,10.2,40.7,10.1l0,0.2l0.1,0c0,0,0.1,0,0.1,0.1
		c0,0,0.1,0,0.1-0.1H41l0-0.1c0.1,0,0.2-0.1,0.3,0c0.1,0,0.2,0,0.3,0c-0.1-0.1-0.2-0.2-0.3-0.1c-0.1,0-0.2,0.1-0.3,0.1l-0.1,0l0,0.1
		c-0.1,0.1-0.1,0.1-0.2,0l0-0.1L40.7,10.1z M39.8,1.7c-0.1,0.1-0.1,0.1-0.2,0.1c0-0.1,0-0.1,0.1-0.1C39.7,1.7,39.7,1.7,39.8,1.7z
		 M40.1,10.9c0,0.1,0,0.1-0.1,0.1c-0.1,0-0.1,0-0.1,0.1c0.1,0,0.2-0.1,0.3-0.1c0.1,0,0.2-0.1,0.3-0.1c-0.1,0-0.3,0-0.4-0.2
		c-0.1-0.1-0.3-0.2-0.5-0.1C39.8,10.7,40,10.8,40.1,10.9z M39.7,24.2L39.7,24.2c0.1,0.1,0.1,0.1,0.1,0.1
		C39.8,24.2,39.8,24.2,39.7,24.2c0-0.1,0-0.2,0-0.2C39.6,24,39.6,24.1,39.7,24.2z M39.8,18.5c0,0.1-0.1,0.1-0.1,0.2
		c0,0.1,0,0.1,0,0.2c0.1,0,0.2-0.1,0.3-0.2c0.1-0.1,0.1-0.2,0-0.3c0,0.1,0,0.1,0,0.1C39.9,18.5,39.9,18.5,39.8,18.5z M39.9,2.1h0.3
		c0,0.1,0.1,0.1,0.1,0.1c0,0,0.1,0.1,0.1,0.2c-0.1,0-0.1,0-0.1,0.1c0,0-0.1,0-0.1-0.1c-0.1,0-0.1,0-0.1,0.1c0,0-0.1,0-0.1,0
		c0,0,0,0,0.1,0c0,0,0-0.1-0.1-0.1c-0.1,0-0.1-0.1-0.1-0.2L39.9,2.1L39.9,2.1z M40.3,20.1c0.1-0.1,0.1-0.1,0.1-0.2
		c0-0.1-0.1-0.1-0.2-0.2C40.2,19.9,40.2,20,40.3,20.1z M41.6,4c0,0-0.1,0-0.3,0c-0.1,0-0.3,0-0.4,0c-0.1,0-0.3,0-0.4,0
		c-0.1,0-0.2,0.1-0.3,0.1c0.2,0,0.5,0,0.8,0C41.4,4.1,41.6,4.1,41.6,4L41.6,4l0.2,0.1c0.3,0,0.6,0,0.9,0c0.3,0.1,0.5,0,0.8-0.1
		c-0.3,0-0.6,0-0.9,0c-0.3,0-0.6,0-0.8,0.1l0-0.1L41.6,4z M40.3,17.4C40.4,17.4,40.4,17.4,40.3,17.4c0.1,0,0.1,0,0.1,0
		c0,0,0-0.1,0-0.1c0,0-0.1-0.1-0.1,0V17.4z M40.6,15.9c0.1,0,0.2,0,0.2-0.1c0-0.1,0.1-0.1,0.1-0.2c-0.1,0-0.1,0-0.1-0.1
		c0,0-0.1,0-0.2,0C40.6,15.6,40.6,15.7,40.6,15.9z M40.7,26.3c0.1,0.2,0.1,0.3,0.1,0.3c0,0.1,0,0.1,0.2,0.3
		c-0.1-0.2-0.1-0.3-0.1-0.3c0,0,0-0.1-0.1-0.3c0-0.1,0.1-0.1,0.1,0c0,0.1,0.1,0,0.1,0c-0.1-0.1-0.2-0.1-0.2,0
		C40.9,26.3,40.8,26.3,40.7,26.3z M41,29.4c-0.1,0.1-0.2,0.2-0.3,0.1c0-0.1,0.1-0.1,0.1-0.1C40.9,29.4,40.9,29.4,41,29.4z M41,10.4
		C41,10.3,41,10.3,41,10.4c-0.1-0.1-0.1-0.1-0.1-0.2L41,10.4z M41.5,24.6h0.1v-0.1h-0.1V24.6z M41.7,20.9c0,0,0,0.1-0.1,0.2
		L41.7,20.9z M41.7,4.1C41.7,4,41.7,4,41.7,4.1c0-0.1,0-0.1,0-0.1L41.7,4.1z M41.8,10.6l-0.1,0.1L41.8,10.6z M41.9,14.1
		c-0.1,0-0.1,0-0.2,0L41.9,14.1z M41.9,20.9c0,0,0-0.1,0-0.1c0,0,0-0.1,0-0.1L41.9,20.9z M41.9,20.9C41.9,20.9,41.9,20.9,41.9,20.9
		L41.9,20.9z M42,20.9L42,20.9c0.1-0.1,0.1-0.1,0.1-0.2c0,0,0-0.1,0-0.1L42,20.9z M42,20.9l0.1,0.2L42,20.9z M42,28.5
		c0.1,0.1,0.1,0.1,0.2,0.1c0.1,0,0.2,0,0.2,0L42,28.5z M42.2,24.6C42.2,24.5,42.2,24.5,42.2,24.6c0.2,0,0.2,0.1,0.2,0.1
		c0,0.1,0,0.1-0.1,0.1C42.2,24.7,42.2,24.6,42.2,24.6z M42.8,28.7c0-0.1,0.1-0.1,0.2-0.1c0.1,0,0.2,0,0.2,0c0,0.1-0.1,0.1-0.2,0.1
		C42.9,28.6,42.8,28.6,42.8,28.7z M43.4,9.5c0,0.1-0.1,0.1-0.2,0.1C43.2,9.5,43.3,9.5,43.4,9.5z M43.5,11.9c-0.1,0-0.2-0.1-0.3-0.3
		L43.5,11.9z M43.4,25C43.5,25,43.5,25,43.4,25c0.1,0.1,0.1,0.2,0,0.2c0,0-0.1,0-0.1,0C43.3,25.2,43.4,25.1,43.4,25z M43.4,8.6
		c0.1,0,0.2-0.1,0.2-0.2c-0.1,0-0.1,0-0.1,0.1C43.5,8.6,43.5,8.6,43.4,8.6z M43.6,25.2c-0.1,0.1-0.1,0.1-0.2,0.1
		C43.4,25.3,43.5,25.2,43.6,25.2z M43.5,31.2c0.1,0,0.1,0,0.1,0c0,0,0,0.1,0,0.1c0,0,0,0.1,0,0C43.6,31.4,43.5,31.3,43.5,31.2z
		 M43.5,30.8C43.5,30.8,43.6,30.8,43.5,30.8c0.1,0,0.1,0,0.2,0c0,0,0,0,0,0.1C43.7,30.9,43.7,30.9,43.5,30.8z M44.3,29.1
		C44.3,29.1,44.3,29.1,44.3,29.1c0.1,0.1,0.1,0.1,0.2,0.1v0.1c-0.1,0-0.1,0-0.1,0.1c0,0.1,0,0.1,0.1,0.1c-0.1,0.1-0.1,0.1-0.1,0
		C44.2,29.3,44.2,29.2,44.3,29.1z M44.6,25.5C44.6,25.6,44.6,25.6,44.6,25.5c0.1,0,0.1,0.1,0.1,0.1c0,0,0,0.1,0,0.1c0,0,0,0,0,0.1
		L44.6,25.5z M44.6,13.5c0,0.1,0.1,0.2,0.1,0.3c0,0.1,0.1,0.2,0.2,0.2L44.6,13.5z M44.8,26.1C44.8,26.2,44.8,26.2,44.8,26.1
		c0,0.1,0,0.1-0.1,0.1c0,0-0.1,0-0.1,0C44.7,26.2,44.7,26.2,44.8,26.1z M44.9,29.1L44.9,29.1C45,29,45,29,44.9,29.1c0,0,0,0-0.1,0.1
		L44.9,29.1z M44.9,25.9H45V26h-0.2V25.9z M44.9,12.7c0.1,0.1,0.2,0.2,0.3,0.3L44.9,12.7z M45,25.4c0.1,0,0.1,0.1,0.1,0.2
		c0,0.1-0.1,0.1-0.2,0.1C44.9,25.5,44.9,25.5,45,25.4C45,25.4,45,25.4,45,25.4z M45,25.6C45.1,25.6,45.1,25.6,45,25.6
		c0.1,0.1,0.1,0.1,0.2,0.1c0,0.1,0,0.1-0.1,0.1C45,25.8,45,25.7,45,25.6z M45,14c0,0,0-0.1,0.1-0.2L45,14z M45,14
		c0,0.1,0.1,0.2,0.3,0.1L45,14z M45.4,8c-0.1,0-0.1,0-0.2,0c-0.1,0-0.1,0-0.1,0.1c0.1,0,0.1,0,0.2,0C45.3,8.2,45.3,8.1,45.4,8v0.1
		h0.1c0,0.1,0.1,0.1,0.1,0.2l-0.1,0l0,0.1c-0.1,0.1-0.1,0.1-0.1,0.1c0.1,0.1,0.1,0,0.1-0.1v0V8.4c0.1,0,0.1-0.1,0.1-0.2
		C45.6,8.1,45.6,8.1,45.4,8h0.1H45.4z M45.2,25.1C45.3,25.1,45.3,25.1,45.2,25.1c0.1,0.1,0.1,0.1,0,0.2c0,0-0.1,0.1-0.1,0
		C45.1,25.2,45.1,25.2,45.2,25.1z M45.3,28.5C45.3,28.5,45.3,28.5,45.3,28.5c0,0.1-0.1,0.2,0,0.3c-0.1,0-0.1-0.1-0.1-0.1
		C45.2,28.5,45.2,28.5,45.3,28.5z M45.3,14.1c0,0,0-0.1,0-0.1c0,0,0-0.1,0-0.1L45.3,14.1z M45.3,14.1C45.4,14.1,45.4,14.1,45.3,14.1
		c0.1,0.1,0.1,0.1,0.2,0.1L45.3,14.1z M45.3,29c0,0.1,0.1,0.1,0.1,0.1L45.3,29z M45.4,8.2C45.4,8.2,45.4,8.1,45.4,8.2
		c0.1-0.1,0.1-0.1,0.1-0.1L45.4,8.2z M45.8,11.1c-0.1-0.1-0.2-0.1-0.1,0C45.7,11.2,45.8,11.2,45.8,11.1z M45.7,12.6
		c0.1,0,0.2-0.1,0.3-0.2c0.1-0.1,0.1-0.2-0.1-0.3c0,0.1,0,0.2-0.1,0.2C45.8,12.4,45.7,12.4,45.7,12.6z M45.8,29.6
		c0,0,0.1,0.1,0.1,0.2c0,0.1-0.1,0.1-0.1,0C45.8,29.7,45.8,29.7,45.8,29.6z M45.9,10.1c0.1,0.1,0.2,0,0.3-0.1c0-0.1,0-0.2-0.1-0.2
		c0,0.1,0,0.1-0.1,0.1C45.9,10,45.9,10,45.9,10.1z M46.1,17.5c0,0.1,0.1,0.1,0.1,0.1c0,0,0,0.1-0.1,0.1c0,0,0,0-0.1-0.1
		C46,17.6,46,17.5,46.1,17.5z M46,15.2c0,0.1,0.1,0.3,0.3,0.3L46,15.2z M46,29.7c0-0.1,0-0.1,0.1-0.2c0-0.1,0-0.1-0.1-0.1V29.7z
		 M46.8,9.1c-0.1,0-0.1-0.1-0.1-0.2c-0.1,0.1-0.2,0-0.4-0.1c-0.1-0.1-0.2-0.1-0.2-0.1c0,0.1,0.1,0.2,0.3,0.3
		C46.5,9.2,46.6,9.2,46.8,9.1z M46.3,14C46.3,14,46.3,14,46.3,14c0-0.2,0-0.2-0.1-0.2C46.2,13.9,46.3,14,46.3,14z M46.3,10.9h0.4
		c0-0.1,0-0.2,0.1-0.2c0.1,0,0.1-0.1,0.1-0.2c-0.1,0.1-0.3,0.1-0.4,0.1C46.5,10.7,46.4,10.8,46.3,10.9z M46.5,18.5
		c0.1,0,0.1,0.1,0.1,0.1c0,0.1,0,0.1,0.1,0.2C46.6,18.9,46.5,18.7,46.5,18.5z M46.5,30c0,0,0.1,0.1,0.1,0.1c0,0.1,0.1,0.1,0.1,0.1
		c-0.1,0.1-0.1,0.1-0.2,0C46.5,30.2,46.5,30.1,46.5,30z M46.7,13.3c0,0,0.1,0,0.2,0c0.1,0,0.1,0,0.1-0.1
		C46.9,13.2,46.8,13.2,46.7,13.3L46.7,13.3L46.7,13.3c-0.2,0-0.2,0-0.2,0.1C46.5,13.5,46.6,13.5,46.7,13.3l0,0.1L46.7,13.3z
		 M46.7,13.4l-0.1-0.1L46.7,13.4z M46.8,11.9c0.1,0,0.1,0,0.2-0.1C46.9,11.8,46.8,11.8,46.8,11.9z M46.8,15.1l0.1-0.2L46.8,15.1z
		 M47.5,12.8c-0.1-0.1-0.1-0.2,0-0.3c-0.1,0.1-0.2,0.1-0.2,0c-0.1,0-0.1,0-0.1,0.2c0.1,0,0.2,0,0.2,0.1c0,0.1,0.1,0.1,0.1,0.1l0.1,0
		l0.1,0c-0.1,0.2,0,0.2,0.3,0.2v-0.3L47.5,12.8l0.1,0L47.5,12.8z M47.5,12.9c0,0,0-0.1,0.1-0.2L47.5,12.9z M47.6,12.3
		c0.1,0,0.2,0,0.2-0.1c0,0,0-0.1-0.1-0.2c-0.1,0-0.2,0-0.2,0.1C47.6,12.2,47.6,12.2,47.6,12.3z M49.8,7.5L49.8,7.5L49.8,7.5z
		 M51.1,8.3c-0.1,0-0.1,0-0.1,0.1c0,0-0.1,0-0.1,0.1L51.1,8.3z M51.1,8.3l-0.1,0c0-0.1,0-0.1,0-0.2C51,8.1,51,8,51,8
		c0.2,0,0.3,0,0.3,0.3l-0.1,0l0,0.1c-0.1,0-0.1,0.1-0.1,0.1C51.1,8.5,51.1,8.4,51.1,8.3L51.1,8.3z M51,11.1C51,11.1,51,11.1,51,11.1
		c0.1,0,0.1,0,0.1,0L51,11.1z M51.3,8.2c0.1,0.1,0.2,0.2,0.4,0.2c0.1,0,0.3,0,0.4,0c0.1,0,0.3,0,0.4-0.1c0.1,0,0.3,0,0.4,0L51.3,8.2
		z M51.5,12.4c-0.1-0.1,0-0.1,0-0.2c0.1,0,0.1-0.1,0-0.1c0,0-0.1,0.1-0.1,0.1C51.4,12.3,51.4,12.4,51.5,12.4z M51.7,6.9
		c0,0.1-0.1,0.2-0.3,0.1C51.4,6.9,51.5,6.9,51.7,6.9z M51.9,7.5c-0.1,0.1-0.1,0.1-0.1,0.1c0,0,0,0,0-0.1c0,0,0,0,0-0.1
		C51.8,7.4,51.8,7.4,51.9,7.5z M51.9,11c-0.1,0-0.1,0-0.2,0L51.9,11z M51.8,7.1C51.8,7,51.8,7,51.8,7.1c0.1,0,0.2,0,0.2,0.1
		c0,0.1,0,0.1,0,0.2c0,0.1-0.1,0.1-0.1,0C52,7.2,51.9,7.1,51.8,7.1z M52.2,11.3c0,0,0.1-0.1,0.1-0.1L52.2,11.3z M52.2,13.7
		c0.1,0,0.1,0,0.2,0.1L52.2,13.7z M52.3,13.4C52.3,13.4,52.4,13.4,52.3,13.4c0.1,0,0.1,0,0.1,0c0,0.1,0.1,0.1,0.2,0.1
		c0.1,0,0.1,0,0.2,0.1L52.3,13.4z M52.5,13.1C52.5,13.1,52.5,13.2,52.5,13.1c0,0.1,0,0.1-0.1,0.1c0,0-0.1,0-0.1,0
		C52.4,13.2,52.4,13.1,52.5,13.1z M52.7,7.8c0.1,0,0.1,0.1,0.1,0.1c0,0,0.1,0.1,0.1,0.1L52.7,7.8z M52.8,9.6c0,0,0.1-0.1,0.2-0.1
		c0.1,0,0.1,0,0.2-0.1L52.8,9.6z M52.9,12c0.1,0.1,0.2,0.1,0.3-0.1c0,0,0.1,0,0.1,0.1v0.1c-0.1,0.1-0.2,0-0.2,0
		c-0.1-0.1-0.1,0-0.1,0.1c-0.1,0.1-0.1,0.1-0.1,0S52.9,12,52.9,12z M52.9,18.1H53V18h-0.1V18.1z M53,15C53,15,53,15,53,15
		c0.1-0.1,0.1-0.1,0.2-0.1L53,15z M53.1,13.2c0.1,0,0.1,0.1,0.1,0.1c0,0,0,0-0.1,0.1c0,0-0.1,0-0.1,0C53,13.3,53.1,13.2,53.1,13.2z
		 M53.1,14.9C53.1,14.9,53.1,14.9,53.1,14.9c0-0.1,0-0.1,0-0.1L53.1,14.9z M53.1,14.9c0,0.1,0.1,0.1,0.1,0.1c0,0,0,0.1,0,0.3
		L53.1,14.9z M53.2,14.4c0,0,0-0.1,0.1-0.2L53.2,14.4z M53.3,15.3C53.3,15.3,53.2,15.3,53.3,15.3L53.3,15.3z M53.3,14.2
		c0-0.1,0-0.2,0-0.2c0-0.1,0-0.2,0.1-0.2c0.1,0,0.2,0.1,0.3,0.3L53.3,14.2z M53.3,14.2c0.1,0.1,0.2,0.1,0.3,0H53.3z M53.6,14.7
		c-0.1,0-0.2,0-0.3-0.1L53.6,14.7z M53.3,15.3c0,0,0.1,0,0.1,0c0,0,0.1,0,0.1-0.1L53.3,15.3z M53.6,14L53.6,14
		c0.1,0,0.2,0.1,0.2,0.1l0,0.1l0,0.1c0,0.1,0,0.1,0,0.2l0,0.1l0,0.1c-0.1,0-0.1,0-0.1,0.1c0,0.1,0,0.1-0.1,0.1l0-0.1l-0.1,0
		c-0.1,0-0.1-0.1,0-0.1c0,0,0-0.1,0-0.2l0.1-0.1l-0.2,0c0-0.1,0-0.2,0.1-0.2L53.6,14z M53.5,15.2c0-0.1,0-0.2,0-0.4L53.5,15.2z
		 M53.6,14.7C53.6,14.7,53.6,14.7,53.6,14.7L53.6,14.7z M53.6,13.1c0,0,0.1,0,0.1-0.1c0,0,0-0.1,0-0.2c0-0.1,0-0.1,0-0.2L53.6,13.1z
		 M53.6,14.7C53.6,14.6,53.6,14.6,53.6,14.7L53.6,14.7z M53.6,14.7c0,0.1,0.1,0.2,0.3,0.3L53.6,14.7z M53.8,14.1h0.3
		c0,0,0.1,0.1,0.1,0.1L53.8,14.1z M53.8,14.5c0,0,0.1,0,0.2,0.1L53.8,14.5z M54.2,14.3L54.2,14.3c0.1-0.1,0.2-0.2,0.2-0.1
		c0,0.1,0.1,0.1,0.2,0c0.1,0.1,0.1,0.1,0,0.1c0,0-0.1,0.1-0.1,0.1c0.1,0,0.2,0,0.2,0c0,0,0.1-0.1,0.2,0c-0.1,0.2-0.1,0.4,0,0.6
		c0,0.2,0,0.4,0,0.6c0-0.1,0.1-0.1,0.1-0.1c0,0,0,0.1,0.1,0.1c0,0.1,0,0.1,0,0.2c0,0.1,0,0.1,0,0.1c0.2-0.2,0.4-0.4,0.4-0.7l0.1,0
		l0-0.1h0.1l0,0.2l0.1-0.2c0.1,0,0.1,0.1,0.2,0.2h-0.1l0,0.1c-0.1,0.1-0.2,0.1-0.1,0.1c0.1,0,0.1,0,0.2,0.1c-0.1,0-0.1,0-0.1,0.1
		c0,0.1,0,0.2,0.1,0.1c0,0,0-0.1,0-0.1c0,0,0-0.1,0.1-0.1l0.1,0l0-0.1c0.1,0.2,0.3,0.4,0.4,0.5c0.2,0.2,0.3,0.3,0.4,0.5
		c0,0,0-0.1,0.1-0.1c0,0,0.1,0,0.1,0c0,0.1,0,0.2,0,0.1c0,0,0.1-0.1,0.1-0.1c0.1,0,0.1,0.1,0.1,0.2c0,0.1-0.1,0.2-0.1,0.1
		c0,0.1,0.1,0.2,0.2,0.3c0.1,0.1,0.1,0.2,0.1,0.3c-0.1,0-0.2,0.1-0.2,0.1c0,0.1-0.1,0.1-0.1,0.1c0,0.1-0.1,0.1-0.1,0.1
		c-0.1,0.1-0.1,0.1-0.3,0.1c0.1,0.1,0.2,0.2,0.1,0.2c-0.1,0.1-0.1,0.2-0.1,0.3c0,0.1,0,0.1,0.1,0.1c0.1,0,0.1,0,0.1,0.1l-0.1,0.1
		l0,0.1c-0.1,0-0.2,0-0.4,0c-0.1,0.1-0.2,0-0.3-0.1c-0.1,0.1-0.2,0.2-0.4,0.2c-0.1,0-0.3,0-0.4-0.1c-0.1,0-0.2-0.1-0.3-0.2
		c-0.1-0.1-0.2-0.1-0.2-0.2c-0.1,0-0.2,0-0.2,0c0,0-0.1,0.1-0.1,0.1l0-0.1l0-0.1c0-0.1-0.1-0.2-0.1-0.4c-0.1-0.1-0.2-0.1-0.4-0.1
		c0.2-0.2,0.2-0.4,0.1-0.7c0.1,0,0.2-0.1,0.3-0.3c0.1-0.2,0.1-0.3,0.1-0.3c0,0.1,0,0.1-0.1,0.1s-0.1,0-0.1-0.1c0-0.1,0-0.1,0-0.2
		c0,0,0-0.1,0-0.3l0.1-0.1l0-0.1c0.1,0,0.1-0.1,0.2-0.1c0-0.1,0.1-0.1,0.1-0.1c-0.2,0-0.3-0.1-0.3-0.2l0-0.1l0-0.1
		c0,0,0.1,0,0.1-0.1l0-0.1l-0.1,0c0,0,0-0.1-0.1-0.1c-0.1,0-0.1,0,0-0.1c0.1,0,0.1-0.1,0-0.1c-0.1,0.1-0.2,0.1-0.2,0.1
		c0,0,0-0.1,0-0.1s0,0,0-0.1v-0.1V15c0.1,0.1,0.2,0,0.3,0c0.1-0.1,0.1-0.1,0-0.1c-0.1,0.1-0.1,0.1-0.2,0.1c-0.1,0-0.1-0.1-0.2-0.2
		c0.1,0,0.1,0,0.1-0.2c-0.1,0-0.1,0-0.1,0c0,0,0,0-0.1,0L54,14.6l-0.1,0v0H54l0-0.1c0,0,0.1-0.1,0.1-0.1
		C54.1,14.4,54.1,14.3,54.2,14.3L54.2,14.3z M54.2,18.6c-0.1,0-0.1-0.1-0.2-0.1c-0.1,0-0.1-0.1-0.1-0.1L54.2,18.6z M53.9,14.8
		c0,0,0-0.1,0-0.1c0,0,0-0.1,0-0.1L53.9,14.8z M54,15c0.1,0,0.1,0,0.1,0c0,0,0.1,0,0.1,0L54,15z M54.1,19.4c0,0,0.1,0,0.1,0
		c0,0,0.1,0,0.1,0L54.1,19.4z M54.3,16.3c0.1,0.1,0.2,0.1,0.3,0.2L54.3,16.3z M54.3,15.8c0,0,0.1,0,0.2,0L54.3,15.8z M54.4,18.8
		C54.4,18.8,54.5,18.8,54.4,18.8c0.1,0,0.1,0,0.2,0L54.4,18.8z M54.5,15.6c0,0,0.1-0.1,0.2-0.1L54.5,15.6z M55.2,14.3
		C55.3,14.4,55.3,14.4,55.2,14.3c0,0.1,0.1,0.1,0.1,0.1c0,0.1-0.1,0.1-0.2,0.1c-0.1,0-0.2,0-0.1-0.1c0.1,0.1,0.2,0.1,0.2,0.1V14.3z
		 M55.5,15.2l0,0.1c-0.1,0-0.1,0-0.1,0.1c-0.1-0.1-0.2-0.2-0.1-0.4c0-0.1,0.1-0.2,0.1-0.4c0,0.1,0.1,0.2,0.2,0.2
		c0,0.1,0.1,0.2,0,0.3L55.5,15.2z M55.7,15.3c0-0.1-0.1-0.1-0.2-0.1L55.7,15.3z M55.8,15.2c0,0.1,0,0.1,0,0.2L55.8,15.2z M55.9,15.3
		c0,0,0.1,0.1,0.1,0.2c0,0.1,0.1,0.1,0.1,0.2L55.9,15.3z M56.6,19.8c0,0-0.1,0-0.2,0c0,0.1,0,0.1,0.1,0.1c0,0.1,0,0.1-0.1,0.1
		c-0.1,0-0.1,0-0.2-0.1C56.2,19.8,56.4,19.8,56.6,19.8z M56.9,18.9c0,0,0.1,0,0.2,0L56.9,18.9z M57.1,19l0-0.1
		c0.2-0.1,0.3-0.1,0.4-0.1c0.1,0,0.2,0,0.4,0c0,0.1,0.1,0.2,0.2,0.2C58,19,58,19.1,58,19.2c0,0.1,0,0.2-0.1,0.2l0-0.1l0,0.1
		c-0.1,0.1-0.3,0-0.4-0.1s-0.3-0.2-0.4-0.2L57.1,19z M57.4,10.7c0,0.1-0.1,0.1-0.3,0.1C57.1,10.8,57.2,10.7,57.4,10.7z M57.3,11.3
		c0.1,0,0.1,0,0.2,0c0,0.1,0.1,0.1,0.2,0c0,0.1-0.1,0.1-0.2,0.1C57.3,11.5,57.2,11.4,57.3,11.3z M57.5,10.7h0.2v0.1h-0.2V10.7z
		 M57.5,21.1c0.1,0.2,0.1,0.3,0.2,0.4c0.1,0.2,0.1,0.3,0.2,0.5L57.5,21.1z M57.7,29.3h0.2v0.1h-0.2V29.3z M57.8,19.3
		c0,0.1,0,0.2,0.1,0.3L57.8,19.3z M57.9,15.8h0.2v0.1h-0.2V15.8z M58.2,11.1v0.2c-0.1,0-0.1,0-0.1,0c0,0-0.1,0-0.1-0.1
		C57.9,11.1,58,11,58.2,11.1z M57.9,13.3h0.2v0.2h-0.2V13.3z M58.1,20.1c0.1,0,0.1,0,0.1,0.1c0,0,0,0.1,0,0.1c0,0-0.1,0-0.1,0
		C58,20.2,58,20.2,58.1,20.1z M58.2,12.1C58.1,12.1,58.1,12.1,58.2,12.1c-0.1-0.1,0-0.2,0-0.3c0-0.1,0.1-0.2,0.1-0.3L58.2,12.1z
		 M58.1,14c0,0,0-0.1,0.2-0.1s0.2,0.1,0.1,0.2C58.3,14,58.3,14,58.1,14z M58.3,21.4c-0.1-0.1-0.1-0.3-0.1-0.4c0-0.1,0-0.3-0.1-0.4
		L58.3,21.4z M58.4,12.1c0.1,0.1,0.2,0.1,0.2,0.1c0,0,0,0.1,0.1,0.2c-0.1,0.1-0.1,0.1-0.2,0C58.4,12.3,58.3,12.2,58.4,12.1z
		 M58.4,12.8c0.1-0.2,0.3-0.2,0.4-0.1L58.4,12.8z M59,17.2c0,0.3-0.1,0.4-0.3,0.4c0,0,0-0.1,0-0.1c0,0,0-0.1,0-0.1
		c0.1,0,0.1,0,0.2-0.1C58.8,17.2,58.9,17.2,59,17.2z M58.9,12.8c-0.1,0.1-0.2,0.1-0.2,0.2L58.9,12.8z M58.8,12.7
		c0-0.1,0.1-0.2,0.1-0.3L58.8,12.7z M58.8,12.7C58.8,12.7,58.9,12.8,58.8,12.7L58.8,12.7z M58.8,13.2c0-0.1,0.1-0.1,0.2-0.1
		c0.1,0,0.1,0.1,0,0.2C59,13.3,58.9,13.3,58.8,13.2C58.9,13.2,58.9,13.2,58.8,13.2z M58.9,12.8c0.1,0.1,0.1,0.1,0.1,0.1L58.9,12.8z
		 M59,12.9c0.1-0.1,0.2-0.2,0.3-0.2L59,12.9z M59,12.9C59,12.9,59,12.9,59,12.9c0.1,0,0.1,0.1,0.2,0.1L59,12.9z M59.1,19.5
		c0-0.1,0-0.2-0.1-0.3L59.1,19.5z M59.2,12.7c0,0,0-0.1-0.1-0.2L59.2,12.7z M59.2,12.2c0.1,0,0.1,0,0.1,0c0,0,0.1,0,0.1,0
		c0,0.1-0.1,0.1-0.1,0.1C59.2,12.3,59.2,12.3,59.2,12.2z M59.2,12.7L59.2,12.7c0.1,0,0.1,0,0.2,0.1c0.1,0,0.1,0,0.1-0.1L59.2,12.7z
		 M59.5,14.1c0.1,0,0.2,0,0.2,0.1c0,0.1-0.1,0.1-0.2,0.1V14.1z M59.7,17.5c0,0,0.1,0,0.1,0c0,0,0.1,0,0.1,0c0,0.1-0.1,0.1-0.2,0.1
		C59.7,17.7,59.7,17.6,59.7,17.5z M59.9,20.2C59.9,20.2,59.9,20.2,59.9,20.2c0.1,0,0.1,0,0.2,0L59.9,20.2z M60.2,11.9
		C60.2,11.9,60.2,12,60.2,11.9c0.1,0.2,0.1,0.2,0.3,0.1c-0.1,0.1-0.1,0.1-0.2,0.1c-0.1,0-0.2-0.1-0.2-0.1C60,12,60.1,12,60.2,11.9
		C60.1,12,60.2,12,60.2,11.9z M60,17.6h0.2v0.1H60V17.6z M60.1,13.7c0,0,0-0.1,0-0.3L60.1,13.7z M60.1,12.8c0.1,0,0.1,0,0.2,0
		c0,0,0.1,0.1,0.1,0.1c0,0.1,0,0.1-0.2,0.1S60,12.9,60.1,12.8z M60.1,12.3c0,0,0.1-0.1,0.1-0.1c0.1,0,0.1,0,0.2,0
		c0,0.1,0,0.1-0.1,0.1C60.2,12.4,60.1,12.4,60.1,12.3z M60.3,13c0.1,0,0.1,0.1,0,0.1c-0.1,0.1-0.1,0.1-0.2,0.1
		c-0.1-0.1,0-0.2,0.1-0.1C60.3,13.2,60.4,13.1,60.3,13z M60.5,11.6c0,0.1-0.1,0.2-0.3,0.1c0-0.1,0-0.2,0.1-0.2
		C60.4,11.5,60.5,11.5,60.5,11.6z M60.6,12.8c-0.1,0-0.1,0-0.2-0.1c-0.1,0-0.1-0.1-0.2,0L60.6,12.8z M60.4,12.3h0.1v0.2h-0.2
		C60.3,12.4,60.4,12.4,60.4,12.3C60.4,12.4,60.4,12.4,60.4,12.3z M60.7,11.3c-0.1,0.1-0.1,0.1-0.2,0C60.4,11.3,60.5,11.3,60.7,11.3z
		 M60.5,13.8c0,0,0.1-0.1,0.1-0.1v0L60.5,13.8z M60.5,29c0-0.1,0-0.1,0-0.1c0,0,0-0.1,0-0.1L60.5,29z M60.7,12.9
		C60.7,12.9,60.6,13,60.7,12.9c-0.1,0.1-0.1,0.2-0.1,0.2L60.7,12.9z M60.6,12.8c0.1,0,0.1,0,0.2,0L60.6,12.8z M60.6,12.8
		c0,0,0,0.1,0,0.1L60.6,12.8z M60.7,12.9C60.8,13,60.8,13,61,13L60.7,12.9z M61.1,16.6c0-0.1,0.1-0.1,0.1,0c0,0.1,0,0.1,0,0.1
		C61.1,16.7,61.1,16.7,61.1,16.6C61.1,16.6,61.1,16.6,61.1,16.6z M61.2,4.8c-0.1-0.1-0.2-0.3-0.2-0.4c0-0.1,0-0.3,0-0.4L61.2,4.8z
		 M61.5,16.9c0-0.1,0-0.1,0-0.1C61.5,16.8,61.5,16.9,61.5,16.9c0,0.1,0,0.1,0,0.1C61.5,17.1,61.5,17,61.5,16.9z M62.1,14
		c-0.1-0.1-0.1-0.2-0.2-0.2c-0.1,0-0.1,0-0.3-0.1c0.1,0.3,0.1,0.3,0.2,0.3C61.9,13.9,62,13.9,62.1,14z M61.8,16.3
		c-0.1,0-0.1-0.1-0.1-0.2L61.8,16.3z M61.7,28.8c0,0,0.1,0,0.2,0c0.1,0,0.1,0,0.2,0H61.7z M61.7,31.1c0,0,0.1-0.1,0.2-0.2L61.7,31.1
		z M61.9,1.4C62,1.4,62,1.4,61.9,1.4c0,0.1,0,0.1-0.1,0.1c0,0-0.1,0-0.1,0C61.8,1.4,61.8,1.4,61.9,1.4z M62.2,13
		c-0.1,0-0.1,0-0.1-0.1c0,0-0.1-0.1-0.1-0.1V13c0,0.1,0,0.1,0.1,0C62,12.9,62,12.9,62.2,13C62.1,13.1,62.2,13.1,62.2,13z M62.1,32.1
		c0.1,0,0.2,0,0.2,0.1c0,0.1,0,0.2,0,0.2c-0.1-0.1-0.1-0.1-0.1-0.1C62.1,32.2,62.1,32.1,62.1,32.1z M62.3,29.6
		c0.1-0.1,0.1,0,0.1,0.1c0,0.1,0,0.2,0,0.2C62.3,29.9,62.3,29.8,62.3,29.6z M62.5,15.6c-0.1,0-0.2,0-0.3,0L62.5,15.6z M62.6,1.7
		c0,0,0.1,0,0.1,0c0,0,0.1,0,0.1,0c0,0.1-0.1,0.1-0.2,0.1S62.6,1.8,62.6,1.7z M63.1,15.9c0,0.1,0,0.2,0,0.3c0,0.1-0.1,0.1-0.2,0.2
		c-0.1,0-0.1,0-0.1-0.2c-0.1,0-0.2,0-0.2,0.1c-0.1,0,0-0.1,0.1-0.2C62.8,15.9,63,15.9,63.1,15.9z M62.9,2.2
		c-0.1,0.1-0.1,0.1-0.1,0.2c0,0.1,0,0.2-0.2,0.2v0.2L62.9,2.2z M62.8,13c0,0,0.1,0,0.2,0c0,0,0.1,0,0-0.1h-0.1
		C62.9,13,62.9,13,62.8,13C62.9,13,62.8,13,62.8,13z M63.1,3.1c-0.1,0-0.2,0.1-0.2,0.1L63.1,3.1z M63.4,17.2c-0.2,0-0.3-0.1-0.3-0.2
		L63.4,17.2z M63.2,16.8c0.1,0,0.1,0,0.1,0c0,0,0.1,0.1,0.1,0.1c0,0.1-0.1,0.1-0.1,0.1C63.2,17,63.2,16.9,63.2,16.8z M63.4,3.7
		l-0.1-0.2c0-0.1,0.1-0.1,0.1-0.2c0.1,0,0.1-0.1,0.2-0.1L63.4,3.7z M64,31.2c0.1,0,0.2,0.1,0.2,0.3h-0.2c0-0.1,0-0.1,0-0.1
		C64,31.3,64,31.2,64,31.2z M64,15.2c0.1,0,0.1,0,0.1,0L64,15.2z M64.9,2.7C64.8,2.7,64.8,2.7,64.9,2.7C64.7,2.7,64.7,2.7,64.9,2.7
		C64.9,2.6,65,2.6,64.9,2.7c0.1,0.1,0,0.1,0,0.1C64.9,2.8,64.9,2.7,64.9,2.7z M65,2.2h0.2v0.1H65V2.2z M65.7,2.3c0,0,0.1,0,0.1,0.1
		c0.1,0,0.1,0,0.1-0.1c0,0.1,0.1,0.2,0.2,0.2c0.1,0.1,0.1,0.2,0.1,0.3c-0.1,0.1-0.3,0.1-0.4,0.1s-0.3,0-0.5-0.1c0,0,0.1-0.1,0.1-0.2
		c0.1,0.1,0.1,0.1,0.2,0.1c0,0,0-0.1,0-0.2c0,0.1,0.1,0.1,0.1,0.1C65.6,2.5,65.7,2.5,65.7,2.3z M65.3,2.1
		C65.4,2.1,65.4,2.1,65.3,2.1c0.1,0,0.1,0.1,0.2,0.1c0,0,0,0,0,0c0,0,0,0,0,0.1h-0.2V2.1z M66.2,8.1V8H66v0.1l-0.1,0l0.1,0
		c0,0.1,0,0.1-0.1,0.1c0,0-0.1,0.1-0.1,0.2l-0.1,0l0,0.1c0,0.1,0.1,0.2,0.1,0.2c0,0,0-0.1,0.1-0.2l0.1,0l0-0.1c0.1,0,0.1,0,0.1-0.1
		C66.1,8.3,66.1,8.2,66.2,8.1l0,0.1L66.2,8.1z M65.8,8.5c0.1,0,0.2,0.1,0.3,0.1L65.8,8.5z M66,7.7c-0.1-0.1-0.2-0.1-0.2,0
		C65.9,7.8,65.9,7.8,66,7.7z M67,30.3l0.1,0c0,0.1,0,0.2,0,0.3c-0.1,0.1-0.1,0.1,0,0.2c0,0-0.1,0.1-0.2,0.1c-0.1,0.2,0,0.3,0,0.4
		c0.1,0.1,0.1,0.3,0.2,0.5c-0.1,0-0.1,0-0.1,0.1c0,0.1,0,0.1-0.1,0.1l0-0.1l-0.1,0c-0.2,0.1-0.3,0.1-0.5,0c-0.2-0.1-0.3-0.1-0.4-0.3
		c0.1-0.1,0.2-0.3,0.3-0.5c0.1-0.2,0.1-0.4-0.1-0.6c0.1,0,0.1,0,0.2,0c0.1,0,0.1,0,0.1,0.1c0-0.1,0.1-0.2,0.2-0.2
		c0.1-0.1,0.1-0.2,0.1-0.2c0-0.1,0-0.1,0.1,0c0,0,0.1,0,0.1,0L67,30.3z M66,8.1c0.1,0,0.2,0,0.3,0.1L66,8.1z M66.3,10.5L66.3,10.5
		c-0.1-0.2-0.1-0.2-0.1-0.1C66.1,10.6,66.1,10.6,66.3,10.5v0.1l0.1,0c0,0.1,0,0.2-0.1,0.3c0,0.1,0,0.2-0.1,0.3l-0.1,0l0,0.1h-0.1
		v0.2c0.1,0,0.1,0,0.1,0c0,0,0-0.1,0-0.1h0.1l0-0.1c0.1-0.1,0.1-0.2,0.2-0.4c0-0.1,0-0.2-0.1-0.3l0-0.1L66.3,10.5z M66.8,24.9
		c0.1,0,0.1,0,0.1,0c0,0,0.1,0,0.1,0c-0.1,0.1,0,0.1,0,0.2c0.1,0.1,0.1,0,0.1-0.1l0.1-0.1v-0.1c0,0,0.1,0,0.1,0c0,0,0,0,0.1,0
		c0-0.1,0-0.1,0-0.1c0,0,0.1,0,0.1-0.1c-0.1,0.1-0.2,0.1-0.2,0c0,0-0.1,0-0.1,0l-0.1,0l-0.1,0c-0.1,0-0.1,0-0.1,0c0,0,0,0-0.1,0
		h-0.1v0.1c0,0-0.1-0.1-0.1-0.1c-0.1,0-0.1,0-0.1,0.1c0.1,0,0.1,0,0,0.1c-0.1,0.1-0.1,0.1,0,0.2l-0.1,0l0,0.1c-0.1,0-0.2,0-0.2,0.1
		c0,0.1-0.1,0.1-0.2,0v0.3c0,0,0.1,0.1,0.3,0.1c0.1,0,0.2,0,0.2-0.2l0.1,0l-0.1,0c0-0.1,0.1-0.1,0.2,0
		C66.9,25.2,66.9,25.1,66.8,24.9L66.8,24.9L66.8,24.9z M66.1,11.3c0.1,0.1,0.2,0.1,0.2,0.1L66.1,11.3z M66.4,9.3
		c-0.1,0-0.2,0-0.1-0.1c0,0,0-0.1,0-0.1c-0.1,0.1-0.1,0.1,0,0.2C66.3,9.5,66.3,9.5,66.4,9.3z M66.4,26.1
		C66.3,26.1,66.3,26.1,66.4,26.1c-0.1,0.1-0.1,0.1-0.1,0.1c0.1-0.1,0.1-0.1,0.2,0c0.1,0.1,0.1,0.1,0.1,0c-0.1,0-0.1,0-0.1,0
		c0,0,0,0,0.1,0c0,0,0.1,0,0.1-0.1c0,0,0-0.1-0.1-0.1c-0.1,0-0.1,0-0.1-0.1c0,0-0.1-0.1-0.3-0.1L66.4,26.1L66.4,26.1L66.4,26.1z
		 M66.3,26.1c0.1,0,0.2-0.1,0.2-0.1L66.3,26.1z M66.6,25.2c-0.2,0-0.3,0-0.3,0.1L66.6,25.2z M67.5,12.2c0.2-0.1,0.2-0.1,0.2-0.1
		c0,0-0.1,0-0.3-0.1c0,0,0.1-0.1,0.1-0.2c-0.1,0-0.2,0.1-0.2,0.1l-0.1,0L67,12c-0.1,0.1-0.1,0.1-0.1,0.2l-0.1,0l-0.1,0
		c-0.1,0-0.1,0.1-0.1,0.1c0,0,0,0.1-0.1,0.1l0-0.1l0,0.1c-0.1,0-0.1,0-0.1,0c0,0,0,0.1,0,0.1c0,0,0,0.1,0.1,0.1c0,0,0.1,0,0.1-0.1
		l0.1,0l0-0.1c0,0,0.1,0,0.1-0.1c0,0,0-0.1,0.1-0.1l0.1,0.1h0.1c0,0,0,0,0.1,0l0.1,0.1l0.1,0c0,0.1,0.1,0.1,0.1,0.1
		c0.1,0,0.1-0.1,0.1-0.2L67.5,12.2L67.5,12.2z M66.5,12.1c0,0.1,0,0.2,0.1,0.3L66.5,12.1z M66.5,24.9c0,0,0.1,0,0.1,0
		c0,0,0.1-0.1,0.2-0.1L66.5,24.9z M66.6,11.7C66.7,11.6,66.7,11.7,66.6,11.7c-0.1,0.1-0.1,0.2,0.1,0.2c0,0,0-0.1,0.1-0.2
		c0-0.1,0-0.1,0-0.1C66.7,11.6,66.7,11.6,66.6,11.7C66.6,11.6,66.6,11.6,66.6,11.7z M67,9.6c0-0.1,0-0.2-0.1-0.2c-0.1,0-0.2,0-0.1,0
		c0,0,0.1,0,0.1,0.1C66.9,9.6,66.9,9.6,67,9.6z M66.8,12.2c0,0,0-0.1,0-0.1L66.8,12.2z M66.9,31.8c-0.1,0.1-0.1,0.2,0,0.2
		c0.1,0.1,0.1,0.2,0.1,0.3L66.9,31.8z M66.8,1.2c0,0.1,0,0.2,0,0.2c0,0.1,0,0.2,0.1,0.2L66.8,1.2z M66.8,24.9c0-0.1,0-0.1,0-0.2
		V24.9z M67,26c0.1-0.1,0.2-0.1,0.2-0.1s0.1,0,0.2-0.1c-0.1,0-0.1,0-0.1-0.1c0-0.1-0.1-0.1-0.2,0c0,0-0.1,0.1-0.1,0.1
		C66.9,26,66.9,26,67,26z M67,9.1h0.2c0-0.1,0-0.2-0.1-0.2C67.1,8.9,67.1,9,67,9.1C67,9,67,9,67,9.1z M67,30.3
		c0.1-0.1,0.1-0.1,0.2-0.2c0-0.1,0.1-0.1,0.1-0.2L67,30.3z M67.2,12.1c-0.1,0-0.1,0.1-0.2,0.2L67.2,12.1z M67.2,12.1
		c-0.1,0-0.1-0.1-0.1-0.1c0,0,0-0.1,0-0.1L67.2,12.1z M67.2,29.8c-0.1-0.2,0-0.3,0.1-0.5c0.1-0.2,0.3-0.2,0.4-0.2L67.2,29.8z
		 M67.3,24.9c-0.1,0-0.1-0.1-0.1-0.1c0,0,0-0.1,0-0.1L67.3,24.9z M67.2,29.8c0.1,0,0.2,0,0.4-0.1L67.2,29.8z M67.5,12.3
		c-0.1,0-0.1,0-0.1-0.1c0,0-0.1,0-0.1-0.1L67.5,12.3z M67.6,23.8c-0.1,0-0.1,0-0.2,0c-0.1,0-0.1,0-0.2-0.1L67.6,23.8z M67.5,31.4
		c0.1-0.1,0.1-0.1,0.1-0.1c0,0,0,0,0,0.1c0,0,0,0,0,0.1C67.6,31.5,67.5,31.4,67.5,31.4z M67.6,23.8l0-0.1c0.1,0,0.2,0,0.2,0.1
		L67.6,23.8l0,0.2C67.6,23.9,67.6,23.9,67.6,23.8L67.6,23.8z M67.8,14c-0.1,0-0.1-0.1-0.1,0c0,0-0.1,0.1-0.1,0.1c0,0.1,0,0.1,0.1,0
		C67.8,14.1,67.9,14.1,67.8,14z M67.8,24c0,0,0-0.1-0.1-0.2L67.8,24z M67.8,22.5c0-0.1,0-0.1,0.1-0.1c0.1,0,0.1,0,0.1-0.1
		c-0.1,0-0.1,0-0.2,0.1C67.7,22.4,67.7,22.5,67.8,22.5z M67.8,26.4C67.8,26.4,67.8,26.4,67.8,26.4c0-0.1-0.1-0.1-0.1-0.2L67.8,26.4z
		 M67.8,29.1c0-0.2,0.2-0.3,0.3-0.3L67.8,29.1z M67.8,29.1C67.8,29.1,67.8,29.1,67.8,29.1L67.8,29.1z M67.8,29.1c0,0.1,0,0.2,0,0.3
		c0,0,0,0,0.1,0.1c0,0,0.1,0,0.1,0.1L67.8,29.1z M67.8,3.1C67.9,3,68,2.9,68,2.9L67.8,3.1z M67.8,29.1c0.2,0,0.3,0.1,0.3,0.1
		L67.8,29.1z M68,17c0-0.1,0-0.1,0.1-0.2h-0.2C67.9,16.9,67.9,17,68,17z M67.9,21c0.1,0.1,0.2,0.1,0.3,0.1L67.9,21z M68,29.5
		c0,0,0.1,0,0.1,0L68,29.5z M68,29.5c0.1,0.1,0.1,0.2,0.1,0.3c-0.1,0.1-0.1,0.2,0,0.3L68,29.5z M68.2,24.8c0,0.1,0.1,0.1,0.1,0.2
		c0,0,0,0,0.1,0.1c0,0,0.1,0,0.1,0.1L68.2,24.8z M68.9,22.9c0,0.2-0.1,0.3-0.2,0.3c-0.1,0-0.3,0-0.4,0c-0.1-0.1,0-0.2,0.2-0.3
		C68.6,22.8,68.8,22.8,68.9,22.9z M68.5,8.9c0,0-0.1,0-0.1,0c0,0-0.1,0.1-0.1,0.1c-0.1,0,0,0.1,0.1,0C68.5,9,68.5,8.9,68.5,8.9z
		 M68.4,24.5c0,0,0.1,0,0.1-0.1c0,0,0.1-0.1,0.2-0.1L68.4,24.5z M68.7,11.6c0,0.1,0,0.1,0.1,0.2c0,0.1,0,0.1-0.1,0.2
		c0,0-0.1,0-0.2-0.1L68.7,11.6z M68.5,24.7c0-0.1,0-0.1,0.1-0.1s0.1,0.1,0.1,0.2c0,0-0.1,0-0.1,0C68.6,24.8,68.6,24.7,68.5,24.7z
		 M68.9,2.7c0,0.1-0.1,0.2-0.3,0.1c0-0.1,0-0.2,0.1-0.2C68.8,2.6,68.9,2.6,68.9,2.7z M68.7,9.4c0,0,0-0.1,0-0.3V9.4z M68.7,11.1
		c0-0.1,0-0.2,0-0.3V11.1z M68.7,21.6C68.7,21.6,68.7,21.6,68.7,21.6c0-0.1,0-0.1,0-0.1L68.7,21.6z M70.9,28.6c-0.4,0-0.8-0.1-1.2,0
		c-0.4,0-0.7,0-1.1,0L70.9,28.6z M69,29.8C69,29.8,69,29.8,69,29.8c-0.2,0-0.2,0.1-0.2,0.1c-0.1-0.1-0.1-0.1,0-0.1
		C68.9,29.7,68.9,29.7,69,29.8z M68.8,7.3c0,0.1,0,0.1-0.1,0.2L68.8,7.3z M68.8,12.5l0.1-0.1L68.8,12.5z M68.8,4.1
		c0,0,0.1,0,0.1,0.1L68.8,4.1z M68.9,7.7c0.1,0,0.2,0.2,0.2,0.4C69,8,68.9,7.9,68.9,7.7z M69.7,3.5c0.1,0.1,0,0.2-0.1,0.2
		c-0.1,0-0.2,0-0.2,0.1c-0.1,0-0.1-0.1-0.1-0.1c0-0.1-0.1-0.1-0.2-0.1c0,0,0.1-0.1,0.1-0.1c0,0,0.1-0.1,0.1-0.2c0,0.1,0.1,0.1,0.1,0
		c0,0,0.1,0,0.2,0l0,0.1L69.7,3.5z M69.7,12.9v0.3c-0.2,0.1-0.3,0.1-0.5,0C69.2,12.8,69.4,12.8,69.7,12.9z M69.3,11.7
		c0.1,0.1,0.2,0.1,0.2,0.2c0,0.1,0,0.2-0.2,0.2c0.1-0.1,0.1-0.1,0-0.2C69.3,11.9,69.3,11.8,69.3,11.7z M69.3,7.7
		c0.1,0,0.2,0,0.2,0.2c-0.1,0-0.1,0-0.1,0.1c-0.1,0-0.1,0-0.1-0.1C69.4,7.9,69.4,7.8,69.3,7.7z M69.5,8.3c0,0,0.1-0.1,0.1-0.1
		c0.1,0,0.1,0,0.1,0.1c-0.1,0.1,0,0.1,0,0.2L69.5,8.3z M69.7,3.3l-0.1,0c-0.1-0.1-0.1-0.2,0.2-0.2C69.9,3,70.1,3,70.2,3
		c0,0.1,0,0.1,0.1,0.1c0,0,0,0.1,0,0.2c0,0.1-0.1,0.1-0.2,0.1c-0.1,0-0.1,0-0.1,0.1c-0.1-0.1-0.1-0.2-0.2-0.1
		c-0.1,0.1-0.1,0.1-0.2,0.1L69.7,3.3z M69.6,3.5C69.6,3.5,69.6,3.4,69.6,3.5c0.1-0.1,0.1-0.1,0.2-0.1L69.6,3.5z M70.2,8.3
		c-0.1,0.1-0.1,0.1-0.2,0C70,8.2,70.1,8.2,70.2,8.3z M70.1,8.9c0,0,0.1,0,0.2,0c0.1,0.1,0.1,0.1,0.1,0.2c-0.1,0-0.1,0-0.2-0.1
		C70.2,9,70.2,8.9,70.1,8.9z M70.8,5.1c0.1-0.1,0.1-0.1,0.2,0c0,0.1,0,0.2-0.2,0.1C70.8,5.2,70.8,5.2,70.8,5.1z M72,28.6
		c0.1,0,0.2,0,0.3,0c0.1,0,0.2,0,0.3,0L72,28.6z"/>
	<path class="st0" d="M69.6,5.1c0.1,0,0.1,0.1,0.1,0.2c0,0.1,0,0.1,0.1,0.1c-0.1,0.1-0.1,0.1-0.2,0C69.6,5.3,69.5,5.2,69.6,5.1z
		 M69.6,4.3h0.2c0,0.1,0,0.1,0,0.1c-0.1,0-0.1,0-0.2,0C69.6,4.4,69.6,4.4,69.6,4.3C69.6,4.4,69.6,4.4,69.6,4.3z M69.9,5
		c0,0,0-0.1,0-0.2L69.9,5z M84.5,1.9C84.6,2,84.6,2,84.7,2c0,0,0.1,0,0.2,0c0,0.1-0.1,0.1-0.1,0.1c0,0.1,0,0.1,0,0.2
		c0.1-0.1,0.1-0.1,0.1,0c0,0.1,0,0.1,0,0.2c0,0.1-0.1,0.2-0.1,0.3c-0.1,0.1-0.1,0.1-0.2,0.1C84.7,2.9,84.7,3,84.7,3
		c0,0.1-0.1,0.1-0.2,0.1c0.1,0.1,0.2,0.2,0.4,0.4C85,3.8,85,4,85,4.2c0.2,0,0.3,0.1,0.4,0.2c0.1,0.1,0.2,0.2,0.4,0.2l0,0.1l0.1,0
		c0,0,0.1,0.1,0,0.1c0,0,0,0.1,0,0.1l-0.1,0l0.1,0c0,0.1-0.1,0.1-0.2,0.3c0.1,0,0.1,0,0.1,0c0,0-0.1,0-0.1,0v0.2
		c0.1,0,0.2-0.1,0.2-0.2c0.1-0.1,0.1-0.2,0-0.3H86V4.9c0,0,0-0.1,0-0.2c0-0.1,0-0.1-0.1-0.1l0-0.1l0,0c0,0-0.1-0.1-0.1-0.2
		c0-0.1-0.1-0.1-0.1,0c-0.1,0-0.1-0.1,0-0.2s0.2-0.2,0.1-0.3c-0.2,0.1-0.2,0.1-0.1-0.1c0,0,0-0.1-0.1-0.1c0,0-0.1,0-0.2,0.1
		c-0.1,0-0.1,0-0.1,0c0,0-0.1-0.1-0.1-0.1l0-0.1l0-0.1h0.1c0-0.1,0-0.1-0.1-0.1c0-0.1,0-0.1,0.1-0.1c0.1,0,0.1,0,0.1-0.1h2.5
		c0,0.5,0.1,0.9,0.2,1.4c0.1,0.4,0.1,0.9,0.1,1.3l-0.1,0l0,0.1c-0.1,0.1-0.1,0.1-0.1,0.2c0,0.1,0,0.1,0.1,0.1l0.1,0l0.1,0
		c0,0.1,0,0.2,0.1,0.3c0,0.1,0,0.1-0.2,0.2c0.1,0,0.2,0,0.2,0.1c0,0.1,0,0.2,0,0.1c0.1,0.4,0.2,0.8,0.2,1.2c0,0.4,0.1,0.8,0.1,1.2
		c-0.4,0-0.7,0.1-0.9,0.1c-0.3,0-0.5,0-0.9,0c0.1,0.1,0.3,0.2,0.6,0.1c0.3-0.1,0.6-0.1,0.8,0c0,0.2,0,0.5,0,0.8c0,0.3,0,0.7,0,1
		s0,0.7,0,1c0,0.3,0.1,0.6,0.2,0.8c-0.2,0.1-0.3,0.2-0.2,0.4c0,0.2,0.1,0.4,0.1,0.5l-0.1,0l0,0.1c-0.1,0.1-0.1,0.2,0,0.2
		c0,0,0-0.1,0-0.1c0,0,0,0,0-0.1l0.1,0l0-0.1c0-0.1,0.1-0.1,0.2-0.1c0.1,0,0.2,0,0.1-0.1c0,0,0.1,0.1,0.1,0.1c0,0,0.1,0.1,0.2,0.1
		v0.3c-0.1,0-0.2,0.1-0.2,0.1c-0.1,0-0.1,0-0.2-0.1c-0.1,0-0.2,0-0.2,0.1c0,0.1,0,0.1-0.1,0.1c0,0,0,0.1-0.1,0.1
		c0,0-0.1,0.1-0.2,0.1c0,0.7,0,1.5,0,2.2c0,0.8,0,1.4,0.1,1.8c-0.1,0.1-0.2,0.1-0.3,0c0,0.1,0,0.1,0.2,0.1c-0.1,0.1-0.2,0.1-0.3,0
		c-0.1,0-0.2,0-0.2,0.1c-0.1,0-0.2,0-0.2-0.1c0-0.1,0-0.1-0.1-0.2c-0.1,0.1-0.2,0.2-0.3,0.3c-0.1,0.1-0.2,0.2-0.2,0.3l-0.1,0l0,0.1
		c-0.1,0.1-0.2,0.3-0.3,0.6c-0.1,0.2-0.1,0.4-0.2,0.7v0v0c-0.1,0.1-0.1,0.1,0,0.2c0.1,0.1,0,0.1-0.1,0c0,0.2,0,0.3-0.1,0.4
		c0,0.1-0.1,0.3-0.1,0.5c0.1,0,0.2,0.1,0.2,0.2s0,0.2,0.1,0.3c0.1,0,0.2,0,0.2-0.1c0,0,0.1-0.1,0.2-0.1c-0.1-0.2,0-0.3,0.1-0.3
		c0.1,0,0.2-0.1,0.2-0.3c-0.1-0.1-0.1-0.3-0.1-0.3c0-0.1,0-0.1-0.2-0.2c0.1,0,0.1-0.1,0.1-0.2s0-0.2,0-0.4c0-0.1,0-0.3,0-0.4
		c0-0.1,0.1-0.2,0.1-0.3l0.1,0l0-0.1c0.1,0.1,0.2,0.1,0.2,0c0,0,0.1,0,0.1,0c0,0.1,0,0.2,0.1,0.3c0.1,0.1,0.1,0.1,0.2,0.1
		c0.1,0.1,0.1,0.1,0.2,0.2c0.1,0.1,0.1,0.2,0.1,0.3c0.1,0,0.1,0,0.1-0.1c0-0.1,0-0.2,0.1-0.2c0.2,0,0.4-0.1,0.5-0.1
		c0.1-0.1,0.3-0.1,0.5-0.1c0,0.1,0.1,0.2,0.2,0.3c0.1,0.1,0.1,0.2,0.1,0.4c-0.1,0-0.2-0.1-0.3-0.2c0-0.1-0.1-0.1-0.3-0.1
		c-0.1,0.2,0,0.3,0.1,0.3c0.1,0,0.1,0.1,0.1,0.2c-0.1,0-0.2,0-0.3,0c-0.1,0-0.1-0.1-0.2-0.1c0,0.2,0.1,0.4,0.2,0.4
		c0.1,0.1,0.2,0.2,0.3,0.3c0,0.1-0.1,0.1-0.2,0.1c-0.1,0-0.1,0,0,0.1c-0.1,0-0.1,0-0.2,0c-0.1,0.1-0.2,0.1-0.3,0
		c0.1,0.2,0.2,0.3,0.3,0.3c-0.1,0.1-0.1,0.2-0.2,0.2c-0.1,0-0.2,0-0.3,0.1c0,0.1,0,0.2,0.1,0.5c0,0.3,0,0.6,0.1,1c0,0.4,0,0.7,0,1
		c0,0.3,0,0.5-0.1,0.6c0,0.1-0.1,0.1-0.1,0c-0.1,0,0,0,0.1,0.2c-0.2,0-0.3,0-0.3-0.1c-0.1-0.1-0.1-0.1-0.2-0.2c0,0.1,0,0.2,0.1,0.2
		c0,0.1,0,0.2-0.1,0.2c0,0.1,0,0.1,0.1,0.1c0.1,0,0.1,0,0.1,0.1c0,0.1,0,0.2-0.1,0.1c-0.1,0-0.1,0-0.2-0.1v0.2l-0.1,0l0,0.1
		C87.7,26,87.6,26,87.5,26c-0.1,0-0.2,0-0.3,0.2c-0.1-0.2-0.3-0.3-0.5-0.4c-0.2,0.1-0.3,0.2-0.4,0.3c-0.1,0.1-0.1,0.3-0.2,0.4
		C86,26.7,86,26.8,85.9,27c-0.1,0.2-0.1,0.3-0.2,0.5c0.1,0,0.2,0,0.2,0.1c0,0.1,0,0.1-0.1,0c0,0.1,0,0.2,0.1,0.2
		c0.1,0,0.2,0.1,0.2,0.2l-0.1,0l0,0.1H86c-0.1,0-0.1,0.1-0.1,0.1c0,0,0,0-0.1,0c0,0.2,0,0.3,0.1,0.3c-0.1,0.1-0.2,0.1-0.3,0.1
		c-0.2,0-0.3,0-0.4,0l0-0.1l-0.1-0.1c0,0,0-0.1,0-0.1c0-0.1,0-0.1-0.1-0.1c-0.1,0.1-0.1,0.1-0.1,0.1s0,0,0,0c0,0,0,0,0-0.1
		c0,0,0,0-0.1,0c-0.1,0-0.1,0-0.1,0c0.1,0.1,0.1,0.1,0,0c-0.1,0-0.1,0-0.1,0.1c0,0,0.1,0,0.1,0.1l-0.1,0.1v0.1c-0.5,0-0.9,0-1.3,0
		c-0.4,0-0.7,0-1.2,0c0,0-0.1,0-0.1,0.1c0,0.1,0,0.1-0.1,0.1c-0.1,0-0.2-0.1-0.3-0.3c-0.2,0-0.3,0.1-0.4,0c-0.1,0-0.2,0-0.5,0
		c0-0.4,0-0.7,0.1-0.9c0-0.1-0.1-0.1-0.1,0c-0.1,0.1-0.1,0.1-0.2,0c0-0.1,0-0.1,0-0.2c-0.1,0-0.1-0.1,0-0.2c0,0,0.1,0,0.2,0
		c0-0.1,0-0.2,0-0.2c0,0-0.1-0.1-0.1-0.1s-0.1,0-0.1-0.1c0,0,0-0.1,0.1-0.2l0,0.1l0.1-0.1c0.1-0.6,0.1-1.3,0.1-2c0-0.7,0-1.5,0-2.2
		c0.3-0.5,0.6-1,1-1.6c0.3-0.5,0.6-1.1,1-1.6c-0.4,0.5-0.8,1-1.1,1.5c-0.3,0.5-0.7,1-1.1,1.5l0-0.1l-0.1,0c0-0.6,0-1.1,0.1-1.6
		c0.1-0.5,0.1-1,0.1-1.6c0,0,0.1,0,0.1-0.1c0,0,0.1-0.1,0.2,0v-3.3c0,0,0.1,0,0.1,0c0,0,0.1,0,0.1,0c0-0.4,0-0.8,0-1.2
		c0.1-0.4,0.1-0.8,0.1-1.1h0.2l0.1,0.1l0.1,0v0.2c0,0,0.1,0.1,0.2,0.1c0,0,0.1,0,0.2,0c0,0,0.1-0.1,0.1-0.1c0,0,0-0.1,0-0.2h-0.4
		l0-0.1l-0.1,0c0-0.1,0-0.2-0.1-0.2c0,0,0-0.1,0-0.2c-0.1,0-0.2,0-0.3,0c-0.1,0-0.1,0-0.2,0.1h0h-0.1V9.4h-1.5c0,0,0.1-0.1,0.1-0.1
		c0,0,0.1-0.1,0.1-0.2C79.5,9,79.4,9,79.3,9c-0.1,0-0.2,0.1-0.2,0.1c0,0.1,0,0.1,0,0.1c0,0,0,0.1,0,0.1c-0.2,0-0.5,0-0.7,0
		c-0.3,0-0.4,0.1-0.5,0.3c-0.1,0-0.1,0-0.1,0c0,0,0-0.1-0.1-0.1l0-0.1l-0.1,0c-0.1,0-0.1-0.1-0.3-0.1c-0.1,0-0.3,0-0.4,0
		c0-0.1,0.1-0.2,0.1-0.3c0-0.1,0-0.2-0.2-0.2l0-0.1l-0.1,0V8.6c-0.1,0-0.1-0.1-0.3-0.1c-0.1,0-0.2,0-0.2,0.1l-0.1,0l0,0.1
		c-0.1,0-0.1,0-0.1,0.1c0,0.1,0,0-0.1-0.1c-0.1,0.1-0.1,0.2,0,0.2c0,0.1,0,0.2,0,0.4h-0.7c-0.1,0-0.1,0.1-0.1,0.2
		c0,0.1,0,0.1-0.1,0.1c0-0.1,0-0.2,0-0.2c-0.1,0-0.2,0-0.3,0c-0.1,0-0.3,0-0.4,0c-0.2,0-0.3,0-0.4,0c-0.1-0.2-0.2-0.3-0.3-0.3
		c-0.1,0-0.3-0.1-0.5-0.2c-0.1,0.1-0.1,0.1,0,0.2c0.1,0.1,0.1,0.2,0.2,0.2c-0.1,0.1-0.3,0.1-0.4,0c-0.2,0-0.3,0-0.4,0
		c-0.1,0.1-0.1,0.1,0,0.1c0.1,0.1,0,0-0.1-0.1c-0.1,0-0.2-0.1-0.4-0.1c-0.2,0-0.4,0.1-0.4,0.3c-0.1-0.1-0.2-0.1-0.2-0.1
		c0,0.1-0.1,0-0.2-0.1c0,0,0.1,0.1,0.1,0.2c-0.1,0-0.1-0.1-0.2-0.1c-0.1,0-0.1,0-0.2,0c-0.1,0-0.1,0-0.2,0c-0.1,0-0.1-0.1-0.2-0.2
		l0-0.1l0-0.1c0-0.1,0-0.1,0-0.1c0,0,0.1-0.1,0.1-0.1c0,0,0.1,0,0,0.1c0,0,0,0,0,0.1c0,0,0.1-0.1,0.1-0.1s0-0.1,0.1-0.2
		c0,0-0.1-0.1-0.1-0.1c0,0-0.1-0.1-0.1-0.1c-0.1,0-0.2,0-0.3,0.1c-0.1,0.1-0.1,0.1-0.3,0.2V8.7l-0.1,0C70,8.4,70,8.1,70,7.8
		c0.1-0.3,0.1-0.5,0-0.7c0,0-0.1,0-0.1,0c0,0-0.1,0-0.1,0c0,0,0-0.1,0.1,0C70,7,70,7,70,7c0.1-0.2,0.1-0.4,0-0.6c0-0.2,0-0.5,0-0.7
		V4.2c0.2,0,0.3-0.1,0.4-0.1C70.5,4,70.6,4,70.7,4l0.1,0l0-0.1h0.1l0,0.1h0.1c0,0,0.1,0,0,0.1c0,0,0,0,0,0.1c0.2,0,0.4,0,0.5,0
		c0.1,0,0.3,0,0.4,0c0,0,0-0.1-0.1-0.1c-0.1,0-0.1-0.1,0-0.2c-0.1,0-0.2,0-0.2,0c0,0-0.1,0.1-0.1,0.1c0-0.1,0-0.1-0.1-0.1l-0.1-0.1
		h-0.1c0-0.1,0-0.1-0.1,0c-0.1,0.1-0.1,0.1-0.1,0c-0.1-0.1,0-0.2,0.1-0.2c0.1,0,0.2-0.1,0.2-0.1c0.6,0,1.3,0,2.1,0
		c0.8,0,1.6,0,2.3-0.1v0.1h0c0.1,0,0.1,0,0.1-0.1h0.1l0-0.1C75.9,3.1,76,3,76,3c0-0.1,0-0.1,0.1-0.2c0.1,0.1,0.2,0.1,0.2,0.1
		c0,0,0,0,0.2-0.1c0,0.2,0,0.4-0.1,0.4l-0.1,0l0,0.1c-0.2,0.1-0.2,0.1-0.1,0.1c0.1,0.1,0.2,0,0.3-0.1l0.1,0l0.1,0
		c0.1,0,0.3,0,0.5,0.1c0.2,0.1,0.3,0,0.4-0.1h0.1l0-0.1h2.4c0.1,0,0.1,0,0-0.1c0,0,0-0.1,0-0.1c0.1,0,0.1,0,0.1,0c0,0.1,0,0.1,0,0.1
		h3.4c0.1-0.2,0.1-0.4,0.3-0.6c0.1-0.2,0.3-0.2,0.5-0.1c0.1,0,0.1-0.1,0-0.2c-0.1-0.1-0.1-0.1,0-0.2c0.1,0.1,0.1,0.1,0.1,0.1
		c0,0,0,0,0-0.2L84.5,1.9L84.5,1.9z M70.1,3.5h0.3c0,0-0.1,0-0.1,0.1c0,0-0.1,0.1-0.1,0.1C70.2,3.7,70.1,3.6,70.1,3.5z M70.1,8.8
		c0,0,0-0.1,0-0.1L70.1,8.8z M70.2,9.3c0.1,0,0.1-0.1,0.2-0.1c0.1,0,0.2,0,0.2,0L70.2,9.3z M70.8,4.1c0-0.1-0.1-0.1-0.1-0.2
		c0,0-0.1-0.1-0.1-0.1L70.8,4.1z M71.1,3.9C71,4,70.9,4,70.9,4.1L71.1,3.9z M71.1,3.9l-0.1,0C70.9,3.8,71,3.8,71.1,3.9
		c-0.1-0.1,0-0.1,0-0.1l0.1,0.1l0.1,0c0,0.1,0,0.2-0.1,0.2c-0.1,0-0.1,0.1-0.1,0.1c0,0,0-0.1,0-0.1c0,0,0,0,0-0.1L71.1,3.9z M71.2,6
		c0.1-0.2,0.1-0.2,0-0.2C71.1,5.8,71.1,5.9,71.2,6z M71.2,3.8C71.2,3.8,71.2,3.8,71.2,3.8c0,0.1,0,0.1,0,0.1L71.2,3.8z M71.2,10.3
		c0.1,0,0.2,0,0.2,0c0,0,0,0.1,0,0.1c0,0-0.1,0-0.1,0C71.2,10.5,71.2,10.4,71.2,10.3z M72.2,10.2c-0.1,0.1-0.1,0.1,0,0.1
		c0.1,0,0.1,0.1,0.1,0.2h0.4v0.3c-0.1-0.1-0.1-0.1-0.1-0.1c0,0-0.1,0.1-0.2,0.1c0,0.1,0.1,0.1,0.1,0c0-0.1,0.1-0.1,0.2,0
		c0,0.1-0.1,0.1-0.1,0.1c0,0,0,0.1,0,0.1c0,0,0,0.1,0.1,0.1c0,0,0,0.1,0,0.2c-0.2-0.1-0.4-0.2-0.5-0.3c-0.2-0.1-0.3-0.3-0.2-0.5
		c-0.1,0.1-0.2,0-0.2-0.1c0-0.2-0.1-0.2-0.2-0.2c0.1-0.2,0.1-0.3,0-0.3c-0.1,0-0.2-0.1-0.2-0.1c0,0,0.1-0.1,0.2-0.1
		c0.1,0,0.1-0.1,0.1-0.2c0.2,0.2,0.4,0.3,0.7,0.3c0,0.1-0.1,0.2-0.1,0.2c0,0,0,0.1,0,0.2C72.4,10.2,72.3,10.3,72.2,10.2
		C72.2,10.3,72.2,10.3,72.2,10.2z M72,8.3c0-0.1-0.1-0.2-0.3-0.2c0,0.1,0,0.2,0.1,0.2C71.9,8.4,71.9,8.3,72,8.3z M72.1,3.2
		c-0.1,0.1-0.1,0.1-0.2,0C71.8,3.1,71.9,3.1,72.1,3.2z M72,6.8C72,7,72,7.2,72.2,7.3c0-0.1,0-0.2-0.1-0.2S72.1,7,72.2,6.9
		c-0.1,0-0.1,0-0.1-0.1c0,0,0-0.1-0.1-0.1C72.1,6.8,72,6.8,72,6.8z M72.1,3.2c0-0.1,0-0.1,0.2-0.1c0.1,0,0.2,0,0.2,0
		c0,0.1-0.1,0.1-0.2,0.1C72.3,3.2,72.2,3.2,72.1,3.2z M73.4,3.2c0.1,0,0.2,0,0.2,0c0.1,0,0.2,0,0.2,0H73.4z M74.2,11.7
		c-0.1,0.1-0.1,0.1-0.1,0.1c0,0-0.1,0-0.1-0.1c0,0-0.1,0-0.1,0c0,0,0,0,0,0.1c0,0-0.1-0.1,0-0.1c0,0,0.1-0.1,0.1-0.1
		c0.1,0,0.1,0,0.2,0C74.2,11.6,74.2,11.6,74.2,11.7z M73.8,11.9c0.1,0.1,0.1,0.1,0,0.2C73.8,12.1,73.8,12.1,73.8,11.9z M74,4
		c-0.1,0-0.1,0-0.1,0C73.9,4,73.9,4,74,4C74,4,74,4,74,4C74,4,74,4,74,4z M74.4,10.2h0.1v0.1h-0.1V10.2z M74.8,3.2
		c-0.1,0.1-0.1,0.1-0.2,0C74.5,3.1,74.6,3.1,74.8,3.2z M75.3,2.9c0,0.1,0,0.2-0.2,0.2c-0.1,0-0.2,0-0.3-0.1c0-0.2,0.1-0.3,0.3-0.3
		c-0.1,0.1-0.1,0.2,0,0.1C75.2,2.8,75.2,2.8,75.3,2.9z M75.1,3.2c0.1,0.1,0.2,0.1,0.3,0c0.1,0,0.2,0,0.3,0L75.1,3.2z M75.4,9.8
		c0.2,0.1,0.2,0.2,0.2,0.4c-0.1,0-0.1-0.1-0.1-0.2C75.5,10,75.5,9.9,75.4,9.8z M75.7,3.2C75.7,3.3,75.7,3.3,75.7,3.2
		c0,0.1,0,0.1,0,0.2L75.7,3.2z M75.7,3.2c0,0,0.1,0,0.3,0L75.7,3.2z M75.8,9.9C75.9,9.9,75.9,9.9,75.8,9.9C75.9,10,76,10,76,10
		c0,0.1,0,0.1-0.1,0.1C75.8,10,75.8,10,75.8,9.9z M75.9,10.4c0,0,0.1,0.1,0.1,0.2c0,0.1,0,0.2-0.1,0.1c0,0,0.1-0.1,0-0.1
		C75.9,10.6,75.9,10.6,75.9,10.4z M76.1,9.6c0,0,0.1,0.1,0.1,0.1c0,0.1,0,0.1,0,0.1c-0.1,0-0.2-0.1-0.2-0.1C76,9.8,76,9.8,76.1,9.6
		C76.1,9.7,76.1,9.7,76.1,9.6z M76,10.2c0.1,0.1,0.2,0.2,0.2,0.4c-0.1,0-0.1-0.1-0.1-0.2C76,10.4,76,10.3,76,10.2z M76.5,3.3
		c-0.1,0-0.2,0-0.3-0.1L76.5,3.3z M76.8,8.9c-0.2,0-0.3-0.1-0.5-0.2L76.8,8.9z M76.5,3.3c0.2,0,0.4-0.1,0.5,0c0.2,0,0.4,0,0.6,0
		H76.5z M76.5,11c0-0.1,0.1-0.1,0.1,0c0,0.1,0.1,0.2,0.1,0.2c0,0-0.1,0.1-0.1,0c0,0-0.1,0-0.1,0C76.6,11,76.6,11,76.5,11z M76.8,8.9
		c0,0.1,0,0.2-0.1,0.3L76.8,8.9z M76.8,8.9C76.8,8.8,76.9,8.8,76.8,8.9c0.1-0.1,0.1-0.1,0.2-0.2L76.8,8.9z M77.1,9.9
		C77.2,9.8,77.2,9.8,77.1,9.9c0.1-0.1,0.2-0.1,0.2-0.2L77.1,9.9z M77.5,9.6L77.5,9.6c0,0.1-0.1,0.1-0.1,0.2c0,0-0.1,0-0.2,0l0-0.1
		l-0.1,0c-0.1,0,0-0.1,0.2-0.2C77.6,9.4,77.6,9.4,77.5,9.6L77.5,9.6z M77.3,20.2L77.3,20.2C77.4,20.1,77.4,20.2,77.3,20.2
		C77.4,20.2,77.4,20.3,77.3,20.2c0,0.1,0,0.1-0.1,0.1C77.2,20.3,77.2,20.3,77.3,20.2z M77.5,8.9c0.1,0,0.2,0,0.2,0.1
		c0,0,0.1,0,0.2,0c0,0,0.1-0.1,0.1-0.2c0-0.1,0-0.2,0.1-0.3c-0.1,0-0.2,0-0.2,0.1c0,0.1,0,0-0.1-0.1c-0.1,0.1-0.1,0.1-0.1,0.2
		C77.6,8.7,77.5,8.8,77.5,8.9z M77.5,9.6c0.1,0,0.1-0.1,0.1-0.1c0,0,0.1-0.1,0.1-0.1L77.5,9.6z M80.4,22.7c0,0,0.1-0.1,0.1-0.2
		L80.4,22.7z M80.6,27.8c0,0.2-0.1,0.2-0.1,0.2C80.4,27.8,80.5,27.8,80.6,27.8z M80.6,26.8L80.6,26.8c0.1,0,0.1,0.1,0.1,0.2
		L80.6,26.8z M80.8,13.5c0-0.2,0-0.4,0-0.6L80.8,13.5z M80.9,13.5C81,13.3,81,13.3,80.9,13.5c0.1,0.1,0.1,0.2,0.1,0.3
		c-0.1,0.1-0.1,0.1-0.1,0C80.9,13.6,80.9,13.5,80.9,13.5z M81.4,13.5c0-0.1,0.1-0.2,0.2-0.3L81.4,13.5z M81.4,20.2
		c0,0,0.1,0,0.2,0.1c0,0,0-0.1,0-0.1c0,0,0-0.1,0-0.1c0,0.1-0.1,0.1-0.1,0C81.4,20.1,81.4,20.1,81.4,20.2z M82.6,17.3L82.6,17.3
		c0.2-0.1,0.1-0.2,0-0.2C82.5,17.2,82.5,17.3,82.6,17.3l-0.1,0l0,0.1c-0.1,0.1-0.3,0.3-0.5,0.5c-0.2,0.2-0.3,0.4-0.3,0.4
		c0.2-0.1,0.3-0.3,0.5-0.4c0.2-0.1,0.3-0.3,0.4-0.5l0.1,0L82.6,17.3z M81.7,12.6c0.1,0,0.2,0,0.3-0.1c-0.1-0.2-0.1-0.3-0.3-0.3
		c-0.1,0.1-0.1,0.2-0.1,0.2C81.6,12.4,81.6,12.5,81.7,12.6z M82.4,9.5c-0.2,0-0.3,0-0.2,0C82.2,9.6,82.3,9.6,82.4,9.5z M82.4,29.4
		c0-0.1,0-0.2,0-0.2c0,0-0.1-0.1-0.1-0.2c0.1-0.1,0.2-0.1,0.3,0c0,0,0,0.1,0,0.2c0,0.1-0.1,0.1-0.1,0.2
		C82.4,29.4,82.4,29.4,82.4,29.4z M82.6,29.6v0.2c-0.1,0-0.1,0-0.1,0c0,0-0.1,0-0.1,0C82.3,29.6,82.4,29.6,82.6,29.6z M82.5,17.4
		c0,0-0.1-0.1-0.1-0.1L82.5,17.4z M83.4,16.4C83.3,16.4,83.3,16.4,83.4,16.4c0,0,0,0,0.1,0L83.4,16.4z M83.8,20.2
		c-0.1,0-0.1-0.1-0.1-0.1c-0.1-0.1-0.1-0.1-0.1,0c0.1,0.1,0.2,0.2,0.3,0.3l0,0.1l0.1,0c0.1,0.1,0.1,0.1,0,0.1c-0.1,0-0.1,0.1,0,0.1
		c0.1,0,0.1-0.1,0.1-0.2l0-0.1l0-0.1c0.1,0,0.1,0,0-0.1c-0.1-0.1-0.1-0.1-0.1,0H83.8L83.8,20.2z M83.7,20.4c0,0,0.1-0.1,0.1-0.1
		L83.7,20.4z M83.8,30H84c0,0.1,0,0.1,0,0.1c0,0,0,0.1,0,0.1C83.8,30.3,83.7,30.2,83.8,30z M83.9,20.3
		C83.9,20.3,83.8,20.3,83.9,20.3c0-0.1-0.1-0.1-0.1-0.2L83.9,20.3z M83.9,20.3c0.1,0.1,0.1,0.1,0.1,0.1L83.9,20.3z M84.1,1.5
		c-0.1-0.1-0.1-0.1,0-0.2C84.2,1.2,84.2,1.3,84.1,1.5z M84.4,20.6c-0.1,0-0.2,0-0.2,0C84.3,20.6,84.3,20.6,84.4,20.6
		C84.4,20.6,84.4,20.6,84.4,20.6z M84.6,1.3c0,0,0.1,0,0.1-0.1c0,0,0.1,0,0.1,0L84.6,1.3z M85.1,2.9C85,3,84.9,3,84.9,2.9
		C84.9,2.8,85,2.8,85.1,2.9z M85.1,3.2h0.1v0.1h-0.1V3.2z M85.3,3.6c0.1,0,0.1,0.1,0.1,0.1L85.3,3.6z M85.6,14h0.3c0,0,0,0,0-0.1
		c0,0,0,0,0.1,0c0,0.1,0,0.1,0.1,0.1c0,0,0-0.1,0-0.1c0,0,0,0,0-0.1c0,0.1-0.1,0.1-0.2,0.1C85.8,13.9,85.7,14,85.6,14z M85.9,4.6
		C85.9,4.6,85.8,4.6,85.9,4.6c-0.1,0.1-0.1,0.1-0.2,0.2L85.9,4.6z M85.8,5c0.1,0,0.2,0,0.2,0L85.8,5z M86,28.1c0,0,0.1,0,0.1,0
		c0.1,0,0.1,0,0.1,0v0.1L86,28.1z M86.2,5.4C86.2,5.5,86.1,5.5,86.2,5.4c-0.1,0.1-0.1,0.1-0.1,0.1c0.1,0,0.1,0,0,0c0,0,0,0,0,0.1
		c0.1-0.1,0.1-0.1,0.2-0.1c0,0,0,0,0.1,0l0.1,0v0.2l-0.1,0l0.1,0c0,0.1,0,0.1,0,0.1c-0.1-0.1-0.1-0.1-0.1,0l-0.1,0l-0.1,0
		c-0.1,0-0.1,0-0.1,0.1s0,0.2,0.1,0.1l0.1,0l0-0.1c0.1,0.1,0.1,0.1,0.1,0.1V6.2l0.1,0l0-0.1c0,0,0-0.1,0-0.1c0,0,0-0.1,0-0.1l0.1,0
		l0.1-0.1v0.1l0.1,0c0,0.1,0,0.2,0.2,0.2s0.2-0.1,0.2-0.2c-0.1,0-0.1,0-0.2,0.1c0,0.1-0.1,0-0.1-0.1v0h-0.1c0-0.1,0.1-0.2,0.1-0.2
		c-0.1,0-0.1,0-0.1,0.1c0,0.1,0,0.1-0.1,0.1V5.7l-0.1,0c-0.1,0-0.1,0-0.1,0c0,0,0,0-0.1,0l-0.1-0.1L86.2,5.4L86.2,5.4
		C86.2,5.5,86.2,5.4,86.2,5.4z M86.2,5.9c-0.1,0.1-0.1,0.2,0,0.3V5.9z M86.2,27.8C86.2,27.7,86.2,27.7,86.2,27.8c0.2,0,0.3,0,0.3,0
		c0,0,0,0-0.1,0.1C86.3,27.9,86.3,27.9,86.2,27.8z M86.2,5.9C86.3,6,86.3,6,86.4,6.1c0,0.1,0.1,0.1,0.1,0.1L86.2,5.9z M86.2,28.6
		C86.3,28.6,86.3,28.6,86.2,28.6c0.2,0,0.2,0,0.2-0.1s0.1-0.2,0.2-0.1L86.2,28.6z M86.4,13.5c0-0.1,0.1-0.2,0.1-0.3
		c-0.1,0-0.1,0-0.1-0.1c0,0,0,0-0.1,0c0,0.1,0,0.1-0.1,0.2C86.2,13.4,86.3,13.4,86.4,13.5z M86.4,5.5c0,0.1,0,0.1,0,0.2L86.4,5.5z
		 M86.4,26c0.1,0,0.1,0,0.1-0.1c0-0.1,0.1-0.1,0.1,0c0,0,0.1,0,0.2,0c0,0.1,0,0.2-0.1,0.2c-0.1,0-0.1,0.1-0.2,0.2
		c-0.1,0-0.1-0.1-0.1-0.2C86.5,26.1,86.5,26,86.4,26z M86.4,26.4c0.1,0,0.1,0.1,0.2,0.1c0,0.1,0.1,0.1,0.1,0.1c0,0.1-0.1,0.1-0.1,0
		C86.5,26.5,86.4,26.4,86.4,26.4z M86.6,5.8l0.1-0.1L86.6,5.8z M86.7,12.9c0-0.1,0-0.2,0.1-0.2c0.1-0.1,0.1-0.1,0-0.2
		c0,0.1-0.1,0.1-0.2,0.2C86.6,12.8,86.6,12.9,86.7,12.9z M86.9,5.9c-0.1,0-0.1,0-0.2,0.1L86.9,5.9z M86.7,20.4L86.7,20.4
		c0.1,0,0.2-0.2,0.2-0.3L86.7,20.4z M86.8,26.6c0,0.1,0.1,0.1,0,0.1c0,0,0,0.1,0,0.1c-0.1,0-0.1-0.1,0-0.1
		C86.8,26.7,86.8,26.7,86.8,26.6z M87,27.6c0.1,0,0.1,0.1,0,0.1c-0.1,0.1-0.1,0.1-0.1,0.1c-0.1,0-0.1-0.1-0.1-0.1
		C86.9,27.7,87,27.6,87,27.6z M86.8,26.3C86.9,26.2,86.9,26.1,86.8,26.3c0.1,0.1,0.1,0.1,0.2,0.1c-0.1,0.1-0.1,0.1-0.1,0.1
		C86.9,26.3,86.9,26.3,86.8,26.3z M86.9,28.2c0.1,0,0.1-0.1,0.2-0.1c0,0,0.1,0,0.2-0.1L86.9,28.2z M87,4.9v0.1c0,0,0.1,0,0.1,0h0.2
		c0,0,0-0.1,0,0V4.9c-0.1,0-0.1,0,0-0.1L87,4.9C87,4.9,87,4.9,87,4.9z M87.3,28l0.1,0.1c0,0.1,0,0.1-0.1,0.1c-0.1,0-0.1,0-0.1,0.1
		c-0.1,0-0.1,0,0-0.1c0,0,0,0,0-0.1L87.3,28h-0.1c0-0.1,0-0.1-0.1-0.1c0-0.1,0-0.1,0.1,0c0,0.1,0.1,0.1,0.2,0L87.3,28z M87.1,19.1
		c0.1,0.1,0.1,0.2,0.1,0.3c0,0.1,0,0.2,0.2,0.2L87.1,19.1z M87.2,26.5C87.1,26.4,87.1,26.4,87.2,26.5C87.2,26.4,87.3,26.5,87.2,26.5
		C87.3,26.6,87.3,26.6,87.2,26.5C87.3,26.5,87.2,26.5,87.2,26.5z M87.4,27.4c-0.1,0.1-0.1,0.1-0.2,0C87.1,27.3,87.2,27.3,87.4,27.4z
		 M87.3,28c0.1,0,0.1,0,0.2,0L87.3,28z M87.4,10.6C87.4,10.5,87.4,10.5,87.4,10.6c0.1-0.1,0.1-0.1,0.1-0.1c0,0-0.1,0-0.2-0.1
		C87.3,10.5,87.3,10.6,87.4,10.6z M87.4,27.9c0-0.1,0-0.2,0.1-0.3c0.1,0,0.1-0.1,0.1-0.2c0,0,0.1,0,0.3,0c0.1,0.1,0.2,0.1,0.1,0.3
		c-0.1,0.1-0.1,0.1-0.2,0.2c-0.1,0-0.1,0.1-0.1,0.2c-0.1-0.1-0.2-0.1-0.3,0L87.4,27.9L87.4,27.9z M87.6,28.3c0.1,0,0.1-0.1,0.1-0.1
		C87.7,28.2,87.7,28.2,87.6,28.3C87.6,28.3,87.6,28.3,87.6,28.3C87.5,28.3,87.5,28.3,87.6,28.3z M87.9,26.5l0-0.1
		c0.2,0.1,0.3,0.1,0.3,0.1c0,0.1,0.1,0,0.3-0.1v0.7c-0.1,0-0.2,0-0.2,0c0,0-0.1,0-0.2,0c0-0.1-0.1-0.3-0.2-0.4
		c-0.1-0.1-0.1-0.2-0.1-0.3L87.9,26.5z M87.9,5.6v0.1C88,5.8,88,5.8,88,5.7C88,5.6,88,5.6,87.9,5.6C87.9,5.6,87.9,5.7,87.9,5.6z
		 M87.9,26.5C87.9,26.5,87.9,26.5,87.9,26.5c0-0.1,0-0.2,0-0.3c0-0.1,0-0.1,0-0.2V26.5z M98.2,4.2c-0.1,0-0.1,0-0.1,0
		c0,0-0.1,0-0.2,0c0.1,0,0.2,0.1,0.1,0.2c0,0.1,0,0.2,0.1,0.3c-0.1,0-0.2,0-0.1,0.3c0,0.2,0,0.4-0.1,0.5c-0.1,0-0.1,0-0.2-0.1
		c-0.1,0-0.1,0-0.2,0.1c0.1,0.1,0.2,0.1,0.3,0.2c0.1,0.1,0.2,0.1,0.5,0.2c0-0.1,0-0.2,0.1-0.3c0.1-0.1,0-0.2-0.1-0.3
		c0-0.1,0.1-0.2,0.2-0.2c0.1,0,0.1-0.2,0.1-0.3c0.2,0,0.3,0,0.3,0c0,0,0.1,0,0.1,0c0.1,0,0.1,0,0.2,0s0.2,0,0.3,0V8
		c0,0.1,0.1,0.2,0.1,0.3c0.1,0.1,0,0.2-0.1,0.4c0.1,0.1,0.2,0.2,0.1,0.4c0,0.2-0.1,0.4-0.1,0.7h-0.1v0.1c0,0-0.1,0,0-0.1
		c0-0.1,0-0.2,0-0.2h-8.9l0,0V9.3c0.1-0.1,0.1-0.1,0.2,0c0.1,0.1,0.1,0,0.1-0.1c-0.2,0-0.5,0-0.8,0c-0.3,0-0.7,0.1-1,0.2V9.2h0
		c-0.1-0.6-0.2-1.2-0.2-1.8s-0.1-1.1-0.2-1.5c0,0,0.1,0,0.1,0.1c0,0,0,0,0.1,0c-0.2-0.4-0.3-0.9-0.3-1.4c-0.1-0.5-0.1-1-0.2-1.4h1.4
		v0.1h0.1c-0.1,0.1-0.1,0.1-0.1,0.3c0.2,0,0.3-0.1,0.3-0.2H90v0c0,0,0.1,0,0.2,0c0.1,0,0.1-0.1,0.1-0.1c0,0,0,0,0.1-0.1
		c1.3,0,2.6,0,3.9,0c1.3,0,2.6,0,3.9,0.1c0,0.1,0,0.2,0,0.2c0.1,0.1,0,0.1,0,0.1h0.1v0.1l0.1,0c0,0.1,0.1,0.1,0.1,0.2
		c0,0.1,0,0.1,0.1,0.2l-0.1,0L98.2,4.2z M88.3,6.2c0-0.2,0-0.3,0-0.4L88.3,6.2z M88.6,14c0.1,0,0.1,0.1,0.1,0.1c0,0,0.1,0.1,0.1,0.1
		L88.6,14z M88.9,27h0.3c0,0.1,0,0.1,0,0.2c0,0-0.1,0.1-0.1,0.1c-0.1,0-0.1,0-0.2-0.1C88.9,27.2,88.9,27.1,88.9,27z M89.1,9.2
		L89.1,9.2v0.2c0.5,0.1,1,0.1,1.5,0L89.1,9.2z M89.3,25.8c0.1-0.1,0.2-0.1,0.2-0.1c0,0,0.1,0,0.1-0.1c0.1,0.1,0.1,0.1,0,0.1
		c0,0.2,0.1,0.2,0.1,0.3c0,0,0,0.1-0.1,0.2c-0.1-0.1-0.2-0.1-0.3-0.2C89.2,25.9,89.1,25.9,89.3,25.8L89.3,25.8L89.3,25.8z M89.6,3.2
		c0.1,0,0.2,0,0.2-0.1c0.1,0,0.1,0,0.2,0.1L89.6,3.2z M89.8,24.9c0,0.1,0.1,0.1,0.2,0.1c0.1,0,0.1,0.1,0.1,0.2c-0.1,0-0.1,0-0.1,0.1
		C89.8,25.3,89.8,25.1,89.8,24.9z M90.2,26.4c-0.2,0.1-0.3,0.1-0.3,0c0-0.1,0-0.2,0-0.2c0-0.1,0.1-0.1,0.2-0.1
		C90.1,26.1,90.2,26.2,90.2,26.4z M90.6,6.5C90.6,6.5,90.6,6.5,90.6,6.5c0-0.1-0.1-0.1-0.1-0.1C90.5,6.5,90.5,6.6,90.6,6.5l0,0.2
		l0,0.1h-0.1v0.1h0.1l0,0.1l0.1,0c0,0.1,0,0.1,0.1,0.2c0-0.1,0-0.2,0.2-0.3l0.1,0l0.1,0c0,0.1,0.1,0.1,0.1,0.1c0.1,0,0-0.1-0.1-0.1
		V6.8h-0.1c0,0,0.1-0.1,0.1-0.2l0.1,0V6.6c0-0.1,0-0.1,0-0.1c0,0,0.1,0,0.1-0.1c-0.1,0-0.2,0-0.2,0.2l-0.1,0l0,0.1l-0.1,0.1l0-0.1
		l-0.1,0c-0.1,0-0.1,0,0-0.1c0,0,0,0,0-0.1c0,0.1,0,0.1,0,0.1c0,0,0,0,0,0.1l0,0l-0.1,0L90.6,6.5l0.1,0L90.6,6.5z M90.6,6.7
		c0,0,0.1-0.1,0.1-0.2L90.6,6.7z M90.7,7c0-0.1,0-0.2-0.1-0.3L90.7,7z M90.7,7c0.2,0,0.3-0.1,0.3-0.2L90.7,7z M91,6.8
		c-0.1,0-0.1,0-0.1-0.1L91,6.8z M91.1,6.8C91.1,6.7,91.1,6.7,91.1,6.8c0-0.1,0-0.1,0-0.1L91.1,6.8z M91.1,6.8
		C91.1,6.8,91.1,6.8,91.1,6.8c0,0.1,0,0.1,0,0.2L91.1,6.8z M91.1,6.9c0,0,0.1-0.1,0.1-0.1c0,0,0,0,0.1,0L91.1,6.9z M91.4,6.7
		C91.4,6.6,91.3,6.6,91.4,6.7c-0.1-0.1-0.1-0.1-0.2-0.1L91.4,6.7z M98.2,3.7c0,0,0.1-0.1,0.2-0.1L98.2,3.7z M98.3,3.2
		c0.1,0,0.1,0,0.1,0.1s0,0.1-0.1,0.1V3.2z M98.5,4.6c-0.2-0.1-0.2-0.3-0.2-0.4L98.5,4.6z M98.3,4.2c0.2,0,0.2,0,0.3-0.1
		c0-0.1,0.1-0.2,0.1-0.3L98.3,4.2z M99,3.2c0.1,0.1,0.2,0.1,0.2,0c0.1,0.1,0.1,0.1,0,0.2C99,3.4,99,3.5,99,3.5c-0.1,0-0.1-0.1,0-0.1
		C99,3.3,99,3.2,99,3.2z M99,3.9C99.1,4,99.1,4,99.1,4.1c0,0,0,0-0.1,0c0,0-0.1,0-0.1,0C99,4,99,4,99,3.9z M99.5,9.6
		c0.1,0.2,0.2,0.4,0.1,0.6c0,0.2,0,0.4,0,0.6L99.5,9.6z"/>
</g>
</svg>
